NotoSansCanadianAboriginal.glyphspackage
{
export = 0;
glyphname = ring;
layers = (
{
layerId = master01;
shapes = (
{
closed = 1;
nodes = (
(196,611,o),
(241,652,o),
(241,711,cs),
(241,766,o),
(196,811,o),
(141,811,cs),
(86,811,o),
(40,768,o),
(40,711,cs),
(40,651,o),
(87,611,o),
(141,611,cs)
);
},
{
closed = 1;
nodes = (
(96,635,o),
(64,669,o),
(64,711,cs),
(64,753,o),
(97,787,o),
(141,787,cs),
(182,787,o),
(217,753,o),
(217,711,cs),
(217,669,o),
(186,635,o),
(141,635,cs)
);
}
);
vertWidth = 0;
width = 281;
},
{
layerId = "95BBE91D-E142-4583-9333-40F49FDAAF51";
shapes = (
{
closed = 1;
nodes = (
(213,606,o),
(260,645,o),
(260,713,cs),
(260,778,o),
(212,817,o),
(149,817,cs),
(84,817,o),
(40,778,o),
(40,712,cs),
(40,645,o),
(84,606,o),
(149,606,cs)
);
},
{
closed = 1;
nodes = (
(113,656,o),
(93,677,o),
(93,712,cs),
(93,747,o),
(117,768,o),
(149,768,cs),
(181,768,o),
(205,747,o),
(205,712,cs),
(205,677,o),
(182,656,o),
(149,656,cs)
);
}
);
vertWidth = 0;
width = 300;
},
{
layerId = "3DE82CA6-356F-4113-A2BF-F7F877EAC5C8";
shapes = (
{
closed = 1;
nodes = (
(243,604,o),
(302,651,o),
(302,728,cs),
(302,804,o),
(242,851,o),
(169,851,cs),
(92,851,o),
(40,804,o),
(40,727,cs),
(40,651,o),
(92,604,o),
(169,604,cs)
);
},
{
closed = 1;
nodes = (
(142,686,o),
(128,703,o),
(128,727,cs),
(128,752,o),
(146,768,o),
(169,768,cs),
(192,768,o),
(210,752,o),
(210,727,cs),
(210,703,o),
(192,686,o),
(169,686,cs)
);
}
);
vertWidth = 0;
width = 342;
}
);
note = ring;
unicode = 730;
}
{
export = 0;
glyphname = ogonek;
layers = (
{
layerId = master01;
shapes = (
{
closed = 1;
nodes = (
(143,-217,o),
(161,-213,o),
(172,-209,c),
(172,-185,l),
(161,-189,o),
(143,-192,o),
(124,-192,cs),
(85,-192,o),
(66,-170,o),
(66,-131,cs),
(66,-80,o),
(112,-36,o),
(158,0,c),
(140,11,l),
(70,-41,o),
(40,-87,o),
(40,-135,cs),
(40,-190,o),
(76,-217,o),
(122,-217,cs)
);
}
);
vertWidth = 0;
width = 212;
},
{
layerId = "95BBE91D-E142-4583-9333-40F49FDAAF51";
shapes = (
{
closed = 1;
nodes = (
(169,-220,o),
(186,-216,o),
(205,-211,c),
(205,-155,l),
(194,-157,o),
(179,-161,o),
(157,-161,cs),
(129,-161,o),
(112,-146,o),
(112,-116,cs),
(112,-75,o),
(135,-43,o),
(180,0,c),
(132,15,l),
(92,-13,o),
(40,-69,o),
(40,-126,cs),
(40,-185,o),
(72,-220,o),
(143,-220,cs)
);
}
);
vertWidth = 0;
width = 245;
},
{
layerId = "3DE82CA6-356F-4113-A2BF-F7F877EAC5C8";
shapes = (
{
closed = 1;
nodes = (
(211,-240,o),
(238,-234,o),
(260,-227,c),
(260,-119,l),
(246,-125,o),
(219,-130,o),
(202,-130,cs),
(179,-130,o),
(164,-121,o),
(164,-97,cs),
(164,-67,o),
(184,-43,o),
(229,0,c),
(154,25,l),
(65,-35,o),
(40,-82,o),
(40,-127,cs),
(40,-197,o),
(99,-240,o),
(175,-240,cs)
);
}
);
vertWidth = 0;
width = 300;
}
);
note = ogonek;
unicode = 731;
}
{
glyphname = uni1400;
layers = (
{
layerId = master01;
shapes = (
{
closed = 1;
nodes = (
(407,418,l),
(407,439,l),
(49,439,l),
(49,418,l)
);
},
{
closed = 1;
nodes = (
(407,294,l),
(407,315,l),
(49,315,l),
(49,294,l)
);
}
);
vertWidth = 0;
width = 456;
},
{
layerId = "95BBE91D-E142-4583-9333-40F49FDAAF51";
shapes = (
{
closed = 1;
nodes = (
(407,406,l),
(407,474,l),
(39,474,l),
(39,406,l)
);
},
{
closed = 1;
nodes = (
(407,260,l),
(407,327,l),
(39,327,l),
(39,260,l)
);
}
);
vertWidth = 0;
width = 446;
},
{
layerId = "3DE82CA6-356F-4113-A2BF-F7F877EAC5C8";
shapes = (
{
closed = 1;
nodes = (
(407,408,l),
(407,514,l),
(39,514,l),
(39,408,l)
);
},
{
closed = 1;
nodes = (
(407,240,l),
(407,345,l),
(39,345,l),
(39,240,l)
);
}
);
vertWidth = 0;
width = 446;
}
);
note = uni1400;
unicode = 5120;
}
{
glyphname = uni1401;
layers = (
{
layerId = master01;
shapes = (
{
closed = 1;
nodes = (
(410,-12,l),
(738,701,l),
(738,714,l),
(59,714,l),
(59,701,l),
(387,-12,l)
);
},
{
closed = 1;
nodes = (
(93,689,l),
(704,689,l),
(398,16,l)
);
}
);
vertWidth = 0;
width = 797;
},
{
layerId = "95BBE91D-E142-4583-9333-40F49FDAAF51";
shapes = (
{
closed = 1;
nodes = (
(398,-12,l),
(728,704,l),
(728,714,l),
(49,714,l),
(49,704,l),
(378,-12,l)
);
},
{
closed = 1;
nodes = (
(163,643,l),
(613,643,l),
(388,139,l)
);
}
);
vertWidth = 0;
width = 777;
},
{
layerId = "3DE82CA6-356F-4113-A2BF-F7F877EAC5C8";
shapes = (
{
closed = 1;
nodes = (
(449,-12,l),
(803,669,l),
(803,714,l),
(39,714,l),
(39,669,l),
(393,-12,l)
);
},
{
closed = 1;
nodes = (
(282,558,l),
(560,558,l),
(421,279,l)
);
}
);
vertWidth = 0;
width = 842;
}
);
note = uni1401;
unicode = 5121;
}
{
glyphname = uni1403;
layers = (
{
layerId = master01;
shapes = (
{
closed = 1;
nodes = (
(738,0,l),
(738,13,l),
(410,726,l),
(387,726,l),
(59,13,l),
(59,0,l)
);
},
{
closed = 1;
nodes = (
(398,698,l),
(704,25,l),
(93,25,l)
);
}
);
vertWidth = 0;
width = 797;
},
{
layerId = "95BBE91D-E142-4583-9333-40F49FDAAF51";
shapes = (
{
closed = 1;
nodes = (
(728,0,l),
(728,10,l),
(398,726,l),
(378,726,l),
(49,10,l),
(49,0,l)
);
},
{
closed = 1;
nodes = (
(388,575,l),
(613,71,l),
(163,71,l)
);
}
);
vertWidth = 0;
width = 777;
},
{
layerId = "3DE82CA6-356F-4113-A2BF-F7F877EAC5C8";
shapes = (
{
closed = 1;
nodes = (
(803,0,l),
(803,45,l),
(449,726,l),
(393,726,l),
(39,45,l),
(39,0,l)
);
},
{
closed = 1;
nodes = (
(421,435,l),
(560,156,l),
(282,156,l)
);
}
);
vertWidth = 0;
width = 842;
}
);
metricLeft = "=uni1401";
metricRight = "=uni1401";
note = uni1403;
unicode = 5123;
}
{
glyphname = uni1405;
layers = (
{
layerId = master01;
shapes = (
{
closed = 1;
nodes = (
(89,-11,l),
(703,348,l),
(703,366,l),
(89,725,l),
(79,725,l),
(79,-11,l)
);
},
{
closed = 1;
nodes = (
(105,686,l),
(669,357,l),
(105,28,l)
);
}
);
vertWidth = 0;
width = 752;
},
{
layerId = "95BBE91D-E142-4583-9333-40F49FDAAF51";
shapes = (
{
closed = 1;
nodes = (
(79,-10,l),
(693,350,l),
(693,364,l),
(79,725,l),
(69,725,l),
(69,-10,l)
);
},
{
closed = 1;
nodes = (
(147,597,l),
(567,357,l),
(147,117,l)
);
}
);
vertWidth = 0;
width = 732;
},
{
layerId = "3DE82CA6-356F-4113-A2BF-F7F877EAC5C8";
shapes = (
{
closed = 1;
nodes = (
(104,-10,l),
(699,336,l),
(699,381,l),
(104,725,l),
(59,725,l),
(59,-10,l)
);
},
{
closed = 1;
nodes = (
(213,485,l),
(450,358,l),
(213,231,l)
);
}
);
vertWidth = 0;
width = 728;
}
);
note = uni1405;
unicode = 5125;
}
{
glyphname = uni140A;
layers = (
{
layerId = master01;
shapes = (
{
closed = 1;
nodes = (
(673,-11,l),
(673,725,l),
(663,725,l),
(49,366,l),
(49,348,l),
(663,-11,l)
);
},
{
closed = 1;
nodes = (
(83,357,l),
(647,686,l),
(647,28,l)
);
}
);
vertWidth = 0;
width = 752;
},
{
layerId = "95BBE91D-E142-4583-9333-40F49FDAAF51";
shapes = (
{
closed = 1;
nodes = (
(663,-10,l),
(663,725,l),
(653,725,l),
(39,364,l),
(39,350,l),
(653,-10,l)
);
},
{
closed = 1;
nodes = (
(165,357,l),
(584,597,l),
(584,117,l)
);
}
);
vertWidth = 0;
width = 732;
},
{
layerId = "3DE82CA6-356F-4113-A2BF-F7F877EAC5C8";
shapes = (
{
closed = 1;
nodes = (
(669,-10,l),
(669,725,l),
(624,725,l),
(29,381,l),
(29,336,l),
(624,-10,l)
);
},
{
closed = 1;
nodes = (
(278,358,l),
(515,485,l),
(515,231,l)
);
}
);
vertWidth = 0;
width = 728;
}
);
note = uni140A;
unicode = 5130;
}
{
glyphname = uni141C;
layers = (
{
layerId = master01;
shapes = (
{
closed = 1;
nodes = (
(245,341,o),
(274,383,o),
(292,448,c),
(310,383,o),
(339,341,o),
(408,341,cs),
(500,341,o),
(535,421,o),
(535,530,cs),
(535,714,l),
(511,714,l),
(511,530,ls),
(511,431,o),
(478,363,o),
(408,363,cs),
(335,363,o),
(304,431,o),
(304,530,cs),
(304,714,l),
(280,714,l),
(280,530,ls),
(280,431,o),
(249,363,o),
(176,363,cs),
(106,363,o),
(73,431,o),
(73,530,cs),
(73,714,l),
(49,714,l),
(49,530,ls),
(49,421,o),
(84,341,o),
(176,341,cs)
);
}
);
vertWidth = 0;
width = 584;
},
{
layerId = "95BBE91D-E142-4583-9333-40F49FDAAF51";
shapes = (
{
closed = 1;
nodes = (
(226,334,o),
(264,358,o),
(295,407,c),
(327,358,o),
(366,334,o),
(412,334,cs),
(505,334,o),
(552,405,o),
(552,545,cs),
(552,714,l),
(477,714,l),
(477,557,ls),
(477,478,o),
(466,402,o),
(408,402,cs),
(345,402,o),
(333,477,o),
(333,557,cs),
(333,714,l),
(258,714,l),
(258,557,ls),
(258,481,o),
(247,402,o),
(188,402,cs),
(140,402,o),
(114,453,o),
(114,540,cs),
(114,714,l),
(39,714,l),
(39,543,ls),
(39,405,o),
(87,334,o),
(183,334,cs)
);
}
);
vertWidth = 0;
width = 591;
},
{
layerId = "3DE82CA6-356F-4113-A2BF-F7F877EAC5C8";
shapes = (
{
closed = 1;
nodes = (
(233,355,o),
(262,370,o),
(292,404,c),
(323,368,o),
(352,355,o),
(400,355,cs),
(525,355,o),
(553,447,o),
(553,579,cs),
(553,714,l),
(435,714,l),
(435,541,ls),
(435,485,o),
(417,463,o),
(392,463,cs),
(367,463,o),
(350,485,o),
(350,541,cs),
(350,714,l),
(232,714,l),
(232,541,ls),
(232,485,o),
(215,463,o),
(189,463,cs),
(165,463,o),
(147,485,o),
(147,541,cs),
(147,714,l),
(29,714,l),
(29,569,ls),
(29,422,o),
(79,355,o),
(183,355,cs)
);
}
);
vertWidth = 0;
width = 582;
}
);
note = uni141C;
unicode = 5148;
}
{
glyphname = uni141D;
layers = (
{
layerId = master01;
shapes = (
{
closed = 1;
nodes = (
(429,526,o),
(472,569,o),
(472,622,cs),
(472,675,o),
(429,718,o),
(376,718,cs),
(323,718,o),
(280,675,o),
(280,622,cs),
(280,569,o),
(323,526,o),
(376,526,cs)
);
},
{
closed = 1;
nodes = (
(198,356,o),
(241,399,o),
(241,452,cs),
(241,505,o),
(198,548,o),
(145,548,cs),
(92,548,o),
(49,505,o),
(49,452,cs),
(49,399,o),
(92,356,o),
(145,356,cs)
);
},
{
closed = 1;
nodes = (
(104,378,o),
(72,411,o),
(72,452,cs),
(72,493,o),
(104,526,o),
(145,526,cs),
(186,526,o),
(218,493,o),
(218,452,cs),
(218,411,o),
(186,378,o),
(145,378,cs)
);
},
{
closed = 1;
nodes = (
(335,548,o),
(303,581,o),
(303,622,cs),
(303,663,o),
(335,696,o),
(376,696,cs),
(417,696,o),
(449,663,o),
(449,622,cs),
(449,581,o),
(417,548,o),
(376,548,cs)
);
}
);
vertWidth = 0;
width = 521;
},
{
layerId = "95BBE91D-E142-4583-9333-40F49FDAAF51";
shapes = (
{
closed = 1;
nodes = (
(464,507,o),
(515,554,o),
(515,616,cs),
(515,677,o),
(465,726,o),
(405,726,cs),
(342,726,o),
(295,675,o),
(295,616,cs),
(295,555,o),
(344,507,o),
(405,507,cs)
);
},
{
closed = 1;
nodes = (
(208,332,o),
(258,379,o),
(258,441,cs),
(258,502,o),
(209,551,o),
(148,551,cs),
(86,551,o),
(39,500,o),
(39,441,cs),
(39,380,o),
(87,332,o),
(148,332,cs)
);
},
{
closed = 1;
nodes = (
(117,384,o),
(91,410,o),
(91,441,cs),
(91,473,o),
(117,499,o),
(148,499,cs),
(180,499,o),
(206,473,o),
(206,441,cs),
(206,410,o),
(180,384,o),
(148,384,cs)
);
},
{
closed = 1;
nodes = (
(374,559,o),
(348,585,o),
(348,616,cs),
(348,648,o),
(373,673,o),
(405,673,cs),
(437,673,o),
(462,648,o),
(462,616,cs),
(462,584,o),
(437,559,o),
(405,559,cs)
);
}
);
vertWidth = 0;
width = 554;
},
{
layerId = "3DE82CA6-356F-4113-A2BF-F7F877EAC5C8";
shapes = (
{
closed = 1;
nodes = (
(539,459,o),
(599,518,o),
(599,591,cs),
(599,665,o),
(539,724,o),
(466,724,cs),
(392,724,o),
(333,665,o),
(333,591,cs),
(333,518,o),
(392,459,o),
(466,459,cs)
);
},
{
closed = 1;
nodes = (
(235,347,o),
(295,406,o),
(295,479,cs),
(295,553,o),
(235,612,o),
(162,612,cs),
(88,612,o),
(29,553,o),
(29,479,cs),
(29,406,o),
(88,347,o),
(162,347,cs)
);
},
{
closed = 1;
nodes = (
(137,429,o),
(116,450,o),
(116,479,cs),
(116,509,o),
(137,529,o),
(162,529,cs),
(188,529,o),
(208,509,o),
(208,479,cs),
(208,450,o),
(188,429,o),
(162,429,cs)
);
},
{
closed = 1;
nodes = (
(440,541,o),
(420,562,o),
(420,591,cs),
(420,621,o),
(440,641,o),
(466,641,cs),
(491,641,o),
(512,621,o),
(512,591,cs),
(512,562,o),
(491,541,o),
(466,541,cs)
);
}
);
vertWidth = 0;
width = 628;
}
);
note = uni141D;
unicode = 5149;
}
{
glyphname = uni141E;
layers = (
{
layerId = master01;
shapes = (
{
closed = 1;
nodes = (
(491,342,l),
(491,348,l),
(270,725,l),
(259,725,l),
(39,348,l),
(39,342,l)
);
},
{
closed = 1;
nodes = (
(265,687,l),
(453,364,l),
(76,364,l)
);
}
);
vertWidth = 0;
width = 530;
},
{
layerId = "95BBE91D-E142-4583-9333-40F49FDAAF51";
shapes = (
{
closed = 1;
nodes = (
(462,342,l),
(462,364,l),
(256,736,l),
(235,736,l),
(29,364,l),
(29,342,l)
);
},
{
closed = 1;
nodes = (
(245,606,l),
(355,409,l),
(136,409,l)
);
}
);
vertWidth = 0;
width = 491;
},
{
layerId = "3DE82CA6-356F-4113-A2BF-F7F877EAC5C8";
shapes = (
{
closed = 1;
nodes = (
(499,307,l),
(499,330,l),
(271,726,l),
(248,726,l),
(19,330,l),
(19,307,l)
);
},
{
closed = 1;
nodes = (
(259,540,l),
(328,412,l),
(190,412,l)
);
}
);
vertWidth = 0;
width = 518;
}
);
note = uni141E;
unicode = 5150;
}
{
glyphname = uni141F;
layers = (
{
layerId = master01;
shapes = (
{
closed = 1;
nodes = (
(57,352,l),
(233,714,l),
(205,714,l),
(29,352,l)
);
}
);
vertWidth = 0;
width = 262;
},
{
layerId = "95BBE91D-E142-4583-9333-40F49FDAAF51";
shapes = (
{
closed = 1;
nodes = (
(112,342,l),
(288,714,l),
(204,714,l),
(29,342,l)
);
}
);
vertWidth = 0;
width = 317;
},
{
layerId = "3DE82CA6-356F-4113-A2BF-F7F877EAC5C8";
shapes = (
{
closed = 1;
nodes = (
(137,317,l),
(347,714,l),
(229,714,l),
(19,317,l)
);
}
);
vertWidth = 0;
width = 366;
}
);
note = uni141F;
unicode = 5151;
}
{
glyphname = uni1420;
layers = (
{
layerId = master01;
shapes = (
{
closed = 1;
nodes = (
(233,352,l),
(57,714,l),
(29,714,l),
(205,352,l)
);
}
);
vertWidth = 0;
width = 262;
},
{
layerId = "95BBE91D-E142-4583-9333-40F49FDAAF51";
shapes = (
{
closed = 1;
nodes = (
(283,342,l),
(108,714,l),
(24,714,l),
(200,342,l)
);
}
);
vertWidth = 0;
width = 307;
},
{
layerId = "3DE82CA6-356F-4113-A2BF-F7F877EAC5C8";
shapes = (
{
closed = 1;
nodes = (
(347,317,l),
(137,714,l),
(19,714,l),
(229,317,l)
);
}
);
vertWidth = 0;
width = 366;
}
);
note = uni1420;
unicode = 5152;
}
{
glyphname = uni1421;
layers = (
{
layerId = master01;
shapes = (
{
closed = 1;
nodes = (
(304,393,o),
(337,455,o),
(337,572,cs),
(337,714,l),
(313,714,l),
(313,582,ls),
(313,462,o),
(282,413,o),
(193,413,cs),
(104,413,o),
(73,462,o),
(73,582,cs),
(73,714,l),
(49,714,l),
(49,572,ls),
(49,455,o),
(82,393,o),
(193,393,cs)
);
}
);
vertWidth = 0;
width = 386;
},
{
layerId = "95BBE91D-E142-4583-9333-40F49FDAAF51";
shapes = (
{
closed = 1;
nodes = (
(313,383,o),
(365,437,o),
(365,567,cs),
(365,714,l),
(290,714,l),
(290,574,ls),
(290,488,o),
(261,451,o),
(201,451,cs),
(142,451,o),
(114,490,o),
(114,574,cs),
(114,714,l),
(39,714,l),
(39,567,ls),
(39,438,o),
(91,383,o),
(201,383,cs)
);
}
);
vertWidth = 0;
width = 404;
},
{
layerId = "3DE82CA6-356F-4113-A2BF-F7F877EAC5C8";
shapes = (
{
closed = 1;
nodes = (
(353,355,o),
(392,440,o),
(392,579,cs),
(392,714,l),
(273,714,l),
(273,541,ls),
(273,485,o),
(246,463,o),
(210,463,cs),
(175,463,o),
(148,485,o),
(148,541,cs),
(148,714,l),
(29,714,l),
(29,569,ls),
(29,418,o),
(90,355,o),
(210,355,cs)
);
}
);
vertWidth = 0;
width = 421;
}
);
note = uni1421;
unicode = 5153;
}
{
glyphname = uni1422;
layers = (
{
layerId = master01;
shapes = (
{
closed = 1;
nodes = (
(73,400,l),
(73,532,ls),
(73,652,o),
(104,701,o),
(193,701,cs),
(282,701,o),
(313,652,o),
(313,532,cs),
(313,400,l),
(337,400,l),
(337,542,ls),
(337,659,o),
(304,721,o),
(193,721,cs),
(82,721,o),
(49,659,o),
(49,542,cs),
(49,400,l)
);
}
);
vertWidth = 0;
width = 386;
},
{
layerId = "95BBE91D-E142-4583-9333-40F49FDAAF51";
shapes = (
{
closed = 1;
nodes = (
(114,391,l),
(114,530,ls),
(114,615,o),
(142,654,o),
(201,654,cs),
(261,654,o),
(290,616,o),
(290,530,cs),
(290,391,l),
(365,391,l),
(365,537,ls),
(365,667,o),
(314,721,o),
(201,721,cs),
(91,721,o),
(39,667,o),
(39,537,cs),
(39,391,l)
);
}
);
vertWidth = 0;
width = 404;
},
{
layerId = "3DE82CA6-356F-4113-A2BF-F7F877EAC5C8";
shapes = (
{
closed = 1;
nodes = (
(148,367,l),
(148,540,ls),
(148,596,o),
(175,618,o),
(210,618,cs),
(246,618,o),
(273,596,o),
(273,540,cs),
(273,367,l),
(392,367,l),
(392,502,ls),
(392,641,o),
(353,726,o),
(210,726,cs),
(90,726,o),
(29,663,o),
(29,512,cs),
(29,367,l)
);
}
);
vertWidth = 0;
width = 421;
}
);
note = uni1422;
unicode = 5154;
}
{
glyphname = uni1423;
layers = (
{
layerId = master01;
shapes = (
{
closed = 1;
nodes = (
(141,382,ls),
(261,382,o),
(320,437,o),
(320,548,cs),
(320,659,o),
(261,714,o),
(141,714,cs),
(49,714,l),
(49,692,l),
(140,692,ls),
(263,692,o),
(296,634,o),
(296,548,cs),
(296,462,o),
(263,404,o),
(140,404,cs),
(49,404,l),
(49,382,l)
);
}
);
vertWidth = 0;
width = 369;
},
{
layerId = "95BBE91D-E142-4583-9333-40F49FDAAF51";
shapes = (
{
closed = 1;
nodes = (
(92,342,ls),
(256,342,o),
(324,400,o),
(324,537,cs),
(324,659,o),
(250,714,o),
(102,714,cs),
(39,714,l),
(39,646,l),
(103,646,ls),
(207,646,o),
(249,611,o),
(249,537,cs),
(249,447,o),
(215,409,o),
(84,409,cs),
(39,409,l),
(39,342,l)
);
}
);
vertWidth = 0;
width = 363;
},
{
layerId = "3DE82CA6-356F-4113-A2BF-F7F877EAC5C8";
shapes = (
{
closed = 1;
nodes = (
(111,317,ls),
(283,317,o),
(359,379,o),
(359,518,cs),
(359,655,o),
(285,714,o),
(123,714,cs),
(29,714,l),
(29,606,l),
(130,606,ls),
(211,606,o),
(241,579,o),
(241,517,cs),
(241,454,o),
(211,425,o),
(114,425,cs),
(29,425,l),
(29,317,l)
);
}
);
vertWidth = 0;
width = 388;
}
);
note = uni1423;
unicode = 5155;
}
{
glyphname = uni1424;
layers = (
{
layerId = master01;
shapes = (
{
closed = 1;
nodes = (
(295,401,o),
(366,472,o),
(366,558,cs),
(366,644,o),
(293,714,o),
(207,714,cs),
(122,714,o),
(49,644,o),
(49,558,cs),
(49,472,o),
(120,401,o),
(207,401,cs)
);
},
{
closed = 1;
nodes = (
(133,423,o),
(73,485,o),
(73,559,cs),
(73,633,o),
(135,693,o),
(207,693,cs),
(279,693,o),
(342,633,o),
(342,559,cs),
(342,486,o),
(281,423,o),
(207,423,cs)
);
}
);
vertWidth = 0;
width = 415;
},
{
layerId = "95BBE91D-E142-4583-9333-40F49FDAAF51";
shapes = (
{
closed = 1;
nodes = (
(306,383,o),
(382,459,o),
(382,552,cs),
(382,646,o),
(304,721,o),
(210,721,cs),
(118,721,o),
(39,646,o),
(39,552,cs),
(39,459,o),
(116,383,o),
(210,383,cs)
);
},
{
closed = 1;
nodes = (
(156,453,o),
(114,499,o),
(114,553,cs),
(114,608,o),
(158,652,o),
(210,652,cs),
(263,652,o),
(307,607,o),
(307,553,cs),
(307,500,o),
(264,453,o),
(210,453,cs)
);
}
);
vertWidth = 0;
width = 421;
},
{
layerId = "3DE82CA6-356F-4113-A2BF-F7F877EAC5C8";
shapes = (
{
closed = 1;
nodes = (
(358,315,o),
(441,406,o),
(441,518,cs),
(441,631,o),
(357,721,o),
(235,721,cs),
(113,721,o),
(29,631,o),
(29,518,cs),
(29,406,o),
(112,315,o),
(235,315,cs)
);
},
{
closed = 1;
nodes = (
(177,423,o),
(147,467,o),
(147,518,cs),
(147,571,o),
(179,613,o),
(235,613,cs),
(292,613,o),
(323,570,o),
(323,519,cs),
(323,468,o),
(293,423,o),
(235,423,cs)
);
}
);
vertWidth = 0;
width = 470;
}
);
note = uni1424;
unicode = 5156;
}
{
glyphname = uni1425;
layers = (
{
layerId = master01;
shapes = (
{
closed = 1;
nodes = (
(185,352,l),
(361,714,l),
(333,714,l),
(157,352,l)
);
},
{
closed = 1;
nodes = (
(57,352,l),
(233,714,l),
(205,714,l),
(29,352,l)
);
}
);
vertWidth = 0;
width = 390;
},
{
layerId = "95BBE91D-E142-4583-9333-40F49FDAAF51";
shapes = (
{
closed = 1;
nodes = (
(261,342,l),
(437,714,l),
(353,714,l),
(178,342,l)
);
},
{
closed = 1;
nodes = (
(107,342,l),
(283,714,l),
(199,714,l),
(24,342,l)
);
}
);
vertWidth = 0;
width = 461;
},
{
layerId = "3DE82CA6-356F-4113-A2BF-F7F877EAC5C8";
shapes = (
{
closed = 1;
nodes = (
(320,317,l),
(530,714,l),
(412,714,l),
(202,317,l)
);
},
{
closed = 1;
nodes = (
(137,317,l),
(347,714,l),
(229,714,l),
(19,317,l)
);
}
);
vertWidth = 0;
width = 549;
}
);
note = uni1425;
unicode = 5157;
}
{
glyphname = uni1426;
layers = (
{
layerId = master01;
shapes = (
{
closed = 1;
nodes = (
(226,352,l),
(226,714,l),
(202,714,l),
(202,352,l)
);
},
{
closed = 1;
nodes = (
(73,352,l),
(73,714,l),
(49,714,l),
(49,352,l)
);
}
);
vertWidth = 0;
width = 275;
},
{
layerId = "95BBE91D-E142-4583-9333-40F49FDAAF51";
shapes = (
{
closed = 1;
nodes = (
(266,342,l),
(266,714,l),
(190,714,l),
(190,342,l)
);
},
{
closed = 1;
nodes = (
(114,342,l),
(114,714,l),
(39,714,l),
(39,342,l)
);
}
);
vertWidth = 0;
width = 305;
},
{
layerId = "3DE82CA6-356F-4113-A2BF-F7F877EAC5C8";
shapes = (
{
closed = 1;
nodes = (
(335,317,l),
(335,714,l),
(217,714,l),
(217,317,l)
);
},
{
closed = 1;
nodes = (
(147,317,l),
(147,714,l),
(29,714,l),
(29,317,l)
);
}
);
vertWidth = 0;
width = 364;
}
);
note = uni1426;
unicode = 5158;
}
{
glyphname = uni1427;
layers = (
{
layerId = master01;
shapes = (
{
closed = 1;
nodes = (
(111,324,o),
(126,338,o),
(126,357,cs),
(126,375,o),
(111,390,o),
(93,390,cs),
(74,390,o),
(59,375,o),
(59,357,cs),
(59,338,o),
(74,324,o),
(93,324,cs)
);
}
);
vertWidth = 0;
width = 185;
},
{
layerId = "95BBE91D-E142-4583-9333-40F49FDAAF51";
shapes = (
{
closed = 1;
nodes = (
(141,300,o),
(167,327,o),
(167,359,cs),
(167,392,o),
(141,418,o),
(108,418,cs),
(75,418,o),
(49,392,o),
(49,359,cs),
(49,327,o),
(75,300,o),
(108,300,cs)
);
}
);
vertWidth = 0;
width = 216;
},
{
layerId = "3DE82CA6-356F-4113-A2BF-F7F877EAC5C8";
shapes = (
{
closed = 1;
nodes = (
(169,274,o),
(207,311,o),
(207,358,cs),
(207,404,o),
(169,442,o),
(123,442,cs),
(76,442,o),
(39,404,o),
(39,358,cs),
(39,311,o),
(76,274,o),
(123,274,cs)
);
}
);
vertWidth = 0;
width = 246;
}
);
note = uni1427;
unicode = 5159;
}
{
glyphname = uni1428;
layers = (
{
layerId = master01;
shapes = (
{
closed = 1;
nodes = (
(406,522,l),
(406,544,l),
(49,544,l),
(49,522,l)
);
}
);
vertWidth = 0;
width = 455;
},
{
layerId = "95BBE91D-E142-4583-9333-40F49FDAAF51";
shapes = (
{
closed = 1;
nodes = (
(407,500,l),
(407,568,l),
(39,568,l),
(39,500,l)
);
}
);
vertWidth = 0;
width = 446;
},
{
layerId = "3DE82CA6-356F-4113-A2BF-F7F877EAC5C8";
shapes = (
{
closed = 1;
nodes = (
(407,485,l),
(407,591,l),
(39,591,l),
(39,485,l)
);
}
);
vertWidth = 0;
width = 446;
}
);
note = uni1428;
unicode = 5160;
}
{
glyphname = uni1429;
layers = (
{
layerId = master01;
shapes = (
{
closed = 1;
nodes = (
(239,352,l),
(239,522,l),
(405,522,l),
(405,544,l),
(239,544,l),
(239,714,l),
(215,714,l),
(215,544,l),
(49,544,l),
(49,522,l),
(215,522,l),
(215,352,l)
);
}
);
vertWidth = 0;
width = 454;
},
{
layerId = "95BBE91D-E142-4583-9333-40F49FDAAF51";
shapes = (
{
closed = 1;
nodes = (
(261,342,l),
(261,500,l),
(407,500,l),
(407,568,l),
(261,568,l),
(261,714,l),
(186,714,l),
(186,568,l),
(39,568,l),
(39,500,l),
(186,500,l),
(186,342,l)
);
}
);
vertWidth = 0;
width = 446;
},
{
layerId = "3DE82CA6-356F-4113-A2BF-F7F877EAC5C8";
shapes = (
{
closed = 1;
nodes = (
(269,328,l),
(269,474,l),
(401,474,l),
(401,580,l),
(269,580,l),
(269,714,l),
(153,714,l),
(153,580,l),
(19,580,l),
(19,474,l),
(153,474,l),
(153,328,l)
);
}
);
vertWidth = 0;
width = 420;
}
);
note = uni1429;
unicode = 5161;
}
{
glyphname = uni142A;
layers = (
{
layerId = master01;
shapes = (
{
closed = 1;
nodes = (
(208,352,l),
(208,692,l),
(343,692,l),
(343,714,l),
(49,714,l),
(49,692,l),
(184,692,l),
(184,352,l)
);
}
);
vertWidth = 0;
width = 392;
},
{
layerId = "95BBE91D-E142-4583-9333-40F49FDAAF51";
shapes = (
{
closed = 1;
nodes = (
(251,342,l),
(251,646,l),
(388,646,l),
(388,714,l),
(39,714,l),
(39,646,l),
(176,646,l),
(176,342,l)
);
}
);
vertWidth = 0;
width = 427;
},
{
layerId = "3DE82CA6-356F-4113-A2BF-F7F877EAC5C8";
shapes = (
{
closed = 1;
nodes = (
(269,325,l),
(269,608,l),
(392,608,l),
(392,714,l),
(29,714,l),
(29,608,l),
(153,608,l),
(153,325,l)
);
}
);
vertWidth = 0;
width = 421;
}
);
note = uni142A;
unicode = 5162;
}
{
glyphname = uni142F;
layers = (
{
layerId = master01;
shapes = (
{
closed = 1;
nodes = (
(410,-12,l),
(738,701,l),
(738,714,l),
(715,714,l),
(398,16,l),
(82,714,l),
(59,714,l),
(59,701,l),
(387,-12,l)
);
}
);
vertWidth = 0;
width = 797;
},
{
layerId = "95BBE91D-E142-4583-9333-40F49FDAAF51";
shapes = (
{
closed = 1;
nodes = (
(398,-12,l),
(728,704,l),
(728,714,l),
(645,714,l),
(388,139,l),
(132,714,l),
(49,714,l),
(49,704,l),
(378,-12,l)
);
}
);
vertWidth = 0;
width = 777;
},
{
layerId = "3DE82CA6-356F-4113-A2BF-F7F877EAC5C8";
shapes = (
{
closed = 1;
nodes = (
(440,-12,l),
(797,669,l),
(797,714,l),
(628,714,l),
(418,299,l),
(208,714,l),
(39,714,l),
(39,669,l),
(395,-12,l)
);
}
);
vertWidth = 0;
width = 836;
}
);
note = uni142F;
unicode = 5167;
}
{
glyphname = uni1431;
layers = (
{
layerId = master01;
shapes = (
{
closed = 1;
nodes = (
(82,0,l),
(398,698,l),
(715,0,l),
(738,0,l),
(738,13,l),
(410,726,l),
(387,726,l),
(59,13,l),
(59,0,l)
);
}
);
vertWidth = 0;
width = 797;
},
{
layerId = "95BBE91D-E142-4583-9333-40F49FDAAF51";
shapes = (
{
closed = 1;
nodes = (
(132,0,l),
(388,575,l),
(645,0,l),
(728,0,l),
(728,10,l),
(398,726,l),
(378,726,l),
(49,10,l),
(49,0,l)
);
}
);
vertWidth = 0;
width = 777;
},
{
layerId = "3DE82CA6-356F-4113-A2BF-F7F877EAC5C8";
shapes = (
{
closed = 1;
nodes = (
(208,0,l),
(418,415,l),
(628,0,l),
(797,0,l),
(797,45,l),
(440,726,l),
(395,726,l),
(39,45,l),
(39,0,l)
);
}
);
vertWidth = 0;
width = 836;
}
);
note = uni1431;
unicode = 5169;
}
{
glyphname = uni1433;
layers = (
{
layerId = master01;
shapes = (
{
closed = 1;
nodes = (
(69,-12,l),
(683,348,l),
(683,366,l),
(69,725,l),
(59,725,l),
(59,702,l),
(649,357,l),
(59,12,l),
(59,-12,l)
);
}
);
vertWidth = 0;
width = 732;
},
{
layerId = "95BBE91D-E142-4583-9333-40F49FDAAF51";
shapes = (
{
closed = 1;
nodes = (
(59,-10,l),
(672,350,l),
(672,364,l),
(59,725,l),
(49,725,l),
(49,641,l),
(547,357,l),
(49,74,l),
(49,-10,l)
);
}
);
vertWidth = 0;
width = 711;
},
{
layerId = "3DE82CA6-356F-4113-A2BF-F7F877EAC5C8";
shapes = (
{
closed = 1;
nodes = (
(84,-10,l),
(679,336,l),
(679,379,l),
(84,725,l),
(39,725,l),
(39,568,l),
(429,357,l),
(39,148,l),
(39,-10,l)
);
}
);
vertWidth = 0;
width = 708;
}
);
note = uni1433;
unicode = 5171;
}
{
glyphname = uni1438;
layers = (
{
layerId = master01;
shapes = (
{
closed = 1;
nodes = (
(673,-12,l),
(673,12,l),
(83,357,l),
(673,702,l),
(673,725,l),
(663,725,l),
(49,366,l),
(49,348,l),
(663,-12,l)
);
}
);
vertWidth = 0;
width = 732;
},
{
layerId = "95BBE91D-E142-4583-9333-40F49FDAAF51";
shapes = (
{
closed = 1;
nodes = (
(663,-10,l),
(663,74,l),
(165,357,l),
(663,641,l),
(663,725,l),
(653,725,l),
(39,364,l),
(39,350,l),
(653,-10,l)
);
}
);
vertWidth = 0;
width = 712;
},
{
layerId = "3DE82CA6-356F-4113-A2BF-F7F877EAC5C8";
shapes = (
{
closed = 1;
nodes = (
(669,-10,l),
(669,148,l),
(279,357,l),
(669,568,l),
(669,725,l),
(624,725,l),
(29,379,l),
(29,336,l),
(624,-10,l)
);
}
);
vertWidth = 0;
width = 708;
}
);
note = uni1438;
unicode = 5176;
}
{
glyphname = uni1449;
layers = (
{
layerId = master01;
shapes = (
{
closed = 1;
nodes = (
(330,361,l),
(63,531,l),
(330,700,l),
(330,726,l),
(29,535,l),
(29,526,l),
(330,336,l)
);
}
);
vertWidth = 0;
width = 379;
},
{
layerId = "95BBE91D-E142-4583-9333-40F49FDAAF51";
shapes = (
{
closed = 1;
nodes = (
(331,415,l),
(145,529,l),
(331,644,l),
(331,727,l),
(29,536,l),
(29,523,l),
(331,332,l)
);
}
);
vertWidth = 0;
width = 370;
},
{
layerId = "3DE82CA6-356F-4113-A2BF-F7F877EAC5C8";
shapes = (
{
closed = 1;
nodes = (
(388,448,l),
(218,540,l),
(388,632,l),
(388,753,l),
(19,555,l),
(19,525,l),
(388,327,l)
);
}
);
vertWidth = 0;
width = 417;
}
);
note = uni1449;
unicode = 5193;
}
{
glyphname = uni144A;
layers = (
{
layerId = master01;
shapes = (
{
closed = 1;
nodes = (
(93,352,l),
(93,714,l),
(69,714,l),
(69,352,l)
);
}
);
vertWidth = 0;
width = 162;
},
{
layerId = "95BBE91D-E142-4583-9333-40F49FDAAF51";
shapes = (
{
closed = 1;
nodes = (
(134,342,l),
(134,714,l),
(59,714,l),
(59,342,l)
);
}
);
vertWidth = 0;
width = 193;
},
{
layerId = "3DE82CA6-356F-4113-A2BF-F7F877EAC5C8";
shapes = (
{
closed = 1;
nodes = (
(165,325,l),
(165,714,l),
(49,714,l),
(49,325,l)
);
}
);
vertWidth = 0;
width = 214;
}
);
note = uni144A;
unicode = 5194;
}
{
color = 9;
glyphname = uni144B;
layers = (
{
layerId = master01;
shapes = (
{
closed = 1;
nodes = (
(73,544,l),
(49,544,l),
(49,171,l),
(73,171,l)
);
},
{
closed = 1;
nodes = (
(283,323,ls),
(283,405,o),
(253,438,o),
(182,438,cs),
(109,438,o),
(66,395,o),
(66,395,c),
(66,371,l),
(66,371,o),
(110,416,o),
(182,416,cs),
(253,416,o),
(259,368,o),
(259,318,cs),
(259,171,l),
(283,171,l)
);
}
);
vertWidth = 0;
width = 332;
},
{
layerId = "95BBE91D-E142-4583-9333-40F49FDAAF51";
shapes = (
{
closed = 1;
nodes = (
(114,544,l),
(39,544,l),
(39,171,l),
(114,171,l)
);
},
{
closed = 1;
nodes = (
(313,320,ls),
(313,402,o),
(272,438,o),
(202,438,cs),
(148,438,o),
(104,412,o),
(104,412,c),
(95,340,l),
(95,340,o),
(134,368,o),
(180,368,cs),
(220,368,o),
(238,352,o),
(238,302,cs),
(238,171,l),
(313,171,l)
);
}
);
vertWidth = 0;
width = 352;
},
{
layerId = "3DE82CA6-356F-4113-A2BF-F7F877EAC5C8";
shapes = (
{
closed = 1;
nodes = (
(145,562,l),
(29,562,l),
(29,153,l),
(145,153,l)
);
},
{
closed = 1;
nodes = (
(343,336,ls),
(343,418,o),
(312,455,o),
(232,455,cs),
(169,455,o),
(135,429,o),
(135,429,c),
(126,330,l),
(126,330,o),
(151,358,o),
(190,358,cs),
(209,358,o),
(227,352,o),
(227,316,cs),
(227,153,l),
(343,153,l)
);
}
);
vertWidth = 0;
width = 372;
}
);
note = uni144B;
unicode = 5195;
}
{
glyphname = uni144C;
layers = (
{
layerId = master01;
shapes = (
{
closed = 1;
nodes = (
(590,-10,o),
(680,123,o),
(680,338,cs),
(680,714,l),
(654,714,l),
(654,338,ls),
(654,136,o),
(576,15,o),
(380,15,cs),
(185,15,o),
(105,139,o),
(105,339,cs),
(105,714,l),
(79,714,l),
(79,339,ls),
(79,123,o),
(171,-10,o),
(379,-10,cs)
);
}
);
vertWidth = 0;
width = 759;
},
{
layerId = "95BBE91D-E142-4583-9333-40F49FDAAF51";
shapes = (
{
closed = 1;
nodes = (
(630,-12,o),
(697,119,o),
(697,388,cs),
(697,714,l),
(619,714,l),
(619,393,ls),
(619,176,o),
(582,59,o),
(380,59,cs),
(185,59,o),
(146,173,o),
(146,393,cs),
(146,714,l),
(68,714,l),
(68,388,ls),
(68,128,o),
(134,-12,o),
(380,-12,cs)
);
}
);
vertWidth = 0;
width = 766;
},
{
layerId = "3DE82CA6-356F-4113-A2BF-F7F877EAC5C8";
shapes = (
{
closed = 1;
nodes = (
(672,-12,o),
(751,158,o),
(751,442,cs),
(751,714,l),
(560,714,l),
(560,379,ls),
(560,215,o),
(508,151,o),
(405,151,cs),
(302,151,o),
(250,215,o),
(250,379,cs),
(250,714,l),
(59,714,l),
(59,420,ls),
(59,116,o),
(180,-12,o),
(404,-12,cs)
);
}
);
vertWidth = 0;
width = 810;
}
);
note = uni144C;
unicode = 5196;
}
{
glyphname = uni144E;
layers = (
{
layerId = master01;
shapes = (
{
closed = 1;
nodes = (
(105,0,l),
(105,377,ls),
(105,577,o),
(185,701,o),
(380,701,cs),
(576,701,o),
(654,580,o),
(654,378,cs),
(654,0,l),
(680,0,l),
(680,378,ls),
(680,593,o),
(590,726,o),
(379,726,cs),
(171,726,o),
(79,593,o),
(79,377,cs),
(79,0,l)
);
}
);
vertWidth = 0;
width = 759;
},
{
layerId = "95BBE91D-E142-4583-9333-40F49FDAAF51";
shapes = (
{
closed = 1;
nodes = (
(146,0,l),
(146,321,ls),
(146,541,o),
(185,655,o),
(380,655,cs),
(582,655,o),
(619,538,o),
(619,321,cs),
(619,0,l),
(697,0,l),
(697,326,ls),
(697,595,o),
(630,726,o),
(380,726,cs),
(134,726,o),
(68,586,o),
(68,326,cs),
(68,0,l)
);
}
);
vertWidth = 0;
width = 766;
},
{
layerId = "3DE82CA6-356F-4113-A2BF-F7F877EAC5C8";
shapes = (
{
closed = 1;
nodes = (
(250,0,l),
(250,335,ls),
(250,499,o),
(302,563,o),
(405,563,cs),
(508,563,o),
(560,499,o),
(560,335,cs),
(560,0,l),
(751,0,l),
(751,272,ls),
(751,556,o),
(672,726,o),
(404,726,cs),
(180,726,o),
(59,598,o),
(59,294,cs),
(59,0,l)
);
}
);
vertWidth = 0;
width = 810;
}
);
metricLeft = "=uni144C";
metricRight = "=uni144C";
note = uni144E;
unicode = 5198;
}
{
glyphname = uni1450;
layers = (
{
layerId = master01;
shapes = (
{
closed = 1;
nodes = (
(198,0,ls),
(464,0,o),
(578,121,o),
(578,358,cs),
(578,595,o),
(464,714,o),
(198,714,cs),
(59,714,l),
(59,689,l),
(188,689,ls),
(450,689,o),
(551,579,o),
(551,357,cs),
(551,135,o),
(450,25,o),
(188,25,cs),
(59,25,l),
(59,0,l)
);
}
);
vertWidth = 0;
width = 657;
},
{
layerId = "95BBE91D-E142-4583-9333-40F49FDAAF51";
shapes = (
{
closed = 1;
nodes = (
(185,0,ls),
(462,0,o),
(613,87,o),
(613,357,cs),
(613,627,o),
(462,714,o),
(185,714,cs),
(49,714,l),
(49,643,l),
(195,643,ls),
(439,643,o),
(533,572,o),
(533,357,cs),
(533,142,o),
(439,71,o),
(195,71,cs),
(49,71,l),
(49,0,l)
);
}
);
vertWidth = 0;
width = 682;
},
{
layerId = "3DE82CA6-356F-4113-A2BF-F7F877EAC5C8";
shapes = (
{
closed = 1;
nodes = (
(197,0,ls),
(484,0,o),
(645,97,o),
(645,357,cs),
(645,618,o),
(482,714,o),
(197,714,cs),
(39,714,l),
(39,558,l),
(195,558,ls),
(356,558,o),
(451,503,o),
(451,357,cs),
(451,210,o),
(356,156,o),
(195,156,cs),
(39,156,l),
(39,0,l)
);
}
);
vertWidth = 0;
width = 704;
}
);
note = uni1450;
unicode = 5200;
}
{
glyphname = uni1455;
layers = (
{
layerId = master01;
shapes = (
{
closed = 1;
nodes = (
(598,0,l),
(598,25,l),
(469,25,ls),
(207,25,o),
(106,135,o),
(106,357,cs),
(106,579,o),
(207,689,o),
(469,689,cs),
(598,689,l),
(598,714,l),
(459,714,ls),
(193,714,o),
(79,595,o),
(79,358,cs),
(79,121,o),
(193,0,o),
(459,0,cs)
);
}
);
vertWidth = 0;
width = 657;
},
{
layerId = "95BBE91D-E142-4583-9333-40F49FDAAF51";
shapes = (
{
closed = 1;
nodes = (
(633,0,l),
(633,71,l),
(487,71,ls),
(243,71,o),
(149,142,o),
(149,357,cs),
(149,572,o),
(243,643,o),
(487,643,cs),
(633,643,l),
(633,714,l),
(497,714,ls),
(220,714,o),
(69,627,o),
(69,357,cs),
(69,87,o),
(220,0,o),
(497,0,cs)
);
}
);
vertWidth = 0;
width = 682;
},
{
layerId = "3DE82CA6-356F-4113-A2BF-F7F877EAC5C8";
shapes = (
{
closed = 1;
nodes = (
(665,0,l),
(665,156,l),
(509,156,ls),
(348,156,o),
(253,210,o),
(253,357,cs),
(253,503,o),
(348,558,o),
(509,558,cs),
(665,558,l),
(665,714,l),
(507,714,ls),
(222,714,o),
(59,618,o),
(59,357,cs),
(59,97,o),
(220,0,o),
(507,0,cs)
);
}
);
vertWidth = 0;
width = 704;
}
);
note = uni1455;
unicode = 5205;
}
{
glyphname = uni1466;
layers = (
{
layerId = master01;
shapes = (
{
closed = 1;
nodes = (
(264,364,l),
(127,364,o),
(74,421,o),
(74,528,cs),
(74,635,o),
(127,692,o),
(264,692,c),
(264,714,l),
(118,714,o),
(49,656,o),
(49,528,cs),
(49,400,o),
(118,342,o),
(264,342,c)
);
}
);
vertWidth = 0;
width = 313;
},
{
layerId = "95BBE91D-E142-4583-9333-40F49FDAAF51";
shapes = (
{
closed = 1;
nodes = (
(271,409,l),
(147,411,o),
(114,449,o),
(114,537,cs),
(114,611,o),
(157,646,o),
(271,646,c),
(271,714,l),
(113,714,o),
(39,657,o),
(39,537,cs),
(39,400,o),
(106,342,o),
(271,342,c)
);
}
);
vertWidth = 0;
width = 310;
},
{
layerId = "3DE82CA6-356F-4113-A2BF-F7F877EAC5C8";
shapes = (
{
closed = 1;
nodes = (
(306,425,l),
(191,425,o),
(148,441,o),
(148,517,cs),
(148,593,o),
(185,606,o),
(306,606,c),
(306,714,l),
(111,714,o),
(29,667,o),
(29,518,cs),
(29,370,o),
(112,317,o),
(306,317,c)
);
}
);
vertWidth = 0;
width = 335;
}
);
note = uni1466;
unicode = 5222;
}
{
glyphname = uni146B;
layers = (
{
layerId = master01;
shapes = (
{
closed = 1;
nodes = (
(504,0,l),
(504,470,ls),
(504,629,o),
(422,726,o),
(281,726,cs),
(142,726,o),
(69,631,o),
(69,477,cs),
(69,313,o),
(151,213,o),
(292,213,cs),
(397,213,o),
(456,269,o),
(478,339,c),
(478,0,l)
);
},
{
closed = 1;
nodes = (
(169,238,o),
(96,323,o),
(96,476,cs),
(96,620,o),
(160,701,o),
(281,701,cs),
(410,701,o),
(478,610,o),
(478,470,cs),
(478,467,ls),
(478,316,o),
(407,238,o),
(291,238,cs)
);
}
);
vertWidth = 0;
width = 583;
},
{
layerId = "95BBE91D-E142-4583-9333-40F49FDAAF51";
shapes = (
{
closed = 1;
nodes = (
(523,0,l),
(523,458,ls),
(523,635,o),
(443,726,o),
(291,726,cs),
(142,726,o),
(59,633,o),
(59,472,cs),
(59,315,o),
(148,213,o),
(292,213,cs),
(353,213,o),
(400,227,o),
(445,260,c),
(445,0,l)
);
},
{
closed = 1;
nodes = (
(194,284,o),
(137,354,o),
(137,476,cs),
(137,587,o),
(193,655,o),
(292,655,cs),
(383,655,o),
(445,585,o),
(445,492,cs),
(445,440,ls),
(445,351,o),
(381,284,o),
(302,284,cs)
);
}
);
vertWidth = 0;
width = 592;
},
{
layerId = "3DE82CA6-356F-4113-A2BF-F7F877EAC5C8";
shapes = (
{
closed = 1;
nodes = (
(609,0,l),
(609,457,ls),
(609,593,o),
(539,726,o),
(332,726,cs),
(125,726,o),
(49,593,o),
(49,463,cs),
(49,320,o),
(141,200,o),
(319,200,cs),
(365,200,o),
(398,208,o),
(418,217,c),
(418,0,l)
);
},
{
closed = 1;
nodes = (
(269,361,o),
(243,404,o),
(243,465,cs),
(243,526,o),
(270,565,o),
(331,565,cs),
(392,565,o),
(418,527,o),
(418,474,cs),
(418,443,ls),
(418,412,o),
(400,361,o),
(332,361,cs)
);
}
);
vertWidth = 0;
width = 668;
}
);
note = uni146B;
unicode = 5227;
}
{
glyphname = uni146D;
layers = (
{
layerId = master01;
shapes = (
{
closed = 1;
nodes = (
(105,0,l),
(105,339,l),
(127,269,o),
(186,213,o),
(291,213,cs),
(432,213,o),
(514,313,o),
(514,477,cs),
(514,631,o),
(441,726,o),
(302,726,cs),
(161,726,o),
(79,629,o),
(79,470,cs),
(79,0,l)
);
},
{
closed = 1;
nodes = (
(176,238,o),
(105,316,o),
(105,467,cs),
(105,470,ls),
(105,610,o),
(173,701,o),
(302,701,cs),
(423,701,o),
(487,620,o),
(487,476,cs),
(487,323,o),
(414,238,o),
(292,238,cs)
);
}
);
vertWidth = 0;
width = 583;
},
{
layerId = "95BBE91D-E142-4583-9333-40F49FDAAF51";
shapes = (
{
closed = 1;
nodes = (
(146,0,l),
(146,260,l),
(191,226,o),
(239,213,o),
(299,213,cs),
(442,213,o),
(533,313,o),
(533,472,cs),
(533,633,o),
(450,726,o),
(301,726,cs),
(150,726,o),
(68,636,o),
(68,458,cs),
(68,0,l)
);
},
{
closed = 1;
nodes = (
(209,284,o),
(146,352,o),
(146,440,cs),
(146,492,ls),
(146,584,o),
(208,655,o),
(299,655,cs),
(398,655,o),
(455,588,o),
(455,476,cs),
(455,354,o),
(397,284,o),
(290,284,cs)
);
}
);
vertWidth = 0;
width = 592;
},
{
layerId = "3DE82CA6-356F-4113-A2BF-F7F877EAC5C8";
shapes = (
{
closed = 1;
nodes = (
(250,0,l),
(250,217,l),
(270,208,o),
(303,200,o),
(349,200,cs),
(527,200,o),
(619,320,o),
(619,463,cs),
(619,593,o),
(543,726,o),
(336,726,cs),
(129,726,o),
(59,593,o),
(59,457,cs),
(59,0,l)
);
},
{
closed = 1;
nodes = (
(268,361,o),
(250,412,o),
(250,443,cs),
(250,474,ls),
(250,527,o),
(276,565,o),
(337,565,cs),
(398,565,o),
(425,526,o),
(425,465,cs),
(425,404,o),
(399,361,o),
(336,361,cs)
);
}
);
vertWidth = 0;
width = 668;
}
);
note = uni146D;
unicode = 5229;
}
{
glyphname = uni146F;
layers = (
{
layerId = master01;
shapes = (
{
closed = 1;
nodes = (
(422,-12,o),
(504,85,o),
(504,244,cs),
(504,714,l),
(478,714,l),
(478,375,l),
(456,445,o),
(397,501,o),
(292,501,cs),
(151,501,o),
(69,401,o),
(69,237,cs),
(69,83,o),
(142,-12,o),
(281,-12,cs)
);
},
{
closed = 1;
nodes = (
(160,13,o),
(96,94,o),
(96,238,cs),
(96,391,o),
(169,476,o),
(291,476,cs),
(407,476,o),
(478,398,o),
(478,247,cs),
(478,244,ls),
(478,104,o),
(410,13,o),
(281,13,cs)
);
}
);
vertWidth = 0;
width = 583;
},
{
layerId = "95BBE91D-E142-4583-9333-40F49FDAAF51";
shapes = (
{
closed = 1;
nodes = (
(442,-12,o),
(523,78,o),
(523,255,cs),
(523,714,l),
(445,714,l),
(445,454,l),
(400,488,o),
(353,500,o),
(292,500,cs),
(149,500,o),
(59,401,o),
(59,242,cs),
(59,81,o),
(142,-12,o),
(291,-12,cs)
);
},
{
closed = 1;
nodes = (
(193,59,o),
(137,127,o),
(137,238,cs),
(137,360,o),
(195,430,o),
(302,430,cs),
(382,430,o),
(445,362,o),
(445,273,cs),
(445,222,ls),
(445,130,o),
(384,59,o),
(292,59,cs)
);
}
);
vertWidth = 0;
width = 592;
},
{
layerId = "3DE82CA6-356F-4113-A2BF-F7F877EAC5C8";
shapes = (
{
closed = 1;
nodes = (
(539,-12,o),
(609,121,o),
(609,257,cs),
(609,714,l),
(418,714,l),
(418,497,l),
(398,506,o),
(365,514,o),
(319,514,cs),
(141,514,o),
(49,394,o),
(49,251,cs),
(49,121,o),
(125,-12,o),
(332,-12,cs)
);
},
{
closed = 1;
nodes = (
(270,149,o),
(243,188,o),
(243,249,cs),
(243,310,o),
(269,353,o),
(332,353,cs),
(400,353,o),
(418,302,o),
(418,271,cs),
(418,240,ls),
(418,187,o),
(392,149,o),
(331,149,cs)
);
}
);
vertWidth = 0;
width = 668;
}
);
metricLeft = "=uni146B";
metricRight = "=uni146B";
note = uni146F;
unicode = 5231;
}
{
glyphname = uni1472;
layers = (
{
layerId = master01;
shapes = (
{
closed = 1;
nodes = (
(441,-12,o),
(514,83,o),
(514,237,cs),
(514,401,o),
(432,501,o),
(291,501,cs),
(186,501,o),
(127,445,o),
(105,375,c),
(105,714,l),
(79,714,l),
(79,244,ls),
(79,85,o),
(161,-12,o),
(302,-12,cs)
);
},
{
closed = 1;
nodes = (
(173,13,o),
(105,104,o),
(105,244,cs),
(105,247,ls),
(105,398,o),
(176,476,o),
(292,476,cs),
(414,476,o),
(487,391,o),
(487,238,cs),
(487,94,o),
(423,13,o),
(302,13,cs)
);
}
);
vertWidth = 0;
width = 583;
},
{
layerId = "95BBE91D-E142-4583-9333-40F49FDAAF51";
shapes = (
{
closed = 1;
nodes = (
(450,-12,o),
(533,81,o),
(533,242,cs),
(533,399,o),
(444,500,o),
(299,500,cs),
(239,500,o),
(191,488,o),
(146,454,c),
(146,714,l),
(68,714,l),
(68,255,ls),
(68,79,o),
(149,-12,o),
(301,-12,cs)
);
},
{
closed = 1;
nodes = (
(209,59,o),
(146,129,o),
(146,222,cs),
(146,273,ls),
(146,362,o),
(209,430,o),
(290,430,cs),
(397,430,o),
(455,360,o),
(455,238,cs),
(455,126,o),
(398,59,o),
(299,59,cs)
);
}
);
vertWidth = 0;
width = 592;
},
{
layerId = "3DE82CA6-356F-4113-A2BF-F7F877EAC5C8";
shapes = (
{
closed = 1;
nodes = (
(543,-12,o),
(619,121,o),
(619,251,cs),
(619,394,o),
(527,514,o),
(349,514,cs),
(303,514,o),
(270,506,o),
(250,497,c),
(250,714,l),
(59,714,l),
(59,257,ls),
(59,121,o),
(129,-12,o),
(336,-12,cs)
);
},
{
closed = 1;
nodes = (
(276,149,o),
(250,187,o),
(250,240,cs),
(250,271,ls),
(250,302,o),
(268,353,o),
(336,353,cs),
(399,353,o),
(425,310,o),
(425,249,cs),
(425,188,o),
(398,149,o),
(337,149,cs)
);
}
);
vertWidth = 0;
width = 668;
}
);
metricLeft = "=uni146D";
metricRight = "=uni146D";
note = uni1472;
unicode = 5234;
}
{
glyphname = uni1483;
layers = (
{
layerId = master01;
shapes = (
{
closed = 1;
nodes = (
(291,334,o),
(342,395,o),
(342,471,cs),
(342,547,o),
(291,607,o),
(205,607,cs),
(158,607,o),
(119,586,o),
(93,544,c),
(93,714,l),
(69,714,l),
(69,471,ls),
(69,395,o),
(129,334,o),
(205,334,cs)
);
},
{
closed = 1;
nodes = (
(142,355,o),
(93,405,o),
(93,471,cs),
(93,539,o),
(142,586,o),
(205,586,cs),
(277,586,o),
(318,537,o),
(318,471,cs),
(318,405,o),
(277,355,o),
(205,355,cs)
);
}
);
vertWidth = 0;
width = 391;
},
{
layerId = "95BBE91D-E142-4583-9333-40F49FDAAF51";
shapes = (
{
closed = 1;
nodes = (
(289,334,o),
(352,393,o),
(352,472,cs),
(352,554,o),
(292,609,o),
(206,609,cs),
(176,609,o),
(152,604,o),
(134,592,c),
(134,714,l),
(59,714,l),
(59,501,ls),
(59,396,o),
(108,334,o),
(205,334,cs)
);
},
{
closed = 1;
nodes = (
(158,402,o),
(134,423,o),
(134,475,cs),
(134,516,o),
(162,543,o),
(205,543,cs),
(253,543,o),
(277,519,o),
(277,471,cs),
(277,424,o),
(247,402,o),
(205,402,cs)
);
}
);
vertWidth = 0;
width = 391;
},
{
layerId = "3DE82CA6-356F-4113-A2BF-F7F877EAC5C8";
shapes = (
{
closed = 1;
nodes = (
(328,305,o),
(367,380,o),
(367,453,cs),
(367,528,o),
(321,604,o),
(217,604,cs),
(190,604,o),
(173,600,o),
(159,596,c),
(159,714,l),
(50,714,l),
(50,453,ls),
(50,380,o),
(88,305,o),
(208,305,cs)
);
},
{
closed = 1;
nodes = (
(177,396,o),
(158,417,o),
(158,451,cs),
(158,490,o),
(177,511,o),
(210,511,cs),
(243,511,o),
(262,490,o),
(262,451,cs),
(262,417,o),
(242,396,o),
(210,396,cs)
);
}
);
vertWidth = 0;
width = 396;
}
);
note = uni1483;
unicode = 5251;
}
{
glyphname = uni1484;
layers = (
{
layerId = master01;
shapes = (
{
closed = 1;
nodes = (
(262,334,o),
(322,395,o),
(322,471,cs),
(322,714,l),
(298,714,l),
(298,544,l),
(272,586,o),
(233,607,o),
(186,607,cs),
(100,607,o),
(49,547,o),
(49,471,cs),
(49,395,o),
(100,334,o),
(186,334,cs)
);
},
{
closed = 1;
nodes = (
(114,355,o),
(73,405,o),
(73,471,cs),
(73,537,o),
(114,586,o),
(186,586,cs),
(249,586,o),
(298,539,o),
(298,471,cs),
(298,405,o),
(249,355,o),
(186,355,cs)
);
}
);
vertWidth = 0;
width = 391;
},
{
layerId = "95BBE91D-E142-4583-9333-40F49FDAAF51";
shapes = (
{
closed = 1;
nodes = (
(283,334,o),
(333,396,o),
(333,501,cs),
(333,714,l),
(257,714,l),
(257,592,l),
(239,604,o),
(215,609,o),
(185,609,cs),
(99,609,o),
(39,554,o),
(39,472,cs),
(39,392,o),
(102,334,o),
(186,334,cs)
);
},
{
closed = 1;
nodes = (
(145,402,o),
(114,424,o),
(114,471,cs),
(114,519,o),
(138,543,o),
(186,543,cs),
(229,543,o),
(257,516,o),
(257,475,cs),
(257,423,o),
(233,402,o),
(186,402,cs)
);
}
);
vertWidth = 0;
width = 391;
},
{
layerId = "3DE82CA6-356F-4113-A2BF-F7F877EAC5C8";
shapes = (
{
closed = 1;
nodes = (
(308,305,o),
(347,380,o),
(347,453,cs),
(347,714,l),
(237,714,l),
(237,598,l),
(223,602,o),
(206,604,o),
(188,604,cs),
(68,604,o),
(29,528,o),
(29,453,cs),
(29,380,o),
(68,305,o),
(188,305,cs)
);
},
{
closed = 1;
nodes = (
(154,396,o),
(134,417,o),
(134,451,cs),
(134,490,o),
(153,511,o),
(186,511,cs),
(219,511,o),
(238,490,o),
(238,451,cs),
(238,417,o),
(219,396,o),
(186,396,cs)
);
}
);
vertWidth = 0;
width = 396;
}
);
note = uni1484;
unicode = 5252;
}
{
glyphname = uni1489;
layers = (
{
layerId = master01;
shapes = (
{
closed = 1;
nodes = (
(548,0,l),
(548,462,ls),
(548,657,o),
(462,724,o),
(313,724,cs),
(162,724,o),
(69,656,o),
(69,460,cs),
(69,410,l),
(95,410,l),
(95,458,ls),
(95,641,o),
(179,699,o),
(313,699,cs),
(450,699,o),
(522,639,o),
(522,470,cs),
(522,0,l)
);
}
);
vertWidth = 0;
width = 627;
},
{
layerId = "95BBE91D-E142-4583-9333-40F49FDAAF51";
shapes = (
{
closed = 1;
nodes = (
(564,0,l),
(564,378,ls),
(564,606,o),
(517,726,o),
(313,726,cs),
(117,726,o),
(59,629,o),
(59,429,cs),
(59,411,l),
(137,411,l),
(137,429,ls),
(137,606,o),
(185,655,o),
(313,655,cs),
(456,655,o),
(486,567,o),
(486,405,cs),
(486,0,l)
);
}
);
vertWidth = 0;
width = 633;
},
{
layerId = "3DE82CA6-356F-4113-A2BF-F7F877EAC5C8";
shapes = (
{
closed = 1;
nodes = (
(608,0,l),
(608,413,ls),
(608,635,o),
(551,726,o),
(332,726,cs),
(113,726,o),
(49,635,o),
(49,413,cs),
(49,394,l),
(248,394,l),
(248,450,ls),
(248,533,o),
(271,565,o),
(332,565,cs),
(393,565,o),
(415,533,o),
(415,450,cs),
(415,0,l)
);
}
);
vertWidth = 0;
width = 667;
}
);
note = uni1489;
unicode = 5257;
}
{
glyphname = uni148B;
layers = (
{
layerId = master01;
shapes = (
{
closed = 1;
nodes = (
(105,0,l),
(105,470,ls),
(105,639,o),
(177,699,o),
(314,699,cs),
(448,699,o),
(532,641,o),
(532,458,cs),
(532,410,l),
(558,410,l),
(558,460,ls),
(558,656,o),
(465,724,o),
(314,724,cs),
(165,724,o),
(79,657,o),
(79,462,cs),
(79,0,l)
);
}
);
vertWidth = 0;
width = 627;
},
{
layerId = "95BBE91D-E142-4583-9333-40F49FDAAF51";
shapes = (
{
closed = 1;
nodes = (
(147,0,l),
(147,405,ls),
(147,567,o),
(177,655,o),
(320,655,cs),
(448,655,o),
(496,606,o),
(496,429,cs),
(496,411,l),
(574,411,l),
(574,429,ls),
(574,629,o),
(516,726,o),
(320,726,cs),
(116,726,o),
(69,606,o),
(69,378,cs),
(69,0,l)
);
}
);
vertWidth = 0;
width = 633;
},
{
layerId = "3DE82CA6-356F-4113-A2BF-F7F877EAC5C8";
shapes = (
{
closed = 1;
nodes = (
(252,0,l),
(252,450,ls),
(252,533,o),
(274,565,o),
(335,565,cs),
(396,565,o),
(419,533,o),
(419,450,cs),
(419,394,l),
(618,394,l),
(618,413,ls),
(618,635,o),
(554,726,o),
(335,726,cs),
(116,726,o),
(59,635,o),
(59,413,cs),
(59,0,l)
);
}
);
vertWidth = 0;
width = 667;
}
);
note = uni148B;
unicode = 5259;
}
{
glyphname = uni148D;
layers = (
{
layerId = master01;
shapes = (
{
closed = 1;
nodes = (
(462,-10,o),
(548,57,o),
(548,252,cs),
(548,714,l),
(522,714,l),
(522,244,ls),
(522,75,o),
(450,15,o),
(313,15,cs),
(179,15,o),
(95,73,o),
(95,256,cs),
(95,304,l),
(69,304,l),
(69,254,ls),
(69,58,o),
(162,-10,o),
(313,-10,cs)
);
}
);
vertWidth = 0;
width = 627;
},
{
layerId = "95BBE91D-E142-4583-9333-40F49FDAAF51";
shapes = (
{
closed = 1;
nodes = (
(517,-12,o),
(564,108,o),
(564,336,cs),
(564,714,l),
(486,714,l),
(486,309,ls),
(486,147,o),
(456,59,o),
(313,59,cs),
(185,59,o),
(137,108,o),
(137,285,cs),
(137,303,l),
(59,303,l),
(59,285,ls),
(59,85,o),
(117,-12,o),
(313,-12,cs)
);
}
);
vertWidth = 0;
width = 633;
},
{
layerId = "3DE82CA6-356F-4113-A2BF-F7F877EAC5C8";
shapes = (
{
closed = 1;
nodes = (
(551,-12,o),
(608,79,o),
(608,301,cs),
(608,714,l),
(415,714,l),
(415,264,ls),
(415,181,o),
(393,149,o),
(332,149,cs),
(271,149,o),
(248,181,o),
(248,264,cs),
(248,320,l),
(49,320,l),
(49,301,ls),
(49,79,o),
(113,-12,o),
(332,-12,cs)
);
}
);
vertWidth = 0;
width = 667;
}
);
metricLeft = "=uni1489";
metricRight = "=uni1489";
note = uni148D;
unicode = 5261;
}
{
glyphname = uni1490;
layers = (
{
layerId = master01;
shapes = (
{
closed = 1;
nodes = (
(465,-10,o),
(558,58,o),
(558,254,cs),
(558,304,l),
(532,304,l),
(532,256,ls),
(532,73,o),
(448,15,o),
(314,15,cs),
(177,15,o),
(105,75,o),
(105,244,cs),
(105,714,l),
(79,714,l),
(79,252,ls),
(79,57,o),
(165,-10,o),
(314,-10,cs)
);
}
);
vertWidth = 0;
width = 627;
},
{
layerId = "95BBE91D-E142-4583-9333-40F49FDAAF51";
shapes = (
{
closed = 1;
nodes = (
(516,-12,o),
(574,85,o),
(574,285,cs),
(574,303,l),
(496,303,l),
(496,285,ls),
(496,108,o),
(448,59,o),
(320,59,cs),
(177,59,o),
(147,147,o),
(147,309,cs),
(147,714,l),
(69,714,l),
(69,336,ls),
(69,108,o),
(116,-12,o),
(320,-12,cs)
);
}
);
vertWidth = 0;
width = 633;
},
{
layerId = "3DE82CA6-356F-4113-A2BF-F7F877EAC5C8";
shapes = (
{
closed = 1;
nodes = (
(557,-12,o),
(618,79,o),
(618,301,cs),
(618,320,l),
(425,320,l),
(425,264,ls),
(425,181,o),
(399,149,o),
(338,149,cs),
(277,149,o),
(252,181,o),
(252,264,cs),
(252,714,l),
(59,714,l),
(59,301,ls),
(59,79,o),
(119,-12,o),
(338,-12,cs)
);
}
);
vertWidth = 0;
width = 667;
}
);
metricLeft = "=uni148B";
metricRight = "=uni148B";
note = uni1490;
unicode = 5264;
}
{
glyphname = uni14A1;
layers = (
{
layerId = master01;
shapes = (
{
closed = 1;
nodes = (
(279,334,o),
(332,392,o),
(332,471,cs),
(332,520,l),
(308,520,l),
(308,471,ls),
(308,399,o),
(269,356,o),
(198,356,cs),
(127,356,o),
(83,399,o),
(83,471,cs),
(83,714,l),
(59,714,l),
(59,471,ls),
(59,392,o),
(117,334,o),
(198,334,cs)
);
}
);
vertWidth = 0;
width = 381;
},
{
layerId = "95BBE91D-E142-4583-9333-40F49FDAAF51";
shapes = (
{
closed = 1;
nodes = (
(287,334,o),
(342,393,o),
(342,495,cs),
(342,520,l),
(267,520,l),
(267,498,ls),
(267,434,o),
(241,402,o),
(195,402,cs),
(147,402,o),
(124,431,o),
(124,510,cs),
(124,714,l),
(49,714,l),
(49,501,ls),
(49,396,o),
(98,334,o),
(195,334,cs)
);
}
);
vertWidth = 0;
width = 381;
},
{
layerId = "3DE82CA6-356F-4113-A2BF-F7F877EAC5C8";
shapes = (
{
closed = 1;
nodes = (
(300,305,o),
(356,366,o),
(356,467,cs),
(356,519,l),
(243,519,l),
(243,483,ls),
(243,441,o),
(231,413,o),
(196,413,cs),
(161,413,o),
(148,441,o),
(148,483,cs),
(148,714,l),
(39,714,l),
(39,483,ls),
(39,366,o),
(92,305,o),
(196,305,cs)
);
}
);
vertWidth = 0;
width = 385;
}
);
note = uni14A1;
unicode = 5281;
}
{
glyphname = uni14A2;
layers = (
{
layerId = master01;
shapes = (
{
closed = 1;
nodes = (
(274,334,o),
(332,392,o),
(332,471,cs),
(332,714,l),
(308,714,l),
(308,471,ls),
(308,399,o),
(264,356,o),
(193,356,cs),
(122,356,o),
(83,399,o),
(83,471,cs),
(83,520,l),
(59,520,l),
(59,471,ls),
(59,392,o),
(112,334,o),
(193,334,cs)
);
}
);
vertWidth = 0;
width = 381;
},
{
layerId = "95BBE91D-E142-4583-9333-40F49FDAAF51";
shapes = (
{
closed = 1;
nodes = (
(293,334,o),
(342,396,o),
(342,501,cs),
(342,714,l),
(267,714,l),
(267,510,ls),
(267,430,o),
(244,402,o),
(196,402,cs),
(149,402,o),
(124,435,o),
(124,498,cs),
(124,520,l),
(49,520,l),
(49,495,ls),
(49,393,o),
(104,334,o),
(196,334,cs)
);
}
);
vertWidth = 0;
width = 381;
},
{
layerId = "3DE82CA6-356F-4113-A2BF-F7F877EAC5C8";
shapes = (
{
closed = 1;
nodes = (
(293,305,o),
(346,366,o),
(346,483,cs),
(346,714,l),
(237,714,l),
(237,483,ls),
(237,441,o),
(224,413,o),
(189,413,cs),
(154,413,o),
(142,441,o),
(142,483,cs),
(142,519,l),
(29,519,l),
(29,467,ls),
(29,366,o),
(85,305,o),
(189,305,cs)
);
}
);
vertWidth = 0;
width = 385;
}
);
note = uni14A2;
unicode = 5282;
}
{
glyphname = uni14A3;
layers = (
{
layerId = master01;
shapes = (
{
closed = 1;
nodes = (
(491,0,l),
(491,714,l),
(59,714,l),
(59,689,l),
(465,689,l),
(465,0,l)
);
}
);
vertWidth = 0;
width = 570;
},
{
layerId = "95BBE91D-E142-4583-9333-40F49FDAAF51";
shapes = (
{
closed = 1;
nodes = (
(523,0,l),
(523,714,l),
(49,714,l),
(49,643,l),
(445,643,l),
(445,0,l)
);
}
);
vertWidth = 0;
width = 591;
},
{
layerId = "3DE82CA6-356F-4113-A2BF-F7F877EAC5C8";
shapes = (
{
closed = 1;
nodes = (
(570,0,l),
(570,714,l),
(39,714,l),
(39,558,l),
(377,558,l),
(377,0,l)
);
}
);
vertWidth = 0;
width = 629;
}
);
note = uni14A3;
unicode = 5283;
}
{
glyphname = uni14A5;
layers = (
{
layerId = master01;
shapes = (
{
closed = 1;
nodes = (
(105,0,l),
(105,689,l),
(511,689,l),
(511,714,l),
(79,714,l),
(79,0,l)
);
}
);
vertWidth = 0;
width = 570;
},
{
layerId = "95BBE91D-E142-4583-9333-40F49FDAAF51";
shapes = (
{
closed = 1;
nodes = (
(146,0,l),
(146,643,l),
(542,643,l),
(542,714,l),
(68,714,l),
(68,0,l)
);
}
);
vertWidth = 0;
width = 591;
},
{
layerId = "3DE82CA6-356F-4113-A2BF-F7F877EAC5C8";
shapes = (
{
closed = 1;
nodes = (
(252,0,l),
(252,558,l),
(590,558,l),
(590,714,l),
(59,714,l),
(59,0,l)
);
}
);
vertWidth = 0;
width = 629;
}
);
note = uni14A5;
unicode = 5285;
}
{
glyphname = uni14A7;
layers = (
{
layerId = master01;
shapes = (
{
closed = 1;
nodes = (
(491,0,l),
(491,714,l),
(465,714,l),
(465,25,l),
(59,25,l),
(59,0,l)
);
}
);
vertWidth = 0;
width = 570;
},
{
layerId = "95BBE91D-E142-4583-9333-40F49FDAAF51";
shapes = (
{
closed = 1;
nodes = (
(523,0,l),
(523,714,l),
(445,714,l),
(445,71,l),
(49,71,l),
(49,0,l)
);
}
);
vertWidth = 0;
width = 591;
},
{
layerId = "3DE82CA6-356F-4113-A2BF-F7F877EAC5C8";
shapes = (
{
closed = 1;
nodes = (
(570,0,l),
(570,714,l),
(377,714,l),
(377,156,l),
(39,156,l),
(39,0,l)
);
}
);
vertWidth = 0;
width = 629;
}
);
metricLeft = "=uni14A3";
metricRight = "=uni14A3";
note = uni14A7;
unicode = 5287;
}
{
glyphname = uni14AA;
layers = (
{
layerId = master01;
shapes = (
{
closed = 1;
nodes = (
(511,0,l),
(511,25,l),
(105,25,l),
(105,714,l),
(79,714,l),
(79,0,l)
);
}
);
vertWidth = 0;
width = 570;
},
{
layerId = "95BBE91D-E142-4583-9333-40F49FDAAF51";
shapes = (
{
closed = 1;
nodes = (
(542,0,l),
(542,71,l),
(146,71,l),
(146,714,l),
(68,714,l),
(68,0,l)
);
}
);
vertWidth = 0;
width = 591;
},
{
layerId = "3DE82CA6-356F-4113-A2BF-F7F877EAC5C8";
shapes = (
{
closed = 1;
nodes = (
(590,0,l),
(590,156,l),
(252,156,l),
(252,714,l),
(59,714,l),
(59,0,l)
);
}
);
vertWidth = 0;
width = 629;
}
);
metricLeft = "=uni14A5";
metricRight = "=uni14A5";
note = uni14AA;
unicode = 5290;
}
{
glyphname = uni14BB;
layers = (
{
layerId = master01;
shapes = (
{
closed = 1;
nodes = (
(296,342,l),
(296,364,l),
(73,364,l),
(73,714,l),
(49,714,l),
(49,342,l)
);
}
);
vertWidth = 0;
width = 345;
},
{
layerId = "95BBE91D-E142-4583-9333-40F49FDAAF51";
shapes = (
{
closed = 1;
nodes = (
(315,342,l),
(315,409,l),
(114,409,l),
(114,714,l),
(39,714,l),
(39,342,l)
);
}
);
vertWidth = 0;
width = 354;
},
{
layerId = "3DE82CA6-356F-4113-A2BF-F7F877EAC5C8";
shapes = (
{
closed = 1;
nodes = (
(325,317,l),
(325,425,l),
(147,425,l),
(147,714,l),
(29,714,l),
(29,317,l)
);
}
);
vertWidth = 0;
width = 354;
}
);
note = uni14BB;
unicode = 5307;
}
{
glyphname = uni14BC;
layers = (
{
layerId = master01;
shapes = (
{
closed = 1;
nodes = (
(320,382,l),
(320,404,l),
(229,404,ls),
(106,404,o),
(73,462,o),
(73,548,cs),
(73,634,o),
(106,692,o),
(229,692,cs),
(320,692,l),
(320,714,l),
(228,714,ls),
(108,714,o),
(49,659,o),
(49,548,cs),
(49,437,o),
(108,382,o),
(228,382,cs)
);
}
);
vertWidth = 0;
width = 369;
},
{
layerId = "95BBE91D-E142-4583-9333-40F49FDAAF51";
shapes = (
{
closed = 1;
nodes = (
(324,342,l),
(324,409,l),
(279,409,ls),
(149,409,o),
(114,447,o),
(114,537,cs),
(114,611,o),
(157,646,o),
(260,646,cs),
(324,646,l),
(324,714,l),
(262,714,ls),
(114,714,o),
(39,659,o),
(39,537,cs),
(39,400,o),
(108,342,o),
(271,342,cs)
);
}
);
vertWidth = 0;
width = 363;
},
{
layerId = "3DE82CA6-356F-4113-A2BF-F7F877EAC5C8";
shapes = (
{
closed = 1;
nodes = (
(359,317,l),
(359,425,l),
(274,425,ls),
(177,425,o),
(147,454,o),
(147,517,cs),
(147,579,o),
(177,606,o),
(258,606,cs),
(359,606,l),
(359,714,l),
(265,714,ls),
(103,714,o),
(29,655,o),
(29,518,cs),
(29,379,o),
(105,317,o),
(277,317,cs)
);
}
);
vertWidth = 0;
width = 388;
}
);
note = uni14BC;
unicode = 5308;
}
{
glyphname = uni14BD;
layers = (
{
layerId = master01;
shapes = (
{
closed = 1;
nodes = (
(283,342,l),
(283,714,l),
(259,714,l),
(259,364,l),
(49,364,l),
(49,342,l)
);
}
);
vertWidth = 0;
width = 332;
},
{
layerId = "95BBE91D-E142-4583-9333-40F49FDAAF51";
shapes = (
{
closed = 1;
nodes = (
(315,342,l),
(315,714,l),
(240,714,l),
(240,409,l),
(39,409,l),
(39,342,l)
);
}
);
vertWidth = 0;
width = 354;
},
{
layerId = "3DE82CA6-356F-4113-A2BF-F7F877EAC5C8";
shapes = (
{
closed = 1;
nodes = (
(325,317,l),
(325,714,l),
(207,714,l),
(207,425,l),
(29,425,l),
(29,317,l)
);
}
);
vertWidth = 0;
width = 354;
}
);
note = uni14BD;
unicode = 5309;
}
{
glyphname = uni14BE;
layers = (
{
layerId = master01;
shapes = (
{
closed = 1;
nodes = (
(324,351,l),
(324,371,l),
(101,371,l),
(195,457,ls),
(249,506,o),
(298,542,o),
(298,612,cs),
(298,678,o),
(255,726,o),
(175,726,cs),
(95,726,o),
(49,678,o),
(49,612,c),
(73,612,l),
(73,664,o),
(110,706,o),
(175,706,cs),
(240,706,o),
(274,664,o),
(274,612,cs),
(274,552,o),
(228,516,o),
(183,474,cs),
(67,367,l),
(67,351,l)
);
}
);
vertWidth = 0;
width = 373;
},
{
layerId = "95BBE91D-E142-4583-9333-40F49FDAAF51";
shapes = (
{
closed = 1;
nodes = (
(331,342,l),
(331,409,l),
(173,409,l),
(274,501,ls),
(317,540,o),
(330,564,o),
(330,609,cs),
(330,673,o),
(268,721,o),
(188,721,cs),
(100,721,o),
(43,675,o),
(39,593,c),
(111,593,l),
(111,632,o),
(139,654,o),
(187,654,cs),
(224,654,o),
(254,635,o),
(254,606,cs),
(254,568,o),
(214,532,o),
(161,484,cs),
(48,383,l),
(48,342,l)
);
}
);
vertWidth = 0;
width = 370;
},
{
layerId = "3DE82CA6-356F-4113-A2BF-F7F877EAC5C8";
shapes = (
{
closed = 1;
nodes = (
(339,318,l),
(339,406,l),
(196,406,l),
(221,431,ls),
(304,514,o),
(333,551,o),
(333,606,cs),
(333,669,o),
(293,726,o),
(185,726,cs),
(85,726,o),
(29,666,o),
(29,592,c),
(140,592,l),
(140,621,o),
(157,634,o),
(180,634,cs),
(208,634,o),
(219,618,o),
(219,603,cs),
(219,578,o),
(191,547,o),
(152,508,cs),
(38,392,l),
(38,318,l)
);
}
);
vertWidth = 0;
width = 368;
}
);
note = uni14BE;
unicode = 5310;
}
{
glyphname = uni14BF;
layers = (
{
layerId = master01;
shapes = (
{
closed = 1;
nodes = (
(469,0,l),
(469,25,l),
(107,25,l),
(304,229,ls),
(424,354,o),
(469,440,o),
(469,530,cs),
(469,661,o),
(377,726,o),
(270,726,cs),
(154,726,o),
(69,651,o),
(69,539,c),
(96,539,l),
(96,641,o),
(166,701,o),
(270,701,cs),
(371,701,o),
(442,644,o),
(442,531,cs),
(442,450,o),
(404,367,o),
(284,243,cs),
(71,23,l),
(71,0,l)
);
}
);
vertWidth = 0;
width = 538;
},
{
layerId = "95BBE91D-E142-4583-9333-40F49FDAAF51";
shapes = (
{
closed = 1;
nodes = (
(526,0,l),
(526,71,l),
(196,71,l),
(343,201,ls),
(495,335,o),
(526,411,o),
(526,511,cs),
(526,644,o),
(438,726,o),
(290,726,cs),
(147,726,o),
(59,657,o),
(59,532,c),
(137,532,l),
(137,612,o),
(193,655,o),
(289,655,cs),
(385,655,o),
(446,598,o),
(446,507,cs),
(446,398,o),
(374,324,o),
(263,224,cs),
(74,55,l),
(74,0,l)
);
}
);
vertWidth = 0;
width = 585;
},
{
layerId = "3DE82CA6-356F-4113-A2BF-F7F877EAC5C8";
shapes = (
{
closed = 1;
nodes = (
(546,0,l),
(546,156,l),
(326,156,l),
(367,202,ls),
(501,353,o),
(554,413,o),
(554,512,cs),
(554,625,o),
(486,726,o),
(308,726,cs),
(141,726,o),
(49,637,o),
(49,506,c),
(235,506,l),
(235,543,o),
(262,563,o),
(300,563,cs),
(346,563,o),
(363,534,o),
(363,507,cs),
(363,462,o),
(313,406,o),
(248,335,cs),
(63,132,l),
(63,0,l)
);
}
);
vertWidth = 0;
width = 603;
}
);
note = uni14BF;
unicode = 5311;
}
{
glyphname = uni14C0;
layers = (
{
layerId = master01;
shapes = (
{
closed = 1;
nodes = (
(717,-12,o),
(828,98,o),
(828,234,cs),
(828,370,o),
(718,481,o),
(581,481,cs),
(59,481,l),
(59,456,l),
(481,456,l),
(395,421,o),
(336,333,o),
(336,234,cs),
(336,98,o),
(446,-12,o),
(581,-12,cs)
);
},
{
closed = 1;
nodes = (
(460,13,o),
(363,112,o),
(363,234,cs),
(363,356,o),
(459,456,o),
(581,456,cs),
(704,456,o),
(801,356,o),
(801,234,cs),
(801,112,o),
(703,13,o),
(581,13,cs)
);
}
);
vertWidth = 0;
width = 897;
},
{
layerId = "95BBE91D-E142-4583-9333-40F49FDAAF51";
shapes = (
{
closed = 1;
nodes = (
(748,-12,o),
(846,88,o),
(846,246,cs),
(846,404,o),
(743,500,o),
(584,500,cs),
(49,500,l),
(49,430,l),
(410,430,l),
(360,374,o),
(340,326,o),
(340,233,cs),
(340,91,o),
(447,-12,o),
(594,-12,cs)
);
},
{
closed = 1;
nodes = (
(497,59,o),
(418,129,o),
(418,235,cs),
(418,354,o),
(484,430,o),
(593,430,cs),
(692,430,o),
(768,359,o),
(768,248,cs),
(768,133,o),
(699,59,o),
(598,59,cs)
);
}
);
vertWidth = 0;
width = 905;
},
{
layerId = "3DE82CA6-356F-4113-A2BF-F7F877EAC5C8";
shapes = (
{
closed = 1;
nodes = (
(806,-12,o),
(882,121,o),
(882,251,cs),
(882,381,o),
(806,514,o),
(599,514,cs),
(39,514,l),
(39,358,l),
(335,358,l),
(322,324,o),
(316,287,o),
(316,251,cs),
(316,121,o),
(392,-12,o),
(599,-12,cs)
);
},
{
closed = 1;
nodes = (
(539,149,o),
(510,190,o),
(510,251,cs),
(510,312,o),
(539,353,o),
(599,353,cs),
(661,353,o),
(688,312,o),
(688,251,cs),
(688,190,o),
(661,149,o),
(599,149,cs)
);
}
);
vertWidth = 0;
width = 931;
}
);
note = uni14C0;
unicode = 5312;
}
{
glyphname = uni14C2;
layers = (
{
layerId = master01;
shapes = (
{
closed = 1;
nodes = (
(451,-12,o),
(561,98,o),
(561,234,cs),
(561,333,o),
(502,421,o),
(416,456,c),
(838,456,l),
(838,481,l),
(316,481,ls),
(179,481,o),
(69,370,o),
(69,234,cs),
(69,98,o),
(180,-12,o),
(316,-12,cs)
);
},
{
closed = 1;
nodes = (
(194,13,o),
(96,112,o),
(96,234,cs),
(96,356,o),
(193,456,o),
(316,456,cs),
(438,456,o),
(534,356,o),
(534,234,cs),
(534,112,o),
(437,13,o),
(316,13,cs)
);
}
);
vertWidth = 0;
width = 897;
},
{
layerId = "95BBE91D-E142-4583-9333-40F49FDAAF51";
shapes = (
{
closed = 1;
nodes = (
(458,-12,o),
(564,91,o),
(564,233,cs),
(564,323,o),
(546,372,o),
(495,430,c),
(855,430,l),
(855,500,l),
(320,500,ls),
(161,500,o),
(59,404,o),
(59,246,cs),
(59,88,o),
(156,-12,o),
(311,-12,cs)
);
},
{
closed = 1;
nodes = (
(204,59,o),
(137,135,o),
(137,248,cs),
(137,359,o),
(212,430,o),
(311,430,cs),
(420,430,o),
(486,354,o),
(486,235,cs),
(486,129,o),
(408,59,o),
(307,59,cs)
);
}
);
vertWidth = 0;
width = 904;
},
{
layerId = "3DE82CA6-356F-4113-A2BF-F7F877EAC5C8";
shapes = (
{
closed = 1;
nodes = (
(539,-12,o),
(615,121,o),
(615,251,cs),
(615,287,o),
(609,324,o),
(596,358,c),
(892,358,l),
(892,514,l),
(332,514,ls),
(125,514,o),
(49,381,o),
(49,251,cs),
(49,121,o),
(125,-12,o),
(332,-12,cs)
);
},
{
closed = 1;
nodes = (
(270,149,o),
(243,190,o),
(243,251,cs),
(243,312,o),
(270,353,o),
(332,353,cs),
(392,353,o),
(421,312,o),
(421,251,cs),
(421,190,o),
(392,149,o),
(332,149,cs)
);
}
);
vertWidth = 0;
width = 931;
}
);
note = uni14C2;
unicode = 5314;
}
{
glyphname = uni14C4;
layers = (
{
layerId = master01;
shapes = (
{
closed = 1;
nodes = (
(581,0,ls),
(718,0,o),
(828,111,o),
(828,247,cs),
(828,383,o),
(717,493,o),
(581,493,cs),
(446,493,o),
(336,383,o),
(336,247,cs),
(336,148,o),
(395,60,o),
(481,25,c),
(59,25,l),
(59,0,l)
);
},
{
closed = 1;
nodes = (
(459,25,o),
(363,125,o),
(363,247,cs),
(363,369,o),
(460,468,o),
(581,468,cs),
(703,468,o),
(801,369,o),
(801,247,cs),
(801,125,o),
(704,25,o),
(581,25,cs)
);
}
);
vertWidth = 0;
width = 897;
},
{
layerId = "95BBE91D-E142-4583-9333-40F49FDAAF51";
shapes = (
{
closed = 1;
nodes = (
(584,0,ls),
(743,0,o),
(846,96,o),
(846,254,cs),
(846,412,o),
(748,513,o),
(594,513,cs),
(447,513,o),
(340,410,o),
(340,268,cs),
(340,178,o),
(359,129,o),
(410,71,c),
(49,71,l),
(49,0,l)
);
},
{
closed = 1;
nodes = (
(484,71,o),
(418,147,o),
(418,266,cs),
(418,371,o),
(497,442,o),
(598,442,cs),
(701,442,o),
(768,366,o),
(768,253,cs),
(768,142,o),
(692,71,o),
(593,71,cs)
);
}
);
vertWidth = 0;
width = 904;
},
{
layerId = "3DE82CA6-356F-4113-A2BF-F7F877EAC5C8";
shapes = (
{
closed = 1;
nodes = (
(599,0,ls),
(806,0,o),
(882,133,o),
(882,263,cs),
(882,393,o),
(806,526,o),
(599,526,cs),
(392,526,o),
(316,393,o),
(316,263,cs),
(316,227,o),
(322,190,o),
(335,156,c),
(39,156,l),
(39,0,l)
);
},
{
closed = 1;
nodes = (
(539,161,o),
(510,202,o),
(510,263,cs),
(510,324,o),
(539,365,o),
(599,365,cs),
(661,365,o),
(688,324,o),
(688,263,cs),
(688,202,o),
(661,161,o),
(599,161,cs)
);
}
);
vertWidth = 0;
width = 931;
}
);
note = uni14C4;
unicode = 5316;
}
{
glyphname = uni14C7;
layers = (
{
layerId = master01;
shapes = (
{
closed = 1;
nodes = (
(838,0,l),
(838,25,l),
(416,25,l),
(502,60,o),
(561,148,o),
(561,247,cs),
(561,383,o),
(451,493,o),
(316,493,cs),
(180,493,o),
(69,383,o),
(69,247,cs),
(69,111,o),
(179,0,o),
(316,0,cs)
);
},
{
closed = 1;
nodes = (
(193,25,o),
(96,125,o),
(96,247,cs),
(96,369,o),
(194,468,o),
(316,468,cs),
(437,468,o),
(534,369,o),
(534,247,cs),
(534,125,o),
(438,25,o),
(316,25,cs)
);
}
);
vertWidth = 0;
width = 897;
},
{
layerId = "95BBE91D-E142-4583-9333-40F49FDAAF51";
shapes = (
{
closed = 1;
nodes = (
(855,0,l),
(855,71,l),
(495,71,l),
(545,128,o),
(564,175,o),
(564,268,cs),
(564,410,o),
(458,513,o),
(311,513,cs),
(157,513,o),
(59,412,o),
(59,254,cs),
(59,96,o),
(161,0,o),
(320,0,cs)
);
},
{
closed = 1;
nodes = (
(212,71,o),
(137,142,o),
(137,253,cs),
(137,368,o),
(205,442,o),
(307,442,cs),
(408,442,o),
(486,371,o),
(486,266,cs),
(486,147,o),
(420,71,o),
(311,71,cs)
);
}
);
vertWidth = 0;
width = 904;
},
{
layerId = "3DE82CA6-356F-4113-A2BF-F7F877EAC5C8";
shapes = (
{
closed = 1;
nodes = (
(892,0,l),
(892,156,l),
(596,156,l),
(609,190,o),
(615,227,o),
(615,263,cs),
(615,393,o),
(539,526,o),
(332,526,cs),
(125,526,o),
(49,393,o),
(49,263,cs),
(49,133,o),
(125,0,o),
(332,0,cs)
);
},
{
closed = 1;
nodes = (
(270,161,o),
(243,202,o),
(243,263,cs),
(243,324,o),
(270,365,o),
(332,365,cs),
(392,365,o),
(421,324,o),
(421,263,cs),
(421,202,o),
(392,161,o),
(332,161,cs)
);
}
);
vertWidth = 0;
width = 931;
}
);
metricLeft = "=uni14C2";
metricRight = "=uni14C2";
note = uni14C7;
unicode = 5319;
}
{
glyphname = uni14D0;
layers = (
{
layerId = master01;
shapes = (
{
closed = 1;
nodes = (
(540,406,l),
(540,428,l),
(281,428,l),
(336,459,o),
(362,509,o),
(362,562,cs),
(362,650,o),
(291,719,o),
(205,719,cs),
(119,719,o),
(49,649,o),
(49,562,cs),
(49,475,o),
(119,406,o),
(205,406,cs)
);
},
{
closed = 1;
nodes = (
(132,429,o),
(73,488,o),
(73,562,cs),
(73,636,o),
(132,696,o),
(206,696,cs),
(279,696,o),
(338,636,o),
(338,562,cs),
(338,488,o),
(278,429,o),
(205,429,cs)
);
}
);
vertWidth = 0;
width = 569;
},
{
layerId = "95BBE91D-E142-4583-9333-40F49FDAAF51";
shapes = (
{
closed = 1;
nodes = (
(555,391,l),
(555,458,l),
(327,458,l),
(348,487,o),
(358,520,o),
(358,558,cs),
(358,647,o),
(289,719,o),
(199,719,cs),
(109,719,o),
(39,647,o),
(39,558,cs),
(39,468,o),
(108,391,o),
(194,391,cs)
);
},
{
closed = 1;
nodes = (
(152,466,o),
(114,507,o),
(114,560,cs),
(114,611,o),
(151,651,o),
(199,651,cs),
(247,651,o),
(283,610,o),
(283,560,cs),
(283,508,o),
(246,466,o),
(199,466,cs)
);
}
);
vertWidth = 0;
width = 579;
},
{
layerId = "3DE82CA6-356F-4113-A2BF-F7F877EAC5C8";
shapes = (
{
closed = 1;
nodes = (
(585,367,l),
(585,475,l),
(378,475,l),
(389,499,o),
(394,519,o),
(394,546,cs),
(394,631,o),
(339,720,o),
(211,720,cs),
(83,720,o),
(29,631,o),
(29,545,cs),
(29,456,o),
(83,367,o),
(211,367,cs)
);
},
{
closed = 1;
nodes = (
(167,473,o),
(147,505,o),
(147,543,cs),
(147,580,o),
(167,614,o),
(210,614,cs),
(253,614,o),
(275,581,o),
(275,543,cs),
(275,506,o),
(254,473,o),
(210,473,cs)
);
}
);
vertWidth = 0;
width = 604;
}
);
note = uni14D0;
unicode = 5328;
}
{
color = 9;
glyphname = uni14D1;
layers = (
{
layerId = master01;
shapes = (
{
closed = 1;
nodes = (
(49,343,ls),
(49,226,o),
(92,164,o),
(203,164,cs),
(314,164,o),
(357,226,o),
(357,343,cs),
(357,544,l),
(333,544,l),
(333,353,ls),
(333,233,o),
(292,184,o),
(203,184,cs),
(114,184,o),
(73,233,o),
(73,353,cs),
(73,544,l),
(49,544,l)
);
}
);
vertWidth = 0;
width = 406;
},
{
layerId = "95BBE91D-E142-4583-9333-40F49FDAAF51";
shapes = (
{
closed = 1;
nodes = (
(39,349,ls),
(39,219,o),
(101,165,o),
(211,165,cs),
(324,165,o),
(385,219,o),
(385,349,cs),
(385,544,l),
(310,544,l),
(310,356,ls),
(310,270,o),
(281,232,o),
(211,232,cs),
(142,232,o),
(114,271,o),
(114,356,cs),
(114,544,l),
(39,544,l)
);
}
);
vertWidth = 0;
width = 424;
},
{
layerId = "3DE82CA6-356F-4113-A2BF-F7F877EAC5C8";
shapes = (
{
closed = 1;
nodes = (
(29,339,ls),
(29,188,o),
(100,145,o),
(220,145,cs),
(363,145,o),
(412,210,o),
(412,349,cs),
(412,562,l),
(293,562,l),
(293,331,ls),
(293,275,o),
(266,253,o),
(220,253,cs),
(175,253,o),
(148,275,o),
(148,331,cs),
(148,562,l),
(29,562,l)
);
}
);
vertWidth = 0;
width = 441;
}
);
note = uni14D1;
unicode = 5329;
}
{
glyphname = uni14D2;
layers = (
{
layerId = master01;
shapes = (
{
closed = 1;
nodes = (
(364,406,ls),
(450,406,o),
(520,475,o),
(520,562,cs),
(520,649,o),
(450,719,o),
(364,719,cs),
(278,719,o),
(207,650,o),
(207,562,cs),
(207,509,o),
(233,459,o),
(288,428,c),
(29,428,l),
(29,406,l)
);
},
{
closed = 1;
nodes = (
(291,429,o),
(231,488,o),
(231,562,cs),
(231,636,o),
(290,696,o),
(363,696,cs),
(437,696,o),
(496,636,o),
(496,562,cs),
(496,488,o),
(437,429,o),
(364,429,cs)
);
}
);
vertWidth = 0;
width = 569;
},
{
layerId = "95BBE91D-E142-4583-9333-40F49FDAAF51";
shapes = (
{
closed = 1;
nodes = (
(385,391,ls),
(471,391,o),
(540,469,o),
(540,558,cs),
(540,646,o),
(470,719,o),
(380,719,cs),
(291,719,o),
(221,647,o),
(221,558,cs),
(221,520,o),
(231,487,o),
(252,458,c),
(24,458,l),
(24,391,l)
);
},
{
closed = 1;
nodes = (
(332,466,o),
(296,509,o),
(296,560,cs),
(296,611,o),
(332,651,o),
(380,651,cs),
(428,651,o),
(465,611,o),
(465,560,cs),
(465,507,o),
(427,466,o),
(380,466,cs)
);
}
);
vertWidth = 0;
width = 579;
},
{
layerId = "3DE82CA6-356F-4113-A2BF-F7F877EAC5C8";
shapes = (
{
closed = 1;
nodes = (
(393,367,ls),
(521,367,o),
(575,456,o),
(575,545,cs),
(575,631,o),
(521,720,o),
(393,720,cs),
(265,720,o),
(210,631,o),
(210,546,cs),
(210,519,o),
(215,499,o),
(226,475,c),
(19,475,l),
(19,367,l)
);
},
{
closed = 1;
nodes = (
(350,473,o),
(329,506,o),
(329,543,cs),
(329,581,o),
(351,614,o),
(394,614,cs),
(437,614,o),
(457,580,o),
(457,543,cs),
(457,505,o),
(437,473,o),
(394,473,cs)
);
}
);
vertWidth = 0;
width = 604;
}
);
note = uni14D2;
unicode = 5330;
}
{
glyphname = uni14D3;
layers = (
{
layerId = master01;
shapes = (
{
closed = 1;
nodes = (
(543,0,ls),
(679,0,o),
(790,113,o),
(790,249,cs),
(790,385,o),
(680,500,o),
(543,500,cs),
(59,500,l),
(59,475,l),
(543,475,ls),
(666,475,o),
(763,371,o),
(763,249,cs),
(763,127,o),
(665,25,o),
(543,25,cs),
(485,25,l),
(485,0,l)
);
}
);
vertWidth = 0;
width = 859;
},
{
layerId = "95BBE91D-E142-4583-9333-40F49FDAAF51";
shapes = (
{
closed = 1;
nodes = (
(574,0,ls),
(726,0,o),
(826,99,o),
(826,249,cs),
(826,417,o),
(734,500,o),
(551,500,cs),
(49,500,l),
(49,430,l),
(541,430,ls),
(681,430,o),
(748,375,o),
(748,250,cs),
(748,144,o),
(680,71,o),
(578,71,cs),
(475,71,l),
(475,0,l)
);
}
);
vertWidth = 0;
width = 885;
},
{
layerId = "3DE82CA6-356F-4113-A2BF-F7F877EAC5C8";
shapes = (
{
closed = 1;
nodes = (
(613,0,ls),
(771,0,o),
(874,98,o),
(874,266,cs),
(874,428,o),
(779,518,o),
(590,518,cs),
(39,518,l),
(39,360,l),
(595,360,ls),
(673,360,o),
(713,329,o),
(713,262,cs),
(713,196,o),
(675,156,o),
(617,156,cs),
(465,156,l),
(465,0,l)
);
}
);
vertWidth = 0;
width = 923;
}
);
note = uni14D3;
unicode = 5331;
}
{
glyphname = uni14D5;
layers = (
{
layerId = master01;
shapes = (
{
closed = 1;
nodes = (
(374,0,l),
(374,25,l),
(316,25,ls),
(194,25,o),
(96,127,o),
(96,249,cs),
(96,371,o),
(193,475,o),
(316,475,cs),
(800,475,l),
(800,500,l),
(316,500,ls),
(179,500,o),
(69,385,o),
(69,249,cs),
(69,113,o),
(180,0,o),
(316,0,cs)
);
}
);
vertWidth = 0;
width = 859;
},
{
layerId = "95BBE91D-E142-4583-9333-40F49FDAAF51";
shapes = (
{
closed = 1;
nodes = (
(410,0,l),
(410,71,l),
(307,71,ls),
(204,71,o),
(137,143,o),
(137,250,cs),
(137,375,o),
(204,430,o),
(344,430,cs),
(836,430,l),
(836,500,l),
(333,500,ls),
(150,500,o),
(59,417,o),
(59,249,cs),
(59,99,o),
(160,0,o),
(311,0,cs)
);
}
);
vertWidth = 0;
width = 885;
},
{
layerId = "3DE82CA6-356F-4113-A2BF-F7F877EAC5C8";
shapes = (
{
closed = 1;
nodes = (
(459,0,l),
(459,156,l),
(317,156,ls),
(253,156,o),
(210,189,o),
(210,259,cs),
(210,332,o),
(256,361,o),
(320,361,cs),
(884,361,l),
(884,517,l),
(322,517,ls),
(130,517,o),
(49,388,o),
(49,258,cs),
(49,128,o),
(130,0,o),
(322,0,cs)
);
}
);
vertWidth = 0;
width = 923;
}
);
note = uni14D5;
unicode = 5333;
}
{
glyphname = uni14EA;
layers = (
{
layerId = master01;
shapes = (
{
closed = 1;
nodes = (
(483,401,l),
(483,423,l),
(205,423,ls),
(132,423,o),
(73,483,o),
(73,557,cs),
(73,631,o),
(132,691,o),
(206,691,cs),
(230,691,l),
(230,714,l),
(205,714,ls),
(119,714,o),
(49,644,o),
(49,557,cs),
(49,470,o),
(119,401,o),
(205,401,cs)
);
}
);
vertWidth = 0;
width = 532;
},
{
layerId = "95BBE91D-E142-4583-9333-40F49FDAAF51";
shapes = (
{
closed = 1;
nodes = (
(483,391,l),
(483,458,l),
(211,458,ls),
(150,458,o),
(114,496,o),
(114,557,cs),
(114,609,o),
(152,646,o),
(208,646,cs),
(230,646,l),
(230,714,l),
(204,714,ls),
(106,714,o),
(39,651,o),
(39,557,cs),
(39,452,o),
(104,391,o),
(210,391,cs)
);
}
);
vertWidth = 0;
width = 522;
},
{
layerId = "3DE82CA6-356F-4113-A2BF-F7F877EAC5C8";
shapes = (
{
closed = 1;
nodes = (
(516,361,l),
(516,469,l),
(211,469,ls),
(168,469,o),
(148,499,o),
(148,537,cs),
(148,574,o),
(168,608,o),
(211,608,cs),
(255,608,l),
(255,714,l),
(212,714,ls),
(83,714,o),
(29,625,o),
(29,539,cs),
(29,450,o),
(83,361,o),
(212,361,cs)
);
}
);
vertWidth = 0;
width = 545;
}
);
note = uni14EA;
unicode = 5354;
}
{
glyphname = uni14EB;
layers = (
{
layerId = master01;
shapes = (
{
closed = 1;
nodes = (
(319,322,l),
(319,343,l),
(88,434,l),
(319,516,l),
(319,531,l),
(88,614,l),
(319,704,l),
(319,725,l),
(314,725,l),
(49,621,l),
(49,605,l),
(275,524,l),
(49,442,l),
(49,426,l),
(314,322,l)
);
}
);
vertWidth = 0;
width = 368;
},
{
layerId = "95BBE91D-E142-4583-9333-40F49FDAAF51";
shapes = (
{
closed = 1;
nodes = (
(319,315,l),
(319,373,l),
(128,432,l),
(319,499,l),
(319,549,l),
(128,611,l),
(319,669,l),
(319,726,l),
(304,726,l),
(39,637,l),
(39,585,l),
(215,523,l),
(39,459,l),
(39,408,l),
(305,315,l)
);
}
);
vertWidth = 0;
width = 358;
},
{
layerId = "3DE82CA6-356F-4113-A2BF-F7F877EAC5C8";
shapes = (
{
closed = 1;
nodes = (
(356,289,l),
(356,382,l),
(199,430,l),
(357,482,l),
(357,531,l),
(199,584,l),
(356,632,l),
(356,725,l),
(330,725,l),
(29,623,l),
(29,565,l),
(182,508,l),
(29,450,l),
(29,391,l),
(330,289,l)
);
}
);
vertWidth = 0;
width = 386;
}
);
note = uni14EB;
unicode = 5355;
}
{
glyphname = uni14EC;
layers = (
{
layerId = master01;
shapes = (
{
closed = 1;
nodes = (
(550,-12,l),
(550,13,l),
(108,179,l),
(550,344,l),
(550,370,l),
(108,535,l),
(550,701,l),
(550,726,l),
(543,726,l),
(69,547,l),
(69,523,l),
(516,357,l),
(69,191,l),
(69,167,l),
(543,-12,l)
);
}
);
vertWidth = 0;
width = 619;
},
{
layerId = "95BBE91D-E142-4583-9333-40F49FDAAF51";
shapes = (
{
closed = 1;
nodes = (
(560,-12,l),
(560,64,l),
(161,193,l),
(560,335,l),
(560,379,l),
(161,521,l),
(560,649,l),
(560,726,l),
(550,726,l),
(59,561,l),
(59,486,l),
(419,357,l),
(59,228,l),
(59,153,l),
(550,-12,l)
);
}
);
vertWidth = 0;
width = 619;
},
{
layerId = "3DE82CA6-356F-4113-A2BF-F7F877EAC5C8";
shapes = (
{
closed = 1;
nodes = (
(603,-12,l),
(603,127,l),
(320,225,l),
(604,323,l),
(604,390,l),
(320,488,l),
(603,586,l),
(603,725,l),
(558,725,l),
(49,553,l),
(49,455,l),
(325,357,l),
(49,258,l),
(49,160,l),
(558,-12,l)
);
}
);
vertWidth = 0;
width = 653;
}
);
note = uni14EC;
unicode = 5356;
}
{
glyphname = uni14ED;
layers = (
{
layerId = master01;
shapes = (
{
closed = 1;
nodes = (
(463,0,l),
(463,283,l),
(435,283,ls),
(220,283,o),
(95,386,o),
(95,612,cs),
(95,714,l),
(69,714,l),
(69,604,ls),
(69,360,o),
(212,258,o),
(427,258,cs),
(437,258,l),
(437,0,l)
);
}
);
vertWidth = 0;
width = 542;
},
{
layerId = "95BBE91D-E142-4583-9333-40F49FDAAF51";
shapes = (
{
closed = 1;
nodes = (
(509,0,l),
(509,327,l),
(431,327,ls),
(228,327,o),
(137,421,o),
(137,647,cs),
(137,714,l),
(59,714,l),
(59,629,ls),
(59,391,o),
(184,256,o),
(411,256,cs),
(431,256,l),
(431,0,l)
);
}
);
vertWidth = 0;
width = 578;
},
{
layerId = "3DE82CA6-356F-4113-A2BF-F7F877EAC5C8";
shapes = (
{
closed = 1;
nodes = (
(583,0,l),
(583,402,l),
(505,402,ls),
(322,402,o),
(241,446,o),
(241,647,cs),
(241,714,l),
(49,714,l),
(49,629,ls),
(49,391,o),
(174,256,o),
(381,256,cs),
(391,256,l),
(391,0,l)
);
}
);
vertWidth = 0;
width = 642;
}
);
note = uni14ED;
unicode = 5357;
}
{
glyphname = uni14EF;
layers = (
{
layerId = master01;
shapes = (
{
closed = 1;
nodes = (
(105,0,l),
(105,258,l),
(115,258,ls),
(330,258,o),
(473,360,o),
(473,604,cs),
(473,714,l),
(447,714,l),
(447,612,ls),
(447,386,o),
(322,283,o),
(107,283,cs),
(79,283,l),
(79,0,l)
);
}
);
vertWidth = 0;
width = 542;
},
{
layerId = "95BBE91D-E142-4583-9333-40F49FDAAF51";
shapes = (
{
closed = 1;
nodes = (
(146,0,l),
(146,256,l),
(167,256,ls),
(394,256,o),
(519,391,o),
(519,629,cs),
(519,714,l),
(440,714,l),
(440,647,ls),
(440,420,o),
(348,327,o),
(146,327,cs),
(68,327,l),
(68,0,l)
);
}
);
vertWidth = 0;
width = 577;
},
{
layerId = "3DE82CA6-356F-4113-A2BF-F7F877EAC5C8";
shapes = (
{
closed = 1;
nodes = (
(251,0,l),
(251,256,l),
(261,256,ls),
(468,256,o),
(593,391,o),
(593,629,cs),
(593,714,l),
(401,714,l),
(401,647,ls),
(401,446,o),
(320,402,o),
(137,402,cs),
(59,402,l),
(59,0,l)
);
}
);
vertWidth = 0;
width = 642;
}
);
note = uni14EF;
unicode = 5359;
}
{
glyphname = uni14F1;
layers = (
{
layerId = master01;
shapes = (
{
closed = 1;
nodes = (
(95,0,l),
(95,102,ls),
(95,328,o),
(220,431,o),
(435,431,cs),
(463,431,l),
(463,714,l),
(437,714,l),
(437,456,l),
(427,456,ls),
(212,456,o),
(69,354,o),
(69,110,cs),
(69,0,l)
);
}
);
vertWidth = 0;
width = 542;
},
{
layerId = "95BBE91D-E142-4583-9333-40F49FDAAF51";
shapes = (
{
closed = 1;
nodes = (
(137,0,l),
(137,67,ls),
(137,293,o),
(229,387,o),
(431,387,cs),
(509,387,l),
(509,714,l),
(431,714,l),
(431,458,l),
(411,458,ls),
(184,458,o),
(59,323,o),
(59,85,cs),
(59,0,l)
);
}
);
vertWidth = 0;
width = 578;
},
{
layerId = "3DE82CA6-356F-4113-A2BF-F7F877EAC5C8";
shapes = (
{
closed = 1;
nodes = (
(241,0,l),
(241,67,ls),
(241,268,o),
(322,312,o),
(505,312,cs),
(583,312,l),
(583,714,l),
(391,714,l),
(391,458,l),
(381,458,ls),
(174,458,o),
(49,323,o),
(49,85,cs),
(49,0,l)
);
}
);
vertWidth = 0;
width = 642;
}
);
note = uni14F1;
unicode = 5361;
}
{
glyphname = uni14F4;
layers = (
{
layerId = master01;
shapes = (
{
closed = 1;
nodes = (
(473,0,l),
(473,110,ls),
(473,354,o),
(330,456,o),
(115,456,cs),
(105,456,l),
(105,714,l),
(79,714,l),
(79,431,l),
(107,431,ls),
(322,431,o),
(447,328,o),
(447,102,cs),
(447,0,l)
);
}
);
vertWidth = 0;
width = 542;
},
{
layerId = "95BBE91D-E142-4583-9333-40F49FDAAF51";
shapes = (
{
closed = 1;
nodes = (
(519,0,l),
(519,85,ls),
(519,323,o),
(394,458,o),
(167,458,cs),
(146,458,l),
(146,714,l),
(68,714,l),
(68,387,l),
(146,387,ls),
(349,387,o),
(440,293,o),
(440,67,cs),
(440,0,l)
);
}
);
vertWidth = 0;
width = 577;
},
{
layerId = "3DE82CA6-356F-4113-A2BF-F7F877EAC5C8";
shapes = (
{
closed = 1;
nodes = (
(593,0,l),
(593,85,ls),
(593,323,o),
(468,458,o),
(261,458,cs),
(251,458,l),
(251,714,l),
(59,714,l),
(59,312,l),
(137,312,ls),
(320,312,o),
(401,268,o),
(401,67,cs),
(401,0,l)
);
}
);
vertWidth = 0;
width = 642;
}
);
note = uni14F4;
unicode = 5364;
}
{
glyphname = uni1505;
layers = (
{
layerId = master01;
shapes = (
{
closed = 1;
nodes = (
(292,342,l),
(292,387,ls),
(292,523,o),
(229,586,o),
(79,586,cs),
(73,586,l),
(73,714,l),
(49,714,l),
(49,564,l),
(77,564,ls),
(224,564,o),
(268,502,o),
(268,382,cs),
(268,342,l)
);
}
);
vertWidth = 0;
width = 341;
},
{
layerId = "95BBE91D-E142-4583-9333-40F49FDAAF51";
shapes = (
{
closed = 1;
nodes = (
(313,342,l),
(313,395,ls),
(313,525,o),
(257,585,o),
(130,585,cs),
(114,585,l),
(114,714,l),
(39,714,l),
(39,518,l),
(96,518,ls),
(202,518,o),
(237,496,o),
(237,383,cs),
(237,342,l)
);
}
);
vertWidth = 0;
width = 352;
},
{
layerId = "3DE82CA6-356F-4113-A2BF-F7F877EAC5C8";
shapes = (
{
closed = 1;
nodes = (
(349,317,l),
(349,405,ls),
(349,539,o),
(292,599,o),
(162,599,cs),
(147,599,l),
(147,714,l),
(29,714,l),
(29,491,l),
(87,491,ls),
(198,491,o),
(232,466,o),
(232,376,cs),
(232,317,l)
);
}
);
vertWidth = 0;
width = 378;
}
);
note = uni1505;
unicode = 5381;
}
{
color = 9;
glyphname = uni1506;
layers = (
{
layerId = master01;
shapes = (
{
closed = 1;
nodes = (
(242,164,o),
(294,202,o),
(294,264,cs),
(294,332,o),
(230,353,o),
(177,369,cs),
(127,384,o),
(78,399,o),
(78,451,cs),
(78,497,o),
(117,529,o),
(183,529,cs),
(223,529,o),
(254,517,o),
(276,492,c),
(297,501,l),
(272,534,o),
(233,551,o),
(182,551,cs),
(105,551,o),
(54,512,o),
(54,451,cs),
(54,382,o),
(118,362,o),
(171,346,cs),
(221,331,o),
(270,315,o),
(270,263,cs),
(270,217,o),
(230,186,o),
(165,186,cs),
(122,186,o),
(91,199,o),
(70,226,c),
(49,217,l),
(76,181,o),
(115,164,o),
(166,164,cs)
);
}
);
vertWidth = 0;
width = 346;
},
{
layerId = "95BBE91D-E142-4583-9333-40F49FDAAF51";
shapes = (
{
closed = 1;
nodes = (
(267,165,o),
(323,206,o),
(323,275,cs),
(323,351,o),
(255,371,o),
(190,391,cs),
(149,404,o),
(115,414,o),
(115,443,cs),
(115,468,o),
(141,484,o),
(183,484,cs),
(217,484,o),
(239,474,o),
(254,453,c),
(323,485,l),
(296,527,o),
(251,551,o),
(183,551,cs),
(95,551,o),
(39,510,o),
(39,442,cs),
(39,363,o),
(114,344,o),
(177,324,cs),
(218,311,o),
(247,302,o),
(247,274,cs),
(247,248,o),
(221,232,o),
(179,232,cs),
(145,232,o),
(123,242,o),
(108,263,c),
(39,231,l),
(66,189,o),
(111,165,o),
(179,165,cs)
);
}
);
vertWidth = 0;
width = 362;
},
{
layerId = "3DE82CA6-356F-4113-A2BF-F7F877EAC5C8";
shapes = (
{
closed = 1;
nodes = (
(293,153,o),
(355,197,o),
(355,266,cs),
(355,342,o),
(279,375,o),
(207,403,cs),
(163,420,o),
(148,426,o),
(148,443,cs),
(148,456,o),
(158,465,o),
(183,465,cs),
(214,465,o),
(238,451,o),
(262,424,c),
(360,470,l),
(320,523,o),
(269,562,o),
(186,562,cs),
(97,562,o),
(34,518,o),
(34,449,cs),
(34,374,o),
(110,339,o),
(182,312,cs),
(215,300,o),
(241,290,o),
(241,272,cs),
(241,258,o),
(226,250,o),
(205,250,cs),
(176,250,o),
(151,264,o),
(127,291,c),
(29,245,l),
(69,192,o),
(120,153,o),
(204,153,cs)
);
}
);
vertWidth = 0;
width = 389;
}
);
note = uni1506;
unicode = 5382;
}
{
glyphname = uni1507;
layers = (
{
layerId = master01;
shapes = (
{
closed = 1;
nodes = (
(73,342,l),
(73,382,ls),
(73,502,o),
(117,564,o),
(264,564,cs),
(292,564,l),
(292,714,l),
(268,714,l),
(268,586,l),
(262,586,ls),
(112,586,o),
(49,523,o),
(49,387,cs),
(49,342,l)
);
}
);
vertWidth = 0;
width = 341;
},
{
layerId = "95BBE91D-E142-4583-9333-40F49FDAAF51";
shapes = (
{
closed = 1;
nodes = (
(114,342,l),
(114,383,ls),
(114,494,o),
(147,518,o),
(256,518,cs),
(313,518,l),
(313,714,l),
(237,714,l),
(237,585,l),
(222,585,ls),
(95,585,o),
(39,526,o),
(39,395,cs),
(39,342,l)
);
}
);
vertWidth = 0;
width = 352;
},
{
layerId = "3DE82CA6-356F-4113-A2BF-F7F877EAC5C8";
shapes = (
{
closed = 1;
nodes = (
(146,317,l),
(146,376,ls),
(146,466,o),
(180,491,o),
(291,491,cs),
(349,491,l),
(349,714,l),
(231,714,l),
(231,599,l),
(216,599,ls),
(86,599,o),
(29,539,o),
(29,405,cs),
(29,317,l)
);
}
);
vertWidth = 0;
width = 378;
}
);
note = uni1507;
unicode = 5383;
}
{
glyphname = uni1508;
layers = (
{
layerId = master01;
shapes = (
{
closed = 1;
nodes = (
(389,342,l),
(389,364,l),
(223,364,ls),
(95,364,o),
(73,448,o),
(73,513,cs),
(73,702,l),
(49,702,l),
(49,515,ls),
(49,400,o),
(108,342,o),
(223,342,cs)
);
}
);
vertWidth = 0;
width = 438;
},
{
layerId = "95BBE91D-E142-4583-9333-40F49FDAAF51";
shapes = (
{
closed = 1;
nodes = (
(391,342,l),
(391,409,l),
(211,409,ls),
(146,409,o),
(114,448,o),
(114,513,cs),
(114,702,l),
(39,702,l),
(39,515,ls),
(39,400,o),
(98,342,o),
(213,342,cs)
);
}
);
vertWidth = 0;
width = 430;
},
{
layerId = "3DE82CA6-356F-4113-A2BF-F7F877EAC5C8";
shapes = (
{
closed = 1;
nodes = (
(417,317,l),
(417,426,l),
(293,426,ls),
(192,426,o),
(148,440,o),
(148,562,cs),
(148,702,l),
(29,702,l),
(29,526,ls),
(29,383,o),
(99,317,o),
(214,317,cs)
);
}
);
vertWidth = 0;
width = 446;
}
);
note = uni1508;
unicode = 5384;
}
{
glyphname = uni1509;
layers = (
{
layerId = master01;
shapes = (
{
closed = 1;
nodes = (
(229,274,o),
(276,313,o),
(276,405,cs),
(276,529,o),
(192,566,o),
(83,566,cs),
(73,566,l),
(73,714,l),
(49,714,l),
(49,544,l),
(73,544,ls),
(183,544,o),
(252,514,o),
(252,405,cs),
(252,328,o),
(217,296,o),
(172,296,cs),
(131,296,o),
(103,322,o),
(103,364,cs),
(103,402,o),
(124,441,o),
(206,441,cs),
(257,441,l),
(257,461,l),
(202,461,ls),
(114,461,o),
(79,416,o),
(79,364,cs),
(79,311,o),
(120,274,o),
(174,274,cs)
);
}
);
vertWidth = 0;
width = 325;
},
{
layerId = "95BBE91D-E142-4583-9333-40F49FDAAF51";
shapes = (
{
closed = 1;
nodes = (
(269,260,o),
(313,312,o),
(313,403,cs),
(313,516,o),
(241,585,o),
(122,585,cs),
(114,585,l),
(114,714,l),
(39,714,l),
(39,518,l),
(102,518,ls),
(202,518,o),
(239,486,o),
(239,401,cs),
(239,355,o),
(223,328,o),
(197,328,cs),
(177,328,o),
(166,343,o),
(166,366,cs),
(166,400,o),
(195,419,o),
(254,419,cs),
(265,419,l),
(265,481,l),
(254,481,ls),
(133,481,o),
(90,425,o),
(90,369,cs),
(90,307,o),
(133,260,o),
(192,260,cs)
);
}
);
vertWidth = 0;
width = 352;
},
{
layerId = "3DE82CA6-356F-4113-A2BF-F7F877EAC5C8";
shapes = (
{
closed = 1;
nodes = (
(294,234,o),
(349,305,o),
(349,417,cs),
(349,541,o),
(283,599,o),
(164,599,cs),
(147,599,l),
(147,714,l),
(29,714,l),
(29,498,l),
(98,498,ls),
(213,498,o),
(236,438,o),
(236,375,cs),
(236,324,o),
(221,308,o),
(194,308,cs),
(168,308,o),
(157,328,o),
(157,349,cs),
(157,377,o),
(180,400,o),
(240,400,cs),
(256,400,l),
(256,469,l),
(245,469,ls),
(123,469,o),
(49,434,o),
(49,345,cs),
(49,275,o),
(95,234,o),
(182,234,cs)
);
}
);
vertWidth = 0;
width = 378;
}
);
note = uni1509;
unicode = 5385;
}
{
glyphname = uni150A;
layers = (
{
layerId = master01;
shapes = (
{
closed = 1;
nodes = (
(205,274,o),
(246,311,o),
(246,364,cs),
(246,416,o),
(211,461,o),
(123,461,cs),
(68,461,l),
(68,441,l),
(119,441,ls),
(201,441,o),
(222,402,o),
(222,364,cs),
(222,322,o),
(194,296,o),
(153,296,cs),
(108,296,o),
(73,328,o),
(73,405,cs),
(73,514,o),
(142,544,o),
(252,544,cs),
(276,544,l),
(276,714,l),
(252,714,l),
(252,566,l),
(242,566,ls),
(133,566,o),
(49,529,o),
(49,405,cs),
(49,313,o),
(96,274,o),
(151,274,cs)
);
}
);
vertWidth = 0;
width = 325;
},
{
layerId = "95BBE91D-E142-4583-9333-40F49FDAAF51";
shapes = (
{
closed = 1;
nodes = (
(219,260,o),
(262,307,o),
(262,369,cs),
(262,425,o),
(219,481,o),
(98,481,cs),
(87,481,l),
(87,419,l),
(98,419,ls),
(157,419,o),
(186,400,o),
(186,366,cs),
(186,343,o),
(175,328,o),
(155,328,cs),
(129,328,o),
(113,355,o),
(113,401,cs),
(113,486,o),
(150,518,o),
(250,518,cs),
(313,518,l),
(313,714,l),
(238,714,l),
(238,585,l),
(230,585,ls),
(111,585,o),
(39,516,o),
(39,403,cs),
(39,312,o),
(83,260,o),
(160,260,cs)
);
}
);
vertWidth = 0;
width = 352;
},
{
layerId = "3DE82CA6-356F-4113-A2BF-F7F877EAC5C8";
shapes = (
{
closed = 1;
nodes = (
(283,234,o),
(329,275,o),
(329,345,cs),
(329,434,o),
(255,469,o),
(133,469,cs),
(122,469,l),
(122,400,l),
(138,400,ls),
(198,400,o),
(221,377,o),
(221,349,cs),
(221,328,o),
(210,308,o),
(184,308,cs),
(157,308,o),
(142,324,o),
(142,375,cs),
(142,438,o),
(165,498,o),
(280,498,cs),
(349,498,l),
(349,714,l),
(231,714,l),
(231,599,l),
(214,599,ls),
(95,599,o),
(29,541,o),
(29,417,cs),
(29,305,o),
(84,234,o),
(196,234,cs)
);
}
);
vertWidth = 0;
width = 378;
}
);
note = uni150A;
unicode = 5386;
}
{
glyphname = uni150B;
layers = (
{
layerId = master01;
shapes = (
{
closed = 1;
nodes = (
(274,349,l),
(274,384,ls),
(274,510,o),
(231,557,o),
(101,557,cs),
(95,557,l),
(95,665,l),
(71,665,l),
(71,535,l),
(93,535,ls),
(223,535,o),
(250,492,o),
(250,376,cs),
(250,349,l)
);
},
{
closed = 1;
nodes = (
(280,244,o),
(295,258,o),
(295,277,cs),
(295,295,o),
(280,310,o),
(262,310,cs),
(243,310,o),
(228,295,o),
(228,277,cs),
(228,258,o),
(243,244,o),
(262,244,cs)
);
},
{
closed = 1;
nodes = (
(101,704,o),
(116,718,o),
(116,737,cs),
(116,755,o),
(101,770,o),
(83,770,cs),
(64,770,o),
(49,755,o),
(49,737,cs),
(49,718,o),
(64,704,o),
(83,704,cs)
);
}
);
vertWidth = 0;
width = 344;
},
{
layerId = "95BBE91D-E142-4583-9333-40F49FDAAF51";
shapes = (
{
closed = 1;
nodes = (
(287,349,l),
(287,382,ls),
(287,503,o),
(245,556,o),
(163,556,cs),
(137,556,l),
(137,665,l),
(62,665,l),
(62,488,l),
(138,488,ls),
(192,488,o),
(211,465,o),
(211,383,cs),
(211,349,l)
);
},
{
closed = 1;
nodes = (
(281,192,o),
(308,218,o),
(308,251,cs),
(308,284,o),
(281,310,o),
(249,310,cs),
(216,310,o),
(189,284,o),
(189,251,cs),
(189,218,o),
(216,192,o),
(249,192,cs)
);
},
{
closed = 1;
nodes = (
(131,704,o),
(157,730,o),
(157,763,cs),
(157,796,o),
(131,822,o),
(98,822,cs),
(65,822,o),
(39,796,o),
(39,763,cs),
(39,730,o),
(65,704,o),
(98,704,cs)
);
}
);
vertWidth = 0;
width = 347;
},
{
layerId = "3DE82CA6-356F-4113-A2BF-F7F877EAC5C8";
shapes = (
{
closed = 1;
nodes = (
(372,322,l),
(372,384,ls),
(372,517,o),
(315,578,o),
(185,578,cs),
(170,578,l),
(170,667,l),
(52,667,l),
(52,470,l),
(110,470,ls),
(221,470,o),
(255,445,o),
(255,355,cs),
(255,322,l)
);
},
{
closed = 1;
nodes = (
(357,125,o),
(395,162,o),
(395,209,cs),
(395,255,o),
(357,293,o),
(311,293,cs),
(264,293,o),
(227,255,o),
(227,209,cs),
(227,162,o),
(264,125,o),
(311,125,cs)
);
},
{
closed = 1;
nodes = (
(159,696,o),
(197,733,o),
(197,780,cs),
(197,826,o),
(159,864,o),
(113,864,cs),
(66,864,o),
(29,826,o),
(29,780,cs),
(29,733,o),
(66,696,o),
(113,696,cs)
);
}
);
vertWidth = 0;
width = 424;
}
);
note = uni150B;
unicode = 5387;
}
{
glyphname = uni150C;
layers = (
{
layerId = master01;
shapes = (
{
closed = 1;
nodes = (
(673,-10,l),
(673,14,l),
(83,358,l),
(673,703,l),
(673,726,l),
(663,726,l),
(49,367,l),
(49,349,l),
(663,-10,l)
);
},
{
closed = 1;
nodes = (
(137,500,o),
(152,514,o),
(152,533,cs),
(152,551,o),
(137,566,o),
(119,566,cs),
(100,566,o),
(85,551,o),
(85,533,cs),
(85,514,o),
(100,500,o),
(119,500,cs)
);
},
{
closed = 1;
nodes = (
(366,614,l),
(366,649,ls),
(366,775,o),
(323,822,o),
(193,822,cs),
(187,822,l),
(187,930,l),
(167,930,l),
(167,803,l),
(185,803,ls),
(315,803,o),
(346,757,o),
(346,641,cs),
(346,614,l)
);
},
{
closed = 1;
nodes = (
(540,733,o),
(555,747,o),
(555,766,cs),
(555,784,o),
(540,799,o),
(522,799,cs),
(503,799,o),
(488,784,o),
(488,766,cs),
(488,747,o),
(503,733,o),
(522,733,cs)
);
}
);
vertWidth = 0;
width = 732;
},
{
layerId = "95BBE91D-E142-4583-9333-40F49FDAAF51";
shapes = (
{
closed = 1;
nodes = (
(663,-10,l),
(663,74,l),
(165,357,l),
(663,641,l),
(663,725,l),
(653,725,l),
(39,364,l),
(39,350,l),
(653,-10,l)
);
},
{
closed = 1;
nodes = (
(140,500,o),
(167,526,o),
(167,559,cs),
(167,592,o),
(140,618,o),
(107,618,cs),
(75,618,o),
(48,592,o),
(48,559,cs),
(48,526,o),
(75,500,o),
(107,500,cs)
);
},
{
closed = 1;
nodes = (
(369,613,l),
(369,646,ls),
(369,767,o),
(327,819,o),
(245,819,cs),
(220,819,l),
(220,929,l),
(145,929,l),
(145,752,l),
(221,752,ls),
(275,752,o),
(294,729,o),
(294,647,cs),
(294,613,l)
);
},
{
closed = 1;
nodes = (
(543,732,o),
(570,759,o),
(570,792,cs),
(570,824,o),
(543,851,o),
(511,851,cs),
(478,851,o),
(452,824,o),
(452,792,cs),
(452,759,o),
(478,732,o),
(511,732,cs)
);
}
);
vertWidth = 0;
width = 712;
},
{
layerId = "3DE82CA6-356F-4113-A2BF-F7F877EAC5C8";
shapes = (
{
closed = 1;
nodes = (
(693,-10,l),
(693,160,l),
(340,358,l),
(693,556,l),
(693,725,l),
(648,725,l),
(29,380,l),
(29,335,l),
(648,-10,l)
);
},
{
closed = 1;
nodes = (
(163,500,o),
(201,537,o),
(201,584,cs),
(201,630,o),
(163,668,o),
(117,668,cs),
(70,668,o),
(33,630,o),
(33,584,cs),
(33,537,o),
(70,500,o),
(117,500,cs)
);
},
{
closed = 1;
nodes = (
(400,610,l),
(400,677,ls),
(400,810,o),
(343,871,o),
(213,871,cs),
(198,871,l),
(198,960,l),
(80,960,l),
(80,763,l),
(138,763,ls),
(249,763,o),
(283,738,o),
(283,648,cs),
(283,610,l)
);
},
{
closed = 1;
nodes = (
(567,732,o),
(605,769,o),
(605,816,cs),
(605,862,o),
(567,900,o),
(521,900,cs),
(474,900,o),
(437,862,o),
(437,816,cs),
(437,769,o),
(474,732,o),
(521,732,cs)
);
}
);
vertWidth = 0;
width = 732;
}
);
note = uni150C;
unicode = 5388;
}
{
glyphname = uni1510;
layers = (
{
layerId = master01;
shapes = (
{
closed = 1;
nodes = (
(737,-12,o),
(787,83,o),
(787,237,cs),
(787,282,l),
(761,282,l),
(761,238,ls),
(761,94,o),
(719,13,o),
(601,13,cs),
(483,13,o),
(441,94,o),
(441,238,cs),
(441,477,ls),
(441,631,o),
(391,726,o),
(255,726,cs),
(119,726,o),
(69,631,o),
(69,477,cs),
(69,432,l),
(95,432,l),
(95,476,ls),
(95,620,o),
(137,701,o),
(255,701,cs),
(373,701,o),
(415,620,o),
(415,476,cs),
(415,237,ls),
(415,83,o),
(465,-12,o),
(601,-12,cs)
);
}
);
vertWidth = 0;
width = 856;
},
{
layerId = "95BBE91D-E142-4583-9333-40F49FDAAF51";
shapes = (
{
closed = 1;
nodes = (
(718,-12,o),
(786,66,o),
(786,236,cs),
(786,282,l),
(708,282,l),
(708,233,ls),
(708,108,o),
(667,59,o),
(577,59,cs),
(497,59,o),
(461,107,o),
(461,235,cs),
(461,481,ls),
(461,647,o),
(397,726,o),
(266,726,cs),
(127,726,o),
(59,648,o),
(59,478,cs),
(59,432,l),
(137,432,l),
(137,481,ls),
(137,606,o),
(178,655,o),
(268,655,cs),
(348,655,o),
(383,606,o),
(383,479,cs),
(383,233,ls),
(383,66,o),
(447,-12,o),
(579,-12,cs)
);
}
);
vertWidth = 0;
width = 845;
},
{
layerId = "3DE82CA6-356F-4113-A2BF-F7F877EAC5C8";
shapes = (
{
closed = 1;
nodes = (
(741,-12,o),
(818,70,o),
(818,249,cs),
(818,299,l),
(628,299,l),
(628,230,ls),
(628,167,o),
(614,141,o),
(578,141,cs),
(542,141,o),
(528,166,o),
(528,230,cs),
(528,484,ls),
(528,644,o),
(443,726,o),
(285,726,cs),
(126,726,o),
(49,644,o),
(49,465,cs),
(49,415,l),
(239,415,l),
(239,484,ls),
(239,543,o),
(252,573,o),
(290,573,cs),
(324,573,o),
(339,550,o),
(339,484,cs),
(339,230,ls),
(339,70,o),
(424,-12,o),
(583,-12,cs)
);
}
);
vertWidth = 0;
width = 867;
}
);
note = uni1510;
unicode = 5392;
}
{
glyphname = uni1511;
layers = (
{
layerId = master01;
shapes = (
{
closed = 1;
nodes = (
(391,-12,o),
(441,83,o),
(441,237,cs),
(441,476,ls),
(441,620,o),
(483,701,o),
(601,701,cs),
(719,701,o),
(761,620,o),
(761,476,cs),
(761,432,l),
(787,432,l),
(787,477,ls),
(787,631,o),
(737,726,o),
(601,726,cs),
(465,726,o),
(415,631,o),
(415,477,cs),
(415,238,ls),
(415,94,o),
(373,13,o),
(255,13,cs),
(137,13,o),
(95,94,o),
(95,238,cs),
(95,282,l),
(69,282,l),
(69,237,ls),
(69,83,o),
(119,-12,o),
(255,-12,cs)
);
}
);
vertWidth = 0;
width = 856;
},
{
layerId = "95BBE91D-E142-4583-9333-40F49FDAAF51";
shapes = (
{
closed = 1;
nodes = (
(397,-12,o),
(461,66,o),
(461,233,cs),
(461,479,ls),
(461,606,o),
(496,655,o),
(577,655,cs),
(667,655,o),
(708,606,o),
(708,481,cs),
(708,432,l),
(786,432,l),
(786,478,ls),
(786,648,o),
(718,726,o),
(579,726,cs),
(447,726,o),
(383,647,o),
(383,481,cs),
(383,235,ls),
(383,108,o),
(349,59,o),
(268,59,cs),
(178,59,o),
(137,108,o),
(137,233,cs),
(137,282,l),
(59,282,l),
(59,236,ls),
(59,66,o),
(127,-12,o),
(266,-12,cs)
);
}
);
vertWidth = 0;
width = 845;
},
{
layerId = "3DE82CA6-356F-4113-A2BF-F7F877EAC5C8";
shapes = (
{
closed = 1;
nodes = (
(443,-12,o),
(528,70,o),
(528,230,cs),
(528,484,l),
(528,550,o),
(543,573,o),
(577,573,cs),
(615,573,o),
(628,543,o),
(628,484,cs),
(628,415,l),
(818,415,l),
(818,465,ls),
(818,644,o),
(741,726,o),
(582,726,cs),
(424,726,o),
(339,644,o),
(339,484,cs),
(339,230,ls),
(339,166,o),
(325,141,o),
(289,141,cs),
(253,141,o),
(239,167,o),
(239,230,cs),
(239,299,l),
(49,299,l),
(49,249,ls),
(49,70,o),
(126,-12,o),
(284,-12,cs)
);
}
);
vertWidth = 0;
width = 867;
}
);
metricLeft = "=uni1510";
metricRight = "=uni1510";
note = uni1511;
unicode = 5393;
}
{
glyphname = uni1513;
layers = (
{
layerId = master01;
shapes = (
{
closed = 1;
nodes = (
(253,1,l),
(153,44,o),
(95,122,o),
(95,227,cs),
(95,336,o),
(158,399,o),
(262,399,cs),
(372,399,o),
(416,329,o),
(492,199,cs),
(566,73,o),
(616,-12,o),
(746,-12,cs),
(868,-12,o),
(939,62,o),
(939,185,cs),
(939,296,o),
(881,375,o),
(766,425,c),
(753,403,l),
(858,358,o),
(913,287,o),
(913,184,cs),
(913,76,o),
(852,13,o),
(747,13,cs),
(634,13,o),
(591,85,o),
(516,213,cs),
(438,346,o),
(388,424,o),
(264,424,cs),
(142,424,o),
(69,350,o),
(69,226,cs),
(69,112,o),
(132,26,o),
(240,-21,c)
);
}
);
vertWidth = 0;
width = 1008;
},
{
layerId = "95BBE91D-E142-4583-9333-40F49FDAAF51";
shapes = (
{
closed = 1;
nodes = (
(235,45,l),
(178,89,o),
(139,153,o),
(139,233,cs),
(139,308,o),
(173,354,o),
(240,354,cs),
(325,354,o),
(385,281,o),
(466,179,cs),
(556,66,o),
(635,-12,o),
(745,-12,cs),
(853,-12,o),
(926,63,o),
(926,179,cs),
(926,282,o),
(868,376,o),
(785,429,c),
(749,368,l),
(801,335,o),
(846,262,o),
(846,179,cs),
(846,106,o),
(812,59,o),
(745,59,cs),
(658,59,o),
(595,138,o),
(521,231,cs),
(412,368,o),
(335,425,o),
(240,425,cs),
(130,425,o),
(59,350,o),
(59,232,cs),
(59,134,o),
(107,48,o),
(199,-17,c)
);
}
);
vertWidth = 0;
width = 985;
},
{
layerId = "3DE82CA6-356F-4113-A2BF-F7F877EAC5C8";
shapes = (
{
closed = 1;
nodes = (
(315,105,l),
(268,139,o),
(239,172,o),
(239,216,cs),
(239,252,o),
(260,279,o),
(297,279,cs),
(362,279,o),
(416,199,o),
(469,137,cs),
(557,34,o),
(630,-12,o),
(736,-12,cs),
(889,-12,o),
(979,85,o),
(979,205,cs),
(979,307,o),
(914,401,o),
(843,447,c),
(713,325,l),
(756,294,o),
(789,260,o),
(789,214,cs),
(789,177,o),
(768,151,o),
(732,151,cs),
(683,151,o),
(642,198,o),
(579,269,cs),
(495,364,o),
(425,442,o),
(292,442,cs),
(143,442,o),
(49,345,o),
(49,225,cs),
(49,124,o),
(116,30,o),
(188,-17,c)
);
}
);
vertWidth = 0;
width = 1028;
}
);
note = uni1513;
unicode = 5395;
}
{
glyphname = uni1515;
layers = (
{
layerId = master01;
shapes = (
{
closed = 1;
nodes = (
(876,26,o),
(939,112,o),
(939,226,cs),
(939,350,o),
(866,424,o),
(744,424,cs),
(620,424,o),
(571,347,o),
(492,213,cs),
(415,82,o),
(373,13,o),
(262,13,cs),
(156,13,o),
(95,76,o),
(95,184,cs),
(95,287,o),
(150,358,o),
(255,403,c),
(242,425,l),
(127,375,o),
(69,296,o),
(69,185,cs),
(69,62,o),
(140,-12,o),
(262,-12,cs),
(392,-12,o),
(442,73,o),
(516,199,cs),
(592,329,o),
(636,399,o),
(746,399,cs),
(850,399,o),
(913,336,o),
(913,227,cs),
(913,122,o),
(855,44,o),
(755,1,c),
(768,-21,l)
);
}
);
vertWidth = 0;
width = 1008;
},
{
layerId = "95BBE91D-E142-4583-9333-40F49FDAAF51";
shapes = (
{
closed = 1;
nodes = (
(879,49,o),
(926,135,o),
(926,232,cs),
(926,350,o),
(855,425,o),
(745,425,cs),
(651,425,o),
(577,371,o),
(466,233,cs),
(387,135,o),
(324,59,o),
(240,59,cs),
(175,59,o),
(139,105,o),
(139,179,cs),
(139,261,o),
(184,334,o),
(236,368,c),
(200,429,l),
(117,376,o),
(59,281,o),
(59,178,cs),
(59,63,o),
(132,-12,o),
(240,-12,cs),
(356,-12,o),
(437,74,o),
(520,179,cs),
(588,264,o),
(654,354,o),
(746,354,cs),
(810,354,o),
(846,310,o),
(846,233,cs),
(846,153,o),
(807,88,o),
(750,45,c),
(786,-17,l)
);
}
);
vertWidth = 0;
width = 985;
},
{
layerId = "3DE82CA6-356F-4113-A2BF-F7F877EAC5C8";
shapes = (
{
closed = 1;
nodes = (
(914,29,o),
(979,123,o),
(979,225,cs),
(979,345,o),
(889,442,o),
(736,442,cs),
(630,442,o),
(557,396,o),
(469,293,cs),
(416,231,o),
(362,151,o),
(297,151,cs),
(260,151,o),
(239,178,o),
(239,214,cs),
(239,258,o),
(268,291,o),
(315,325,c),
(188,447,l),
(116,400,o),
(49,306,o),
(49,205,cs),
(49,85,o),
(143,-12,o),
(292,-12,cs),
(425,-12,o),
(495,66,o),
(579,161,cs),
(642,232,o),
(683,279,o),
(732,279,cs),
(768,279,o),
(789,253,o),
(789,216,cs),
(789,170,o),
(756,136,o),
(713,105,c),
(843,-17,l)
);
}
);
vertWidth = 0;
width = 1028;
}
);
metricLeft = "=uni1513";
metricRight = "=uni1513";
note = uni1515;
unicode = 5397;
}
{
glyphname = uni1525;
layers = (
{
layerId = master01;
shapes = (
{
closed = 1;
nodes = (
(561,435,o),
(605,496,o),
(605,578,cs),
(605,664,o),
(554,720,o),
(476,720,cs),
(393,720,o),
(366,656,o),
(317,563,cs),
(277,487,o),
(244,430,o),
(176,430,cs),
(114,430,o),
(73,477,o),
(73,552,cs),
(73,631,o),
(117,674,o),
(185,705,c),
(176,726,l),
(93,692,o),
(49,631,o),
(49,549,cs),
(49,463,o),
(101,407,o),
(179,407,cs),
(260,407,o),
(292,466,o),
(339,554,cs),
(380,631,o),
(407,697,o),
(479,697,cs),
(540,697,o),
(581,650,o),
(581,578,cs),
(581,507,o),
(542,453,o),
(469,423,c),
(478,401,l)
);
}
);
vertWidth = 0;
width = 654;
},
{
layerId = "95BBE91D-E142-4583-9333-40F49FDAAF51";
shapes = (
{
closed = 1;
nodes = (
(551,420,o),
(586,494,o),
(586,572,cs),
(586,661,o),
(539,721,o),
(464,721,cs),
(400,721,o),
(354,677,o),
(292,583,cs),
(247,515,o),
(204,451,o),
(161,451,cs),
(133,451,o),
(114,478,o),
(114,533,cs),
(114,594,o),
(137,642,o),
(168,673,c),
(130,732,l),
(76,689,o),
(39,613,o),
(39,535,cs),
(39,445,o),
(89,383,o),
(160,383,cs),
(242,383,o),
(297,464,o),
(339,528,cs),
(383,595,o),
(423,654,o),
(465,654,cs),
(496,654,o),
(511,623,o),
(511,574,cs),
(511,514,o),
(489,463,o),
(457,433,c),
(495,373,l)
);
}
);
vertWidth = 0;
width = 625;
},
{
layerId = "3DE82CA6-356F-4113-A2BF-F7F877EAC5C8";
shapes = (
{
closed = 1;
nodes = (
(606,402,o),
(658,465,o),
(658,563,cs),
(658,660,o),
(606,725,o),
(504,725,cs),
(434,725,o),
(397,694,o),
(307,584,cs),
(246,509,o),
(218,467,o),
(182,467,cs),
(160,467,o),
(147,487,o),
(147,518,cs),
(147,567,o),
(172,604,o),
(213,645,c),
(140,725,l),
(79,675,o),
(29,608,o),
(29,517,cs),
(29,420,o),
(86,359,o),
(179,359,cs),
(273,359,o),
(315,421,o),
(375,496,cs),
(459,601,o),
(479,617,o),
(501,617,cs),
(528,617,o),
(540,595,o),
(540,559,cs),
(540,508,o),
(516,471,o),
(478,440,c),
(546,358,l)
);
}
);
vertWidth = 0;
width = 687;
}
);
note = uni1525;
unicode = 5413;
}
{
glyphname = uni1528;
layers = (
{
layerId = master01;
shapes = (
{
closed = 1;
nodes = (
(95,0,l),
(95,272,l),
(510,272,l),
(510,290,l),
(156,726,l),
(135,711,l),
(471,297,l),
(69,297,l),
(69,0,l)
);
}
);
vertWidth = 0;
width = 559;
},
{
layerId = "95BBE91D-E142-4583-9333-40F49FDAAF51";
shapes = (
{
closed = 1;
nodes = (
(137,0,l),
(137,265,l),
(523,265,l),
(523,292,l),
(170,726,l),
(114,682,l),
(397,335,l),
(59,335,l),
(59,0,l)
);
}
);
vertWidth = 0;
width = 562;
},
{
layerId = "3DE82CA6-356F-4113-A2BF-F7F877EAC5C8";
shapes = (
{
closed = 1;
nodes = (
(242,0,l),
(242,220,l),
(589,220,l),
(589,265,l),
(264,726,l),
(119,628,l),
(297,376,l),
(49,376,l),
(49,0,l)
);
}
);
vertWidth = 0;
width = 618;
}
);
note = uni1528;
unicode = 5416;
}
{
glyphname = uni152A;
layers = (
{
layerId = master01;
shapes = (
{
closed = 1;
nodes = (
(424,3,l),
(88,417,l),
(490,417,l),
(490,714,l),
(464,714,l),
(464,442,l),
(49,442,l),
(49,424,l),
(403,-12,l)
);
}
);
vertWidth = 0;
width = 559;
},
{
layerId = "95BBE91D-E142-4583-9333-40F49FDAAF51";
shapes = (
{
closed = 1;
nodes = (
(448,32,l),
(165,378,l),
(503,378,l),
(503,714,l),
(425,714,l),
(425,449,l),
(39,449,l),
(39,422,l),
(392,-12,l)
);
}
);
vertWidth = 0;
width = 562;
},
{
layerId = "3DE82CA6-356F-4113-A2BF-F7F877EAC5C8";
shapes = (
{
closed = 1;
nodes = (
(499,86,l),
(321,338,l),
(569,338,l),
(569,714,l),
(376,714,l),
(376,494,l),
(29,494,l),
(29,449,l),
(354,-12,l)
);
}
);
vertWidth = 0;
width = 618;
}
);
metricLeft = "=uni1526";
metricRight = "=uni1526";
note = uni152A;
unicode = 5418;
}
{
glyphname = uni152D;
layers = (
{
layerId = master01;
shapes = (
{
closed = 1;
nodes = (
(510,424,l),
(510,442,l),
(95,442,l),
(95,714,l),
(69,714,l),
(69,417,l),
(471,417,l),
(135,3,l),
(156,-12,l)
);
}
);
vertWidth = 0;
width = 559;
},
{
layerId = "95BBE91D-E142-4583-9333-40F49FDAAF51";
shapes = (
{
closed = 1;
nodes = (
(523,422,l),
(523,449,l),
(137,449,l),
(137,714,l),
(59,714,l),
(59,378,l),
(397,378,l),
(114,32,l),
(170,-12,l)
);
}
);
vertWidth = 0;
width = 562;
},
{
layerId = "3DE82CA6-356F-4113-A2BF-F7F877EAC5C8";
shapes = (
{
closed = 1;
nodes = (
(589,449,l),
(589,494,l),
(242,494,l),
(242,714,l),
(49,714,l),
(49,338,l),
(297,338,l),
(119,86,l),
(264,-12,l)
);
}
);
vertWidth = 0;
width = 618;
}
);
metricLeft = "=uni1528";
metricRight = "=uni1528";
note = uni152D;
unicode = 5421;
}
{
glyphname = uni153E;
layers = (
{
layerId = master01;
shapes = (
{
closed = 1;
nodes = (
(304,570,l),
(304,582,l),
(83,582,l),
(83,714,l),
(59,714,l),
(59,560,l),
(266,560,l),
(82,340,l),
(100,326,l)
);
}
);
vertWidth = 0;
width = 353;
},
{
layerId = "95BBE91D-E142-4583-9333-40F49FDAAF51";
shapes = (
{
closed = 1;
nodes = (
(305,552,l),
(305,582,l),
(124,582,l),
(124,714,l),
(49,714,l),
(49,514,l),
(179,514,l),
(60,370,l),
(117,326,l)
);
}
);
vertWidth = 0;
width = 344;
},
{
layerId = "3DE82CA6-356F-4113-A2BF-F7F877EAC5C8";
shapes = (
{
closed = 1;
nodes = (
(369,561,l),
(369,589,l),
(157,589,l),
(157,714,l),
(39,714,l),
(39,480,l),
(182,480,l),
(82,340,l),
(170,279,l)
);
}
);
vertWidth = 0;
width = 398;
}
);
note = uni153E;
unicode = 5438;
}
{
glyphname = uni153F;
layers = (
{
layerId = master01;
shapes = (
{
closed = 1;
nodes = (
(69,342,l),
(141,662,l),
(259,342,l),
(264,342,l),
(381,662,l),
(453,342,l),
(473,342,l),
(473,350,l),
(392,714,l),
(377,714,l),
(261,400,l),
(145,714,l),
(130,714,l),
(49,350,l),
(49,342,l)
);
}
);
vertWidth = 0;
width = 522;
},
{
layerId = "95BBE91D-E142-4583-9333-40F49FDAAF51";
shapes = (
{
closed = 1;
nodes = (
(104,342,l),
(152,594,l),
(260,342,l),
(292,342,l),
(397,597,l),
(447,342,l),
(511,342,l),
(511,361,l),
(438,714,l),
(377,714,l),
(277,458,l),
(171,714,l),
(110,714,l),
(39,359,l),
(39,342,l)
);
}
);
vertWidth = 0;
width = 550;
},
{
layerId = "3DE82CA6-356F-4113-A2BF-F7F877EAC5C8";
shapes = (
{
closed = 1;
nodes = (
(133,317,l),
(172,525,l),
(260,316,l),
(321,316,l),
(409,525,l),
(448,317,l),
(552,317,l),
(552,350,l),
(479,714,l),
(389,714,l),
(294,486,l),
(192,714,l),
(102,714,l),
(29,350,l),
(29,317,l)
);
}
);
vertWidth = 0;
width = 581;
}
);
note = uni153F;
unicode = 5439;
}
{
glyphname = uni1540;
layers = (
{
layerId = master01;
shapes = (
{
closed = 1;
nodes = (
(211,205,l),
(211,356,l),
(352,356,l),
(352,378,l),
(211,378,l),
(211,528,l),
(189,528,l),
(189,378,l),
(49,378,l),
(49,356,l),
(189,356,l),
(189,205,l)
);
}
);
vertWidth = 0;
width = 401;
},
{
layerId = "95BBE91D-E142-4583-9333-40F49FDAAF51";
shapes = (
{
closed = 1;
nodes = (
(227,205,l),
(227,333,l),
(339,333,l),
(339,400,l),
(227,400,l),
(227,529,l),
(151,529,l),
(151,400,l),
(39,400,l),
(39,333,l),
(151,333,l),
(151,205,l)
);
}
);
vertWidth = 0;
width = 378;
},
{
layerId = "3DE82CA6-356F-4113-A2BF-F7F877EAC5C8";
shapes = (
{
closed = 1;
nodes = (
(255,202,l),
(255,315,l),
(365,315,l),
(365,421,l),
(255,421,l),
(255,534,l),
(139,534,l),
(139,421,l),
(29,421,l),
(29,315,l),
(139,315,l),
(139,202,l)
);
}
);
vertWidth = 0;
width = 394;
}
);
note = uni1540;
unicode = 5440;
}
{
glyphname = uni1541;
layers = (
{
layerId = master01;
shapes = (
{
closed = 1;
nodes = (
(337,206,l),
(85,528,l),
(56,528,l),
(307,206,l)
);
},
{
closed = 1;
nodes = (
(79,206,l),
(330,528,l),
(301,528,l),
(49,206,l)
);
}
);
vertWidth = 0;
width = 386;
},
{
layerId = "95BBE91D-E142-4583-9333-40F49FDAAF51";
shapes = (
{
closed = 1;
nodes = (
(359,213,l),
(123,536,l),
(39,536,l),
(276,213,l)
);
},
{
closed = 1;
nodes = (
(122,213,l),
(359,536,l),
(275,536,l),
(39,213,l)
);
}
);
vertWidth = 0;
width = 398;
},
{
layerId = "3DE82CA6-356F-4113-A2BF-F7F877EAC5C8";
shapes = (
{
closed = 1;
nodes = (
(412,206,l),
(160,553,l),
(29,553,l),
(281,206,l)
);
},
{
closed = 1;
nodes = (
(160,206,l),
(412,553,l),
(281,553,l),
(29,206,l)
);
}
);
vertWidth = 0;
width = 441;
}
);
note = uni1541;
unicode = 5441;
}
{
glyphname = uni1542;
layers = (
{
layerId = master01;
shapes = (
{
closed = 1;
nodes = (
(484,-10,o),
(592,74,o),
(592,252,cs),
(592,475,l),
(838,475,l),
(838,500,l),
(566,500,l),
(566,244,ls),
(566,92,o),
(472,15,o),
(330,15,cs),
(181,15,o),
(95,96,o),
(95,256,cs),
(95,500,l),
(69,500,l),
(69,254,ls),
(69,81,o),
(164,-10,o),
(329,-10,cs)
);
}
);
vertWidth = 0;
width = 897;
},
{
layerId = "95BBE91D-E142-4583-9333-40F49FDAAF51";
shapes = (
{
closed = 1;
nodes = (
(490,-12,o),
(588,84,o),
(588,243,cs),
(588,430,l),
(846,430,l),
(846,500,l),
(510,500,l),
(510,245,ls),
(510,126,o),
(443,59,o),
(324,59,cs),
(205,59,o),
(137,126,o),
(137,245,cs),
(137,500,l),
(59,500,l),
(59,243,ls),
(59,83,o),
(159,-12,o),
(324,-12,cs)
);
}
);
vertWidth = 0;
width = 895;
},
{
layerId = "3DE82CA6-356F-4113-A2BF-F7F877EAC5C8";
shapes = (
{
closed = 1;
nodes = (
(595,-12,o),
(719,110,o),
(719,311,cs),
(719,361,l),
(937,361,l),
(937,517,l),
(526,517,l),
(526,293,ls),
(526,202,o),
(475,151,o),
(384,151,cs),
(294,151,o),
(242,202,o),
(242,293,cs),
(242,517,l),
(49,517,l),
(49,311,ls),
(49,109,o),
(176,-12,o),
(385,-12,cs)
);
}
);
vertWidth = 0;
width = 976;
}
);
note = uni1542;
unicode = 5442;
}
{
glyphname = uni1543;
layers = (
{
layerId = master01;
shapes = (
{
closed = 1;
nodes = (
(733,-10,o),
(828,81,o),
(828,254,cs),
(828,500,l),
(802,500,l),
(802,256,ls),
(802,96,o),
(716,15,o),
(567,15,cs),
(425,15,o),
(331,92,o),
(331,244,cs),
(331,500,l),
(59,500,l),
(59,475,l),
(305,475,l),
(305,252,ls),
(305,74,o),
(413,-10,o),
(568,-10,cs)
);
}
);
vertWidth = 0;
width = 897;
},
{
layerId = "95BBE91D-E142-4583-9333-40F49FDAAF51";
shapes = (
{
closed = 1;
nodes = (
(737,-12,o),
(836,83,o),
(836,243,cs),
(836,500,l),
(758,500,l),
(758,245,ls),
(758,126,o),
(690,59,o),
(571,59,cs),
(452,59,o),
(384,126,o),
(384,245,cs),
(384,500,l),
(49,500,l),
(49,430,l),
(306,430,l),
(306,243,ls),
(306,84,o),
(405,-12,o),
(571,-12,cs)
);
}
);
vertWidth = 0;
width = 895;
},
{
layerId = "3DE82CA6-356F-4113-A2BF-F7F877EAC5C8";
shapes = (
{
closed = 1;
nodes = (
(800,-12,o),
(927,109,o),
(927,311,cs),
(927,517,l),
(734,517,l),
(734,293,ls),
(734,202,o),
(682,151,o),
(592,151,cs),
(501,151,o),
(450,202,o),
(450,293,cs),
(450,517,l),
(39,517,l),
(39,361,l),
(257,361,l),
(257,311,ls),
(257,110,o),
(381,-12,o),
(591,-12,cs)
);
}
);
vertWidth = 0;
width = 976;
}
);
note = uni1543;
unicode = 5443;
}
{
glyphname = uni1544;
layers = (
{
layerId = master01;
shapes = (
{
closed = 1;
nodes = (
(331,0,l),
(331,259,ls),
(331,411,o),
(425,488,o),
(567,488,cs),
(716,488,o),
(802,407,o),
(802,247,cs),
(802,0,l),
(828,0,l),
(828,249,ls),
(828,422,o),
(733,513,o),
(568,513,cs),
(413,513,o),
(305,429,o),
(305,251,cs),
(305,25,l),
(59,25,l),
(59,0,l)
);
}
);
vertWidth = 0;
width = 897;
},
{
layerId = "95BBE91D-E142-4583-9333-40F49FDAAF51";
shapes = (
{
closed = 1;
nodes = (
(384,0,l),
(384,256,ls),
(384,375,o),
(452,442,o),
(571,442,cs),
(690,442,o),
(758,375,o),
(758,256,cs),
(758,0,l),
(836,0,l),
(836,257,ls),
(836,418,o),
(735,513,o),
(571,513,cs),
(405,513,o),
(306,416,o),
(306,258,cs),
(306,71,l),
(49,71,l),
(49,0,l)
);
}
);
vertWidth = 0;
width = 895;
},
{
layerId = "3DE82CA6-356F-4113-A2BF-F7F877EAC5C8";
shapes = (
{
closed = 1;
nodes = (
(450,0,l),
(450,224,ls),
(450,315,o),
(501,366,o),
(592,366,cs),
(682,366,o),
(734,315,o),
(734,224,cs),
(734,0,l),
(927,0,l),
(927,206,ls),
(927,408,o),
(800,529,o),
(591,529,cs),
(381,529,o),
(257,407,o),
(257,206,cs),
(257,156,l),
(39,156,l),
(39,0,l)
);
}
);
vertWidth = 0;
width = 976;
}
);
metricLeft = "=uni1543";
metricRight = "=uni1543";
note = uni1544;
unicode = 5444;
}
{
glyphname = uni1546;
layers = (
{
layerId = master01;
shapes = (
{
closed = 1;
nodes = (
(95,0,l),
(95,247,ls),
(95,407,o),
(181,488,o),
(330,488,cs),
(472,488,o),
(566,411,o),
(566,259,cs),
(566,0,l),
(838,0,l),
(838,25,l),
(592,25,l),
(592,251,ls),
(592,429,o),
(484,513,o),
(329,513,cs),
(164,513,o),
(69,422,o),
(69,249,cs),
(69,0,l)
);
}
);
vertWidth = 0;
width = 897;
},
{
layerId = "95BBE91D-E142-4583-9333-40F49FDAAF51";
shapes = (
{
closed = 1;
nodes = (
(137,0,l),
(137,256,ls),
(137,375,o),
(205,442,o),
(324,442,cs),
(443,442,o),
(510,375,o),
(510,256,cs),
(510,0,l),
(846,0,l),
(846,71,l),
(588,71,l),
(588,258,ls),
(588,416,o),
(490,513,o),
(324,513,cs),
(158,513,o),
(59,417,o),
(59,257,cs),
(59,0,l)
);
}
);
vertWidth = 0;
width = 895;
},
{
layerId = "3DE82CA6-356F-4113-A2BF-F7F877EAC5C8";
shapes = (
{
closed = 1;
nodes = (
(242,0,l),
(242,224,ls),
(242,315,o),
(294,366,o),
(384,366,cs),
(475,366,o),
(526,315,o),
(526,224,cs),
(526,0,l),
(937,0,l),
(937,156,l),
(719,156,l),
(719,206,ls),
(719,407,o),
(595,529,o),
(385,529,cs),
(176,529,o),
(49,408,o),
(49,206,cs),
(49,0,l)
);
}
);
vertWidth = 0;
width = 976;
}
);
metricLeft = "=uni1542";
metricRight = "=uni1542";
note = uni1546;
unicode = 5446;
}
{
glyphname = uni1548;
layers = (
{
layerId = master01;
shapes = (
{
closed = 1;
nodes = (
(105,0,l),
(105,254,l),
(286,254,ls),
(433,254,o),
(533,329,o),
(533,484,cs),
(533,639,o),
(433,714,o),
(286,714,cs),
(79,714,l),
(79,689,l),
(286,689,ls),
(419,689,o),
(506,625,o),
(506,484,cs),
(506,343,o),
(419,279,o),
(286,279,cs),
(79,279,l),
(79,0,l)
);
}
);
vertWidth = 0;
width = 592;
},
{
layerId = "95BBE91D-E142-4583-9333-40F49FDAAF51";
shapes = (
{
closed = 1;
nodes = (
(146,0,l),
(146,254,l),
(290,254,ls),
(444,254,o),
(533,338,o),
(533,483,cs),
(533,632,o),
(444,714,o),
(290,714,cs),
(68,714,l),
(68,643,l),
(280,643,ls),
(397,643,o),
(455,590,o),
(455,483,cs),
(455,379,o),
(396,325,o),
(280,325,cs),
(68,325,l),
(68,0,l)
);
}
);
vertWidth = 0;
width = 582;
},
{
layerId = "3DE82CA6-356F-4113-A2BF-F7F877EAC5C8";
shapes = (
{
closed = 1;
nodes = (
(252,1,l),
(252,197,l),
(314,197,ls),
(487,197,o),
(587,291,o),
(587,454,cs),
(587,622,o),
(487,714,o),
(314,714,cs),
(59,714,l),
(59,558,l),
(284,558,ls),
(358,558,o),
(399,524,o),
(399,455,cs),
(399,388,o),
(357,353,o),
(284,353,cs),
(59,353,l),
(59,1,l)
);
}
);
vertWidth = 0;
width = 626;
}
);
note = uni1548;
unicode = 5448;
}
{
glyphname = uni154A;
layers = (
{
layerId = master01;
shapes = (
{
closed = 1;
nodes = (
(286,0,ls),
(433,0,o),
(533,75,o),
(533,230,cs),
(533,385,o),
(433,460,o),
(286,460,cs),
(105,460,l),
(105,714,l),
(79,714,l),
(79,435,l),
(286,435,ls),
(419,435,o),
(506,371,o),
(506,230,cs),
(506,89,o),
(419,25,o),
(286,25,cs),
(79,25,l),
(79,0,l)
);
}
);
vertWidth = 0;
width = 592;
},
{
layerId = "95BBE91D-E142-4583-9333-40F49FDAAF51";
shapes = (
{
closed = 1;
nodes = (
(290,0,ls),
(444,0,o),
(533,83,o),
(533,231,cs),
(533,375,o),
(444,460,o),
(290,460,cs),
(146,460,l),
(146,714,l),
(68,714,l),
(68,389,l),
(280,389,ls),
(396,389,o),
(455,334,o),
(455,231,cs),
(455,124,o),
(397,71,o),
(280,71,cs),
(68,71,l),
(68,0,l)
);
}
);
vertWidth = 0;
width = 582;
},
{
layerId = "3DE82CA6-356F-4113-A2BF-F7F877EAC5C8";
shapes = (
{
closed = 1;
nodes = (
(314,0,ls),
(487,0,o),
(587,92,o),
(587,260,cs),
(587,423,o),
(487,517,o),
(314,517,cs),
(252,517,l),
(252,713,l),
(59,713,l),
(59,361,l),
(284,361,ls),
(357,361,o),
(399,326,o),
(399,259,cs),
(399,190,o),
(358,156,o),
(284,156,cs),
(59,156,l),
(59,0,l)
);
}
);
vertWidth = 0;
width = 626;
}
);
metricLeft = "=uni1548";
metricRight = "=uni1548";
note = uni154A;
unicode = 5450;
}
{
glyphname = uni154B;
layers = (
{
layerId = master01;
shapes = (
{
closed = 1;
nodes = (
(513,0,l),
(513,279,l),
(306,279,ls),
(173,279,o),
(86,343,o),
(86,484,cs),
(86,625,o),
(173,689,o),
(306,689,cs),
(513,689,l),
(513,714,l),
(306,714,ls),
(159,714,o),
(59,639,o),
(59,484,cs),
(59,329,o),
(159,254,o),
(306,254,cs),
(487,254,l),
(487,0,l)
);
}
);
vertWidth = 0;
width = 592;
},
{
layerId = "95BBE91D-E142-4583-9333-40F49FDAAF51";
shapes = (
{
closed = 1;
nodes = (
(514,0,l),
(514,325,l),
(302,325,ls),
(186,325,o),
(127,379,o),
(127,483,cs),
(127,590,o),
(185,643,o),
(302,643,cs),
(514,643,l),
(514,714,l),
(292,714,ls),
(138,714,o),
(49,631,o),
(49,483,cs),
(49,338,o),
(138,254,o),
(292,254,cs),
(436,254,l),
(436,0,l)
);
}
);
vertWidth = 0;
width = 583;
},
{
layerId = "3DE82CA6-356F-4113-A2BF-F7F877EAC5C8";
shapes = (
{
closed = 1;
nodes = (
(567,0,l),
(567,352,l),
(342,352,ls),
(269,352,o),
(227,387,o),
(227,454,cs),
(227,523,o),
(268,557,o),
(342,557,cs),
(567,557,l),
(567,713,l),
(312,713,ls),
(139,713,o),
(39,621,o),
(39,453,cs),
(39,290,o),
(139,196,o),
(312,196,cs),
(374,196,l),
(374,0,l)
);
}
);
vertWidth = 0;
width = 626;
}
);
note = uni154B;
unicode = 5451;
}
{
glyphname = uni154D;
layers = (
{
layerId = master01;
shapes = (
{
closed = 1;
nodes = (
(513,0,l),
(513,25,l),
(306,25,ls),
(173,25,o),
(86,89,o),
(86,230,cs),
(86,371,o),
(173,435,o),
(306,435,cs),
(513,435,l),
(513,714,l),
(487,714,l),
(487,460,l),
(306,460,ls),
(159,460,o),
(59,385,o),
(59,230,cs),
(59,75,o),
(159,0,o),
(306,0,cs)
);
}
);
vertWidth = 0;
width = 592;
},
{
layerId = "95BBE91D-E142-4583-9333-40F49FDAAF51";
shapes = (
{
closed = 1;
nodes = (
(514,0,l),
(514,71,l),
(302,71,ls),
(185,71,o),
(127,124,o),
(127,231,cs),
(127,334,o),
(186,389,o),
(302,389,cs),
(514,389,l),
(514,714,l),
(436,714,l),
(436,460,l),
(292,460,ls),
(138,460,o),
(49,376,o),
(49,231,cs),
(49,82,o),
(138,0,o),
(292,0,cs)
);
}
);
vertWidth = 0;
width = 583;
},
{
layerId = "3DE82CA6-356F-4113-A2BF-F7F877EAC5C8";
shapes = (
{
closed = 1;
nodes = (
(567,0,l),
(567,156,l),
(342,156,ls),
(268,156,o),
(227,190,o),
(227,259,cs),
(227,326,o),
(269,361,o),
(342,361,cs),
(567,361,l),
(567,713,l),
(374,713,l),
(374,517,l),
(312,517,ls),
(139,517,o),
(39,423,o),
(39,260,cs),
(39,92,o),
(139,0,o),
(312,0,cs)
);
}
);
vertWidth = 0;
width = 626;
}
);
metricLeft = "=uni154B";
metricRight = "=uni154B";
note = uni154D;
unicode = 5453;
}
{
glyphname = uni1550;
layers = (
{
layerId = master01;
shapes = (
{
closed = 1;
nodes = (
(295,342,l),
(295,488,l),
(197,488,ls),
(127,488,o),
(74,514,o),
(74,590,cs),
(74,666,o),
(127,692,o),
(197,692,cs),
(295,692,l),
(295,714,l),
(197,714,ls),
(112,714,o),
(49,673,o),
(49,590,cs),
(49,507,o),
(112,466,o),
(197,466,cs),
(271,466,l),
(271,342,l)
);
}
);
vertWidth = 0;
width = 354;
},
{
layerId = "95BBE91D-E142-4583-9333-40F49FDAAF51";
shapes = (
{
closed = 1;
nodes = (
(291,342,l),
(291,533,l),
(199,533,ls),
(128,533,o),
(114,552,o),
(114,590,cs),
(114,627,o),
(131,646,o),
(199,646,cs),
(291,646,l),
(291,714,l),
(190,714,ls),
(95,714,o),
(39,669,o),
(39,590,cs),
(39,508,o),
(94,466,o),
(190,466,cs),
(216,466,l),
(216,342,l)
);
}
);
vertWidth = 0;
width = 340;
},
{
layerId = "3DE82CA6-356F-4113-A2BF-F7F877EAC5C8";
shapes = (
{
closed = 1;
nodes = (
(352,317,l),
(352,509,l),
(226,509,ls),
(161,509,o),
(147,528,o),
(147,558,cs),
(147,587,o),
(164,606,o),
(226,606,cs),
(352,606,l),
(352,714,l),
(223,714,ls),
(105,714,o),
(29,654,o),
(29,557,cs),
(29,457,o),
(103,401,o),
(223,401,cs),
(234,401,l),
(234,317,l)
);
}
);
vertWidth = 0;
width = 391;
}
);
note = uni1550;
unicode = 5456;
}
{
glyphname = uni1551;
layers = (
{
layerId = master01;
shapes = (
{
closed = 1;
nodes = (
(54,322,l),
(319,426,l),
(319,442,l),
(93,524,l),
(319,605,l),
(319,621,l),
(54,725,l),
(49,725,l),
(49,704,l),
(280,614,l),
(49,531,l),
(49,516,l),
(280,434,l),
(49,343,l),
(49,322,l)
);
}
);
vertWidth = 0;
width = 398;
},
{
layerId = "95BBE91D-E142-4583-9333-40F49FDAAF51";
shapes = (
{
closed = 1;
nodes = (
(53,315,l),
(319,408,l),
(319,459,l),
(143,523,l),
(319,585,l),
(319,637,l),
(54,726,l),
(39,726,l),
(39,669,l),
(230,611,l),
(39,549,l),
(39,499,l),
(230,432,l),
(39,373,l),
(39,315,l)
);
}
);
vertWidth = 0;
width = 388;
},
{
layerId = "3DE82CA6-356F-4113-A2BF-F7F877EAC5C8";
shapes = (
{
closed = 1;
nodes = (
(56,289,l),
(357,391,l),
(357,450,l),
(204,508,l),
(357,565,l),
(357,623,l),
(56,725,l),
(30,725,l),
(30,632,l),
(187,584,l),
(29,531,l),
(29,482,l),
(187,430,l),
(30,382,l),
(30,289,l)
);
}
);
vertWidth = 0;
width = 386;
}
);
note = uni1551;
unicode = 5457;
}
{
glyphname = uni1552;
layers = (
{
layerId = master01;
shapes = (
{
closed = 1;
nodes = (
(76,-12,l),
(550,167,l),
(550,191,l),
(103,357,l),
(550,523,l),
(550,547,l),
(76,726,l),
(69,726,l),
(69,701,l),
(511,535,l),
(69,370,l),
(69,344,l),
(511,179,l),
(69,13,l),
(69,-12,l)
);
}
);
vertWidth = 0;
width = 629;
},
{
layerId = "95BBE91D-E142-4583-9333-40F49FDAAF51";
shapes = (
{
closed = 1;
nodes = (
(68,-12,l),
(560,153,l),
(560,228,l),
(199,357,l),
(560,486,l),
(560,561,l),
(68,726,l),
(59,726,l),
(59,649,l),
(457,521,l),
(59,379,l),
(59,335,l),
(457,193,l),
(59,64,l),
(59,-12,l)
);
}
);
vertWidth = 0;
width = 618;
},
{
layerId = "3DE82CA6-356F-4113-A2BF-F7F877EAC5C8";
shapes = (
{
closed = 1;
nodes = (
(95,-12,l),
(604,160,l),
(604,258,l),
(328,357,l),
(604,455,l),
(604,553,l),
(95,725,l),
(50,725,l),
(50,586,l),
(333,488,l),
(49,390,l),
(49,323,l),
(333,225,l),
(50,127,l),
(50,-12,l)
);
}
);
vertWidth = 0;
width = 653;
}
);
note = uni1552;
unicode = 5458;
}
{
glyphname = uni1553;
layers = (
{
layerId = master01;
shapes = (
{
closed = 1;
nodes = (
(353,-12,l),
(714,704,l),
(714,714,l),
(692,714,l),
(344,22,l),
(164,369,ls),
(126,443,o),
(96,491,o),
(96,549,cs),
(96,634,o),
(162,702,o),
(248,702,cs),
(333,702,o),
(401,635,o),
(401,547,cs),
(401,482,o),
(365,381,o),
(186,381,cs),
(148,381,l),
(148,357,l),
(186,357,ls),
(357,357,o),
(426,451,o),
(426,546,cs),
(426,647,o),
(346,726,o),
(247,726,cs),
(149,726,o),
(69,648,o),
(69,544,cs),
(69,481,o),
(98,436,o),
(142,353,cs),
(335,-12,l)
);
}
);
vertWidth = 0;
width = 763;
},
{
layerId = "95BBE91D-E142-4583-9333-40F49FDAAF51";
shapes = (
{
closed = 1;
nodes = (
(365,-12,l),
(749,704,l),
(749,714,l),
(669,714,l),
(352,125,l),
(187,406,ls),
(152,465,o),
(137,511,o),
(137,550,cs),
(137,613,o),
(177,655,o),
(243,655,cs),
(308,655,o),
(350,614,o),
(350,546,cs),
(350,462,o),
(287,424,o),
(180,424,cs),
(153,424,l),
(153,353,l),
(185,353,ls),
(343,353,o),
(428,428,o),
(428,543,cs),
(428,647,o),
(359,726,o),
(242,726,cs),
(127,726,o),
(59,650,o),
(59,549,cs),
(59,485,o),
(86,431,o),
(128,360,cs),
(346,-12,l)
);
}
);
vertWidth = 0;
width = 788;
},
{
layerId = "3DE82CA6-356F-4113-A2BF-F7F877EAC5C8";
shapes = (
{
closed = 1;
nodes = (
(423,-12,l),
(791,669,l),
(791,714,l),
(621,714,l),
(386,263,l),
(260,452,ls),
(242,479,o),
(203,522,o),
(203,565,cs),
(203,598,o),
(226,617,o),
(250,617,cs),
(275,617,o),
(302,596,o),
(302,555,cs),
(302,514,o),
(274,461,o),
(194,461,cs),
(162,461,l),
(162,363,l),
(194,363,ls),
(352,363,o),
(447,439,o),
(447,554,cs),
(447,658,o),
(369,726,o),
(250,726,cs),
(126,726,o),
(49,653,o),
(49,556,cs),
(49,484,o),
(92,412,o),
(147,330,cs),
(378,-12,l)
);
}
);
vertWidth = 0;
width = 820;
}
);
note = uni1553;
unicode = 5459;
}
{
glyphname = uni1555;
layers = (
{
layerId = master01;
shapes = (
{
closed = 1;
nodes = (
(346,-12,o),
(426,67,o),
(426,168,cs),
(426,263,o),
(357,357,o),
(186,357,cs),
(148,357,l),
(148,333,l),
(186,333,ls),
(365,333,o),
(401,232,o),
(401,167,cs),
(401,79,o),
(333,12,o),
(248,12,cs),
(162,12,o),
(96,80,o),
(96,165,cs),
(96,223,o),
(126,271,o),
(164,345,cs),
(344,692,l),
(692,0,l),
(714,0,l),
(714,10,l),
(353,726,l),
(335,726,l),
(142,361,ls),
(98,278,o),
(69,233,o),
(69,170,cs),
(69,66,o),
(149,-12,o),
(247,-12,cs)
);
}
);
vertWidth = 0;
width = 763;
},
{
layerId = "95BBE91D-E142-4583-9333-40F49FDAAF51";
shapes = (
{
closed = 1;
nodes = (
(359,-12,o),
(428,67,o),
(428,171,cs),
(428,286,o),
(343,361,o),
(185,361,cs),
(153,361,l),
(153,290,l),
(180,290,ls),
(287,290,o),
(350,252,o),
(350,168,cs),
(350,100,o),
(308,59,o),
(243,59,cs),
(177,59,o),
(137,101,o),
(137,164,cs),
(137,203,o),
(152,249,o),
(187,308,cs),
(352,589,l),
(669,0,l),
(749,0,l),
(749,10,l),
(365,726,l),
(346,726,l),
(128,354,ls),
(86,283,o),
(59,229,o),
(59,165,cs),
(59,64,o),
(127,-12,o),
(242,-12,cs)
);
}
);
vertWidth = 0;
width = 788;
},
{
layerId = "3DE82CA6-356F-4113-A2BF-F7F877EAC5C8";
shapes = (
{
closed = 1;
nodes = (
(369,-12,o),
(447,56,o),
(447,160,cs),
(447,275,o),
(352,351,o),
(194,351,cs),
(162,351,l),
(162,253,l),
(194,253,ls),
(274,253,o),
(302,200,o),
(302,159,cs),
(302,118,o),
(275,97,o),
(250,97,cs),
(226,97,o),
(203,116,o),
(203,150,cs),
(203,191,o),
(241,234,o),
(260,262,cs),
(386,451,l),
(621,0,l),
(791,0,l),
(791,45,l),
(423,726,l),
(378,726,l),
(147,384,ls),
(92,302,o),
(49,230,o),
(49,158,cs),
(49,61,o),
(126,-12,o),
(250,-12,cs)
);
}
);
vertWidth = 0;
width = 820;
}
);
metricLeft = "=uni1553";
metricRight = "=uni1553";
note = uni1555;
unicode = 5461;
}
{
glyphname = uni1557;
layers = (
{
layerId = master01;
shapes = (
{
closed = 1;
nodes = (
(85,-12,l),
(732,409,l),
(732,423,l),
(427,650,ls),
(351,707,o),
(310,726,o),
(252,726,cs),
(128,726,o),
(59,637,o),
(59,544,cs),
(59,443,o),
(139,362,o),
(243,362,cs),
(340,362,o),
(427,432,o),
(427,594,cs),
(427,638,l),
(402,651,l),
(402,594,ls),
(402,445,o),
(327,386,o),
(244,386,cs),
(153,386,o),
(86,457,o),
(86,544,cs),
(86,622,o),
(140,702,o),
(251,702,cs),
(307,702,o),
(348,682,o),
(415,631,cs),
(699,417,l),
(75,10,l),
(75,-12,l)
);
}
);
vertWidth = 0;
width = 781;
},
{
layerId = "95BBE91D-E142-4583-9333-40F49FDAAF51";
shapes = (
{
closed = 1;
nodes = (
(76,-12,l),
(758,405,l),
(758,424,l),
(420,654,ls),
(342,706,o),
(286,726,o),
(233,726,cs),
(123,726,o),
(49,658,o),
(49,545,cs),
(49,429,o),
(119,361,o),
(237,361,cs),
(352,361,o),
(430,437,o),
(430,597,cs),
(430,630,l),
(354,630,l),
(354,609,ls),
(354,497,o),
(315,432,o),
(234,432,cs),
(169,432,o),
(127,477,o),
(127,543,cs),
(127,614,o),
(165,655,o),
(233,655,cs),
(277,655,o),
(328,636,o),
(387,592,c),
(633,423,l),
(66,67,l),
(66,-12,l)
);
}
);
vertWidth = 0;
width = 797;
},
{
layerId = "3DE82CA6-356F-4113-A2BF-F7F877EAC5C8";
shapes = (
{
closed = 1;
nodes = (
(130,-10,l),
(779,367,l),
(779,412,l),
(475,626,ls),
(380,693,o),
(334,724,o),
(240,724,cs),
(127,724,o),
(39,647,o),
(39,527,cs),
(39,409,o),
(125,329,o),
(240,329,cs),
(383,329,o),
(443,443,o),
(443,582,cs),
(443,592,l),
(325,592,l),
(325,568,ls),
(325,502,o),
(299,460,o),
(253,460,cs),
(211,460,o),
(190,490,o),
(190,523,cs),
(190,559,o),
(210,588,o),
(253,588,cs),
(290,588,o),
(316,566,o),
(334,553,cs),
(538,411,l),
(85,148,l),
(85,-10,l)
);
}
);
vertWidth = 0;
width = 808;
}
);
note = uni1557;
unicode = 5463;
}
{
glyphname = uni1559;
layers = (
{
layerId = master01;
shapes = (
{
closed = 1;
nodes = (
(706,-12,l),
(706,10,l),
(82,417,l),
(366,631,ls),
(433,682,o),
(474,702,o),
(530,702,cs),
(641,702,o),
(695,622,o),
(695,544,cs),
(695,457,o),
(628,386,o),
(537,386,cs),
(454,386,o),
(379,445,o),
(379,594,cs),
(379,651,l),
(354,638,l),
(354,594,ls),
(354,432,o),
(441,362,o),
(538,362,cs),
(642,362,o),
(722,443,o),
(722,544,cs),
(722,637,o),
(653,726,o),
(529,726,cs),
(471,726,o),
(430,707,o),
(354,650,cs),
(49,423,l),
(49,409,l),
(696,-12,l)
);
}
);
vertWidth = 0;
width = 781;
},
{
layerId = "95BBE91D-E142-4583-9333-40F49FDAAF51";
shapes = (
{
closed = 1;
nodes = (
(731,-12,l),
(731,67,l),
(164,423,l),
(410,592,l),
(469,636,o),
(520,655,o),
(564,655,cs),
(632,655,o),
(670,614,o),
(670,543,cs),
(670,477,o),
(628,432,o),
(563,432,cs),
(482,432,o),
(443,497,o),
(443,609,cs),
(443,635,l),
(367,635,l),
(367,597,ls),
(367,437,o),
(445,361,o),
(560,361,cs),
(678,361,o),
(748,429,o),
(748,545,cs),
(748,658,o),
(674,726,o),
(564,726,cs),
(511,726,o),
(454,707,o),
(377,654,cs),
(39,424,l),
(39,405,l),
(721,-12,l)
);
}
);
vertWidth = 0;
width = 797;
},
{
layerId = "3DE82CA6-356F-4113-A2BF-F7F877EAC5C8";
shapes = (
{
closed = 1;
nodes = (
(723,-10,l),
(723,148,l),
(270,411,l),
(474,553,ls),
(492,566,o),
(518,588,o),
(555,588,cs),
(598,588,o),
(618,559,o),
(618,523,cs),
(618,490,o),
(597,460,o),
(555,460,cs),
(509,460,o),
(483,502,o),
(483,568,cs),
(483,592,l),
(365,592,l),
(365,582,ls),
(365,443,o),
(425,329,o),
(568,329,cs),
(683,329,o),
(769,409,o),
(769,527,cs),
(769,647,o),
(681,724,o),
(568,724,cs),
(474,724,o),
(428,693,o),
(333,626,cs),
(29,412,l),
(29,367,l),
(678,-10,l)
);
}
);
vertWidth = 0;
width = 808;
}
);
note = uni1559;
unicode = 5465;
}
{
glyphname = uni155D;
layers = (
{
layerId = master01;
shapes = (
{
closed = 1;
nodes = (
(465,317,l),
(465,335,l),
(80,530,l),
(263,657,ls),
(310,690,o),
(347,705,o),
(380,705,cs),
(433,705,o),
(473,664,o),
(473,612,cs),
(473,561,o),
(433,520,o),
(383,520,cs),
(336,520,o),
(289,555,o),
(289,648,cs),
(289,691,l),
(266,675,l),
(266,641,ls),
(266,540,o),
(325,499,o),
(383,499,cs),
(447,499,o),
(497,549,o),
(497,612,cs),
(497,676,o),
(447,726,o),
(381,726,cs),
(337,726,o),
(297,704,o),
(262,680,cs),
(49,535,l),
(49,523,l),
(455,317,l)
);
}
);
vertWidth = 0;
width = 546;
},
{
layerId = "95BBE91D-E142-4583-9333-40F49FDAAF51";
shapes = (
{
closed = 1;
nodes = (
(449,315,l),
(449,381,l),
(150,531,l),
(298,633,ls),
(323,650,o),
(342,660,o),
(365,660,cs),
(394,660,o),
(411,643,o),
(411,614,cs),
(411,589,o),
(393,569,o),
(365,569,cs),
(329,569,o),
(313,598,o),
(313,658,cs),
(313,669,l),
(246,639,l),
(246,636,ls),
(246,562,o),
(290,503,o),
(364,503,cs),
(427,503,o),
(482,553,o),
(482,615,cs),
(482,680,o),
(430,726,o),
(365,726,cs),
(332,726,o),
(290,710,o),
(255,685,cs),
(39,531,l),
(39,515,l),
(430,315,l)
);
}
);
vertWidth = 0;
width = 521;
},
{
layerId = "3DE82CA6-356F-4113-A2BF-F7F877EAC5C8";
shapes = (
{
closed = 1;
nodes = (
(454,277,l),
(454,391,l),
(186,535,l),
(312,629,ls),
(323,637,o),
(336,642,o),
(351,642,cs),
(379,642,o),
(390,629,o),
(390,604,cs),
(390,580,o),
(378,562,o),
(351,562,cs),
(320,562,o),
(308,584,o),
(308,631,cs),
(308,654,l),
(234,654,l),
(234,613,ls),
(234,555,o),
(274,484,o),
(359,484,cs),
(429,484,o),
(481,533,o),
(481,606,cs),
(481,679,o),
(428,726,o),
(350,726,cs),
(301,726,o),
(274,706,o),
(215,667,cs),
(29,545,l),
(29,508,l),
(426,277,l)
);
}
);
vertWidth = 0;
width = 510;
}
);
note = uni155D;
unicode = 5469;
}
{
glyphname = uni155E;
layers = (
{
layerId = master01;
shapes = (
{
closed = 1;
nodes = (
(589,-12,o),
(680,120,o),
(680,338,cs),
(680,714,l),
(654,714,l),
(654,338,ls),
(654,135,o),
(576,13,o),
(381,13,cs),
(185,13,o),
(105,136,o),
(105,339,cs),
(105,488,ls),
(105,600,o),
(150,702,o),
(262,702,cs),
(350,702,o),
(395,639,o),
(395,550,cs),
(395,439,o),
(324,377,o),
(159,377,cs),
(100,377,l),
(100,353,l),
(159,353,ls),
(334,353,o),
(421,420,o),
(421,550,cs),
(421,654,o),
(365,726,o),
(261,726,cs),
(124,726,o),
(79,601,o),
(79,488,cs),
(79,339,ls),
(79,122,o),
(170,-12,o),
(380,-12,cs)
);
}
);
vertWidth = 0;
width = 759;
},
{
layerId = "95BBE91D-E142-4583-9333-40F49FDAAF51";
shapes = (
{
closed = 1;
nodes = (
(630,-12,o),
(697,123,o),
(697,388,cs),
(697,714,l),
(619,714,l),
(619,393,ls),
(619,176,o),
(584,59,o),
(383,59,cs),
(194,59,o),
(146,163,o),
(146,374,cs),
(146,449,ls),
(146,564,o),
(155,655,o),
(252,655,cs),
(313,655,o),
(352,619,o),
(352,547,cs),
(352,462,o),
(297,422,o),
(178,422,cs),
(130,422,l),
(130,352,l),
(182,352,ls),
(346,352,o),
(430,422,o),
(430,548,cs),
(430,662,o),
(361,726,o),
(252,726,cs),
(129,726,o),
(68,644,o),
(68,460,cs),
(68,388,ls),
(68,126,o),
(134,-12,o),
(383,-12,cs)
);
}
);
vertWidth = 0;
width = 766;
},
{
layerId = "3DE82CA6-356F-4113-A2BF-F7F877EAC5C8";
shapes = (
{
closed = 1;
nodes = (
(661,-12,o),
(734,132,o),
(734,415,cs),
(734,714,l),
(541,714,l),
(541,353,ls),
(541,223,o),
(518,151,o),
(397,151,cs),
(283,151,o),
(248,214,o),
(248,341,cs),
(248,495,ls),
(248,573,o),
(266,596,o),
(304,596,cs),
(335,596,o),
(356,582,o),
(356,523,cs),
(356,472,o),
(335,441,o),
(273,441,cs),
(184,441,l),
(184,311,l),
(273,311,ls),
(403,311,o),
(499,375,o),
(499,519,cs),
(499,646,o),
(424,726,o),
(292,726,cs),
(160,726,o),
(59,645,o),
(59,478,cs),
(59,415,ls),
(59,135,o),
(131,-12,o),
(397,-12,cs)
);
}
);
vertWidth = 0;
width = 793;
}
);
note = uni155E;
unicode = 5470;
}
{
glyphname = uni155F;
layers = (
{
layerId = master01;
shapes = (
{
closed = 1;
nodes = (
(589,-12,o),
(680,122,o),
(680,339,cs),
(680,488,ls),
(680,601,o),
(635,726,o),
(498,726,cs),
(394,726,o),
(338,654,o),
(338,550,cs),
(338,420,o),
(425,353,o),
(600,353,cs),
(659,353,l),
(659,377,l),
(600,377,ls),
(435,377,o),
(364,439,o),
(364,550,cs),
(364,639,o),
(409,702,o),
(497,702,cs),
(609,702,o),
(654,600,o),
(654,488,cs),
(654,339,ls),
(654,136,o),
(574,13,o),
(378,13,cs),
(183,13,o),
(105,135,o),
(105,338,cs),
(105,714,l),
(79,714,l),
(79,338,ls),
(79,120,o),
(170,-12,o),
(379,-12,cs)
);
}
);
vertWidth = 0;
width = 759;
},
{
layerId = "95BBE91D-E142-4583-9333-40F49FDAAF51";
shapes = (
{
closed = 1;
nodes = (
(631,-12,o),
(697,126,o),
(697,388,cs),
(697,460,ls),
(697,644,o),
(636,726,o),
(513,726,cs),
(404,726,o),
(335,662,o),
(335,548,cs),
(335,422,o),
(419,352,o),
(583,352,cs),
(635,352,l),
(635,422,l),
(587,422,ls),
(468,422,o),
(413,462,o),
(413,547,cs),
(413,619,o),
(452,655,o),
(513,655,cs),
(610,655,o),
(619,564,o),
(619,449,cs),
(619,374,ls),
(619,163,o),
(571,59,o),
(382,59,cs),
(181,59,o),
(146,176,o),
(146,393,cs),
(146,714,l),
(68,714,l),
(68,388,ls),
(68,123,o),
(135,-12,o),
(382,-12,cs)
);
}
);
vertWidth = 0;
width = 766;
},
{
layerId = "3DE82CA6-356F-4113-A2BF-F7F877EAC5C8";
shapes = (
{
closed = 1;
nodes = (
(662,-12,o),
(734,135,o),
(734,415,cs),
(734,478,ls),
(734,645,o),
(633,726,o),
(501,726,cs),
(369,726,o),
(294,646,o),
(294,519,cs),
(294,375,o),
(390,311,o),
(520,311,cs),
(609,311,l),
(609,441,l),
(520,441,ls),
(458,441,o),
(437,472,o),
(437,523,cs),
(437,582,o),
(458,596,o),
(489,596,cs),
(527,596,o),
(545,573,o),
(545,495,cs),
(545,341,ls),
(545,214,o),
(510,151,o),
(396,151,cs),
(275,151,o),
(252,223,o),
(252,353,cs),
(252,714,l),
(59,714,l),
(59,415,ls),
(59,132,o),
(132,-12,o),
(396,-12,cs)
);
}
);
vertWidth = 0;
width = 793;
}
);
metricLeft = "=uni155E";
metricRight = "=uni155E";
note = uni155F;
unicode = 5471;
}
{
glyphname = uni1560;
layers = (
{
layerId = master01;
shapes = (
{
closed = 1;
nodes = (
(365,-12,o),
(421,60,o),
(421,164,cs),
(421,294,o),
(334,361,o),
(159,361,cs),
(100,361,l),
(100,337,l),
(159,337,ls),
(324,337,o),
(395,275,o),
(395,164,cs),
(395,75,o),
(350,12,o),
(262,12,cs),
(150,12,o),
(105,114,o),
(105,226,cs),
(105,375,ls),
(105,578,o),
(185,701,o),
(381,701,cs),
(576,701,o),
(654,579,o),
(654,376,cs),
(654,0,l),
(680,0,l),
(680,376,ls),
(680,594,o),
(589,726,o),
(380,726,cs),
(170,726,o),
(79,592,o),
(79,375,cs),
(79,226,ls),
(79,113,o),
(124,-12,o),
(261,-12,cs)
);
}
);
vertWidth = 0;
width = 759;
},
{
layerId = "95BBE91D-E142-4583-9333-40F49FDAAF51";
shapes = (
{
closed = 1;
nodes = (
(361,-12,o),
(430,52,o),
(430,166,cs),
(430,292,o),
(346,362,o),
(182,362,cs),
(130,362,l),
(130,292,l),
(178,292,ls),
(297,292,o),
(352,252,o),
(352,167,cs),
(352,95,o),
(313,59,o),
(252,59,cs),
(155,59,o),
(146,150,o),
(146,265,cs),
(146,340,ls),
(146,551,o),
(194,655,o),
(383,655,cs),
(584,655,o),
(619,538,o),
(619,321,cs),
(619,0,l),
(697,0,l),
(697,326,ls),
(697,591,o),
(630,726,o),
(383,726,cs),
(134,726,o),
(68,588,o),
(68,326,cs),
(68,254,ls),
(68,70,o),
(129,-12,o),
(252,-12,cs)
);
}
);
vertWidth = 0;
width = 766;
},
{
layerId = "3DE82CA6-356F-4113-A2BF-F7F877EAC5C8";
shapes = (
{
closed = 1;
nodes = (
(424,-12,o),
(499,68,o),
(499,195,cs),
(499,339,o),
(403,403,o),
(273,403,cs),
(184,403,l),
(184,273,l),
(273,273,ls),
(335,273,o),
(356,242,o),
(356,191,cs),
(356,132,o),
(335,118,o),
(304,118,cs),
(266,118,o),
(248,141,o),
(248,219,cs),
(248,373,ls),
(248,500,o),
(283,563,o),
(397,563,cs),
(518,563,o),
(541,491,o),
(541,361,cs),
(541,0,l),
(734,0,l),
(734,299,ls),
(734,582,o),
(661,726,o),
(397,726,cs),
(131,726,o),
(59,579,o),
(59,299,cs),
(59,236,ls),
(59,69,o),
(160,-12,o),
(292,-12,cs)
);
}
);
vertWidth = 0;
width = 793;
}
);
metricLeft = "=uni155E";
metricRight = "=uni155E";
note = uni1560;
unicode = 5472;
}
{
glyphname = uni1561;
layers = (
{
layerId = master01;
shapes = (
{
closed = 1;
nodes = (
(635,-12,o),
(680,113,o),
(680,226,cs),
(680,375,ls),
(680,592,o),
(589,726,o),
(379,726,cs),
(170,726,o),
(79,594,o),
(79,376,cs),
(79,0,l),
(105,0,l),
(105,376,ls),
(105,579,o),
(183,701,o),
(378,701,cs),
(574,701,o),
(654,578,o),
(654,375,cs),
(654,226,ls),
(654,114,o),
(609,12,o),
(497,12,cs),
(409,12,o),
(364,75,o),
(364,164,cs),
(364,275,o),
(435,337,o),
(600,337,cs),
(659,337,l),
(659,361,l),
(600,361,ls),
(425,361,o),
(338,294,o),
(338,164,cs),
(338,60,o),
(394,-12,o),
(498,-12,cs)
);
}
);
vertWidth = 0;
width = 759;
},
{
layerId = "95BBE91D-E142-4583-9333-40F49FDAAF51";
shapes = (
{
closed = 1;
nodes = (
(636,-12,o),
(697,70,o),
(697,254,cs),
(697,326,ls),
(697,588,o),
(631,726,o),
(382,726,cs),
(135,726,o),
(68,591,o),
(68,326,cs),
(68,0,l),
(146,0,l),
(146,321,ls),
(146,538,o),
(181,655,o),
(382,655,cs),
(571,655,o),
(619,551,o),
(619,340,cs),
(619,265,ls),
(619,150,o),
(610,59,o),
(513,59,cs),
(452,59,o),
(413,95,o),
(413,167,cs),
(413,252,o),
(468,292,o),
(587,292,cs),
(635,292,l),
(635,362,l),
(583,362,ls),
(419,362,o),
(335,292,o),
(335,166,cs),
(335,52,o),
(404,-12,o),
(513,-12,cs)
);
}
);
vertWidth = 0;
width = 766;
},
{
layerId = "3DE82CA6-356F-4113-A2BF-F7F877EAC5C8";
shapes = (
{
closed = 1;
nodes = (
(633,-12,o),
(734,69,o),
(734,236,cs),
(734,299,ls),
(734,579,o),
(662,726,o),
(396,726,cs),
(132,726,o),
(59,582,o),
(59,299,cs),
(59,0,l),
(252,0,l),
(252,361,ls),
(252,491,o),
(275,563,o),
(396,563,cs),
(510,563,o),
(545,500,o),
(545,373,cs),
(545,219,ls),
(545,141,o),
(527,118,o),
(489,118,cs),
(458,118,o),
(437,132,o),
(437,191,cs),
(437,242,o),
(458,273,o),
(520,273,cs),
(609,273,l),
(609,403,l),
(520,403,ls),
(390,403,o),
(294,339,o),
(294,195,cs),
(294,68,o),
(369,-12,o),
(501,-12,cs)
);
}
);
vertWidth = 0;
width = 793;
}
);
metricLeft = "=uni155E";
metricRight = "=uni155E";
note = uni1561;
unicode = 5473;
}
{
glyphname = uni1564;
layers = (
{
layerId = master01;
shapes = (
{
closed = 1;
nodes = (
(292,0,ls),
(558,0,o),
(642,121,o),
(642,358,cs),
(642,595,o),
(558,714,o),
(293,714,cs),
(139,714,o),
(59,646,o),
(59,530,cs),
(59,424,o),
(127,354,o),
(232,354,cs),
(372,354,o),
(407,459,o),
(407,556,cs),
(407,693,l),
(381,693,l),
(381,556,ls),
(381,463,o),
(348,377,o),
(232,377,cs),
(142,377,o),
(86,439,o),
(86,530,cs),
(86,639,o),
(167,691,o),
(279,691,cs),
(293,691,ls),
(546,691,o),
(615,576,o),
(615,357,cs),
(615,135,o),
(544,25,o),
(282,25,cs),
(84,25,l),
(84,0,l)
);
}
);
vertWidth = 0;
width = 711;
},
{
layerId = "95BBE91D-E142-4583-9333-40F49FDAAF51";
shapes = (
{
closed = 1;
nodes = (
(220,0,ls),
(526,0,o),
(678,67,o),
(678,356,cs),
(678,592,o),
(576,714,o),
(316,714,cs),
(125,714,o),
(49,648,o),
(49,530,cs),
(49,421,o),
(115,353,o),
(241,353,cs),
(364,353,o),
(433,418,o),
(433,600,cs),
(433,659,l),
(355,659,l),
(355,602,ls),
(355,473,o),
(321,423,o),
(241,423,cs),
(165,423,o),
(127,468,o),
(127,536,cs),
(127,620,o),
(185,643,o),
(323,643,cs),
(355,643,ls),
(528,643,o),
(600,540,o),
(600,358,cs),
(600,122,o),
(479,71,o),
(220,71,cs),
(73,71,l),
(73,0,l)
);
}
);
vertWidth = 0;
width = 737;
},
{
layerId = "3DE82CA6-356F-4113-A2BF-F7F877EAC5C8";
shapes = (
{
closed = 1;
nodes = (
(271,-1,ls),
(563,-1,o),
(689,76,o),
(689,346,cs),
(689,611,o),
(568,713,o),
(318,713,cs),
(165,713,o),
(39,675,o),
(39,499,cs),
(39,359,o),
(119,284,o),
(245,284,cs),
(407,284,o),
(460,409,o),
(460,533,cs),
(460,575,l),
(325,575,l),
(325,527,ls),
(325,442,o),
(304,414,o),
(252,414,cs),
(213,414,o),
(196,444,o),
(196,486,cs),
(196,538,o),
(216,560,o),
(279,560,cs),
(291,560,ls),
(436,560,o),
(495,467,o),
(495,343,cs),
(495,194,o),
(424,155,o),
(270,155,cs),
(63,155,l),
(63,-1,l)
);
}
);
vertWidth = 0;
width = 738;
}
);
note = uni1564;
unicode = 5476;
}
{
glyphname = uni1566;
layers = (
{
layerId = master01;
shapes = (
{
closed = 1;
nodes = (
(627,0,l),
(627,25,l),
(429,25,ls),
(167,25,o),
(96,135,o),
(96,357,cs),
(96,576,o),
(165,691,o),
(418,691,cs),
(432,691,ls),
(544,691,o),
(625,639,o),
(625,530,cs),
(625,439,o),
(569,377,o),
(479,377,cs),
(363,377,o),
(330,463,o),
(330,556,cs),
(330,693,l),
(304,693,l),
(304,556,ls),
(304,459,o),
(339,354,o),
(479,354,cs),
(584,354,o),
(652,424,o),
(652,530,cs),
(652,665,o),
(542,714,o),
(429,714,cs),
(169,714,o),
(69,615,o),
(69,358,cs),
(69,121,o),
(153,0,o),
(419,0,cs)
);
}
);
vertWidth = 0;
width = 711;
},
{
layerId = "95BBE91D-E142-4583-9333-40F49FDAAF51";
shapes = (
{
closed = 1;
nodes = (
(664,0,l),
(664,71,l),
(517,71,ls),
(258,71,o),
(137,122,o),
(137,358,cs),
(137,540,o),
(209,643,o),
(382,643,cs),
(414,643,ls),
(552,643,o),
(610,620,o),
(610,536,cs),
(610,468,o),
(572,423,o),
(496,423,cs),
(416,423,o),
(382,473,o),
(382,602,cs),
(382,659,l),
(304,659,l),
(304,600,ls),
(304,418,o),
(373,353,o),
(496,353,cs),
(622,353,o),
(688,421,o),
(688,530,cs),
(688,648,o),
(612,714,o),
(421,714,cs),
(161,714,o),
(59,592,o),
(59,356,cs),
(59,67,o),
(211,0,o),
(517,0,cs)
);
}
);
vertWidth = 0;
width = 737;
},
{
layerId = "3DE82CA6-356F-4113-A2BF-F7F877EAC5C8";
shapes = (
{
closed = 1;
nodes = (
(675,-1,l),
(675,155,l),
(468,155,ls),
(314,155,o),
(243,194,o),
(243,343,cs),
(243,467,o),
(302,560,o),
(447,560,cs),
(459,560,ls),
(522,560,o),
(542,538,o),
(542,486,cs),
(542,444,o),
(525,414,o),
(486,414,cs),
(434,414,o),
(413,442,o),
(413,527,cs),
(413,575,l),
(278,575,l),
(278,533,ls),
(278,409,o),
(331,284,o),
(493,284,cs),
(619,284,o),
(699,359,o),
(699,499,cs),
(699,675,o),
(573,713,o),
(420,713,cs),
(170,713,o),
(49,611,o),
(49,346,cs),
(49,76,o),
(175,-1,o),
(467,-1,cs)
);
}
);
vertWidth = 0;
width = 738;
}
);
note = uni1566;
unicode = 5478;
}
{
glyphname = uni156A;
layers = (
{
layerId = master01;
shapes = (
{
closed = 1;
nodes = (
(390,345,l),
(390,367,l),
(268,367,ls),
(136,367,o),
(73,423,o),
(73,536,cs),
(73,649,o),
(135,704,o),
(262,704,cs),
(270,704,ls),
(341,704,o),
(383,671,o),
(383,612,cs),
(383,559,o),
(350,526,o),
(297,526,cs),
(242,526,o),
(214,560,o),
(214,629,cs),
(214,714,l),
(190,714,l),
(190,629,ls),
(190,550,o),
(229,504,o),
(297,504,cs),
(364,504,o),
(407,548,o),
(407,614,cs),
(407,688,o),
(355,726,o),
(256,726,cs),
(124,726,o),
(49,657,o),
(49,537,cs),
(49,413,o),
(122,345,o),
(262,345,cs)
);
}
);
vertWidth = 0;
width = 456;
},
{
layerId = "95BBE91D-E142-4583-9333-40F49FDAAF51";
shapes = (
{
closed = 1;
nodes = (
(415,342,l),
(415,415,l),
(311,415,ls),
(186,415,o),
(124,422,o),
(124,522,cs),
(124,624,o),
(173,654,o),
(277,654,cs),
(286,654,ls),
(328,654,o),
(348,642,o),
(348,614,cs),
(348,588,o),
(331,570,o),
(302,570,cs),
(268,570,o),
(251,594,o),
(251,640,cs),
(251,673,l),
(184,673,l),
(184,654,ls),
(184,549,o),
(217,503,o),
(304,503,cs),
(372,503,o),
(423,549,o),
(423,614,cs),
(423,679,o),
(368,721,o),
(284,721,cs),
(136,721,o),
(49,647,o),
(49,522,cs),
(49,397,o),
(114,342,o),
(311,342,cs)
);
}
);
vertWidth = 0;
width = 462;
},
{
layerId = "3DE82CA6-356F-4113-A2BF-F7F877EAC5C8";
shapes = (
{
closed = 1;
nodes = (
(423,317,l),
(423,422,l),
(296,422,ls),
(187,422,o),
(157,453,o),
(157,520,cs),
(157,601,o),
(199,627,o),
(284,627,cs),
(290,627,ls),
(328,627,o),
(335,614,o),
(335,596,cs),
(335,577,o),
(328,557,o),
(303,557,cs),
(281,557,o),
(270,571,o),
(270,601,cs),
(270,641,l),
(188,641,l),
(188,597,ls),
(188,538,o),
(210,475,o),
(314,475,cs),
(384,475,o),
(437,504,o),
(437,589,cs),
(437,693,o),
(358,721,o),
(261,721,cs),
(113,721,o),
(39,657,o),
(39,514,cs),
(39,365,o),
(119,317,o),
(295,317,cs)
);
}
);
vertWidth = 0;
width = 466;
}
);
note = uni156A;
unicode = 5482;
}
{
glyphname = uni156B;
layers = (
{
layerId = master01;
shapes = (
{
closed = 1;
nodes = (
(590,-10,o),
(680,123,o),
(680,338,cs),
(680,714,l),
(654,714,l),
(654,338,ls),
(654,136,o),
(576,15,o),
(380,15,cs),
(185,15,o),
(105,139,o),
(105,339,cs),
(105,714,l),
(79,714,l),
(79,339,ls),
(79,123,o),
(171,-10,o),
(379,-10,cs)
);
},
{
closed = 1;
nodes = (
(393,315,l),
(393,714,l),
(367,714,l),
(367,315,l)
);
}
);
vertWidth = 0;
width = 759;
},
{
layerId = "95BBE91D-E142-4583-9333-40F49FDAAF51";
shapes = (
{
closed = 1;
nodes = (
(630,-12,o),
(697,122,o),
(697,388,cs),
(697,714,l),
(619,714,l),
(619,393,ls),
(619,177,o),
(582,59,o),
(381,59,cs),
(185,59,o),
(146,172,o),
(146,393,cs),
(146,714,l),
(68,714,l),
(68,388,ls),
(68,125,o),
(134,-12,o),
(383,-12,cs)
);
},
{
closed = 1;
nodes = (
(418,359,l),
(418,714,l),
(340,714,l),
(340,359,l)
);
}
);
vertWidth = 0;
width = 766;
},
{
layerId = "3DE82CA6-356F-4113-A2BF-F7F877EAC5C8";
shapes = (
{
closed = 1;
nodes = (
(662,-12,o),
(737,132,o),
(737,415,cs),
(737,714,l),
(544,714,l),
(544,353,ls),
(544,223,o),
(514,151,o),
(398,151,cs),
(282,151,o),
(252,223,o),
(252,353,cs),
(252,714,l),
(59,714,l),
(59,415,ls),
(59,132,o),
(134,-12,o),
(398,-12,cs)
);
},
{
closed = 1;
nodes = (
(479,342,l),
(479,714,l),
(317,714,l),
(317,342,l)
);
}
);
vertWidth = 0;
width = 796;
}
);
metricLeft = "=uni155E";
metricRight = "=uni155E";
note = uni156B;
unicode = 5483;
}
{
glyphname = uni156C;
layers = (
{
layerId = master01;
shapes = (
{
closed = 1;
nodes = (
(105,0,l),
(105,375,ls),
(105,575,o),
(185,699,o),
(380,699,cs),
(576,699,o),
(654,578,o),
(654,376,cs),
(654,0,l),
(680,0,l),
(680,376,ls),
(680,591,o),
(590,724,o),
(379,724,cs),
(171,724,o),
(79,591,o),
(79,375,cs),
(79,0,l)
);
},
{
closed = 1;
nodes = (
(393,0,l),
(393,399,l),
(367,399,l),
(367,0,l)
);
}
);
vertWidth = 0;
width = 759;
},
{
layerId = "95BBE91D-E142-4583-9333-40F49FDAAF51";
shapes = (
{
closed = 1;
nodes = (
(146,0,l),
(146,321,ls),
(146,542,o),
(185,655,o),
(381,655,cs),
(582,655,o),
(619,537,o),
(619,321,cs),
(619,0,l),
(697,0,l),
(697,326,ls),
(697,592,o),
(630,726,o),
(383,726,cs),
(134,726,o),
(68,589,o),
(68,326,cs),
(68,0,l)
);
},
{
closed = 1;
nodes = (
(418,0,l),
(418,355,l),
(340,355,l),
(340,0,l)
);
}
);
vertWidth = 0;
width = 766;
},
{
layerId = "3DE82CA6-356F-4113-A2BF-F7F877EAC5C8";
shapes = (
{
closed = 1;
nodes = (
(252,0,l),
(252,361,ls),
(252,491,o),
(282,563,o),
(398,563,cs),
(514,563,o),
(544,491,o),
(544,361,cs),
(544,0,l),
(737,0,l),
(737,299,ls),
(737,582,o),
(662,726,o),
(398,726,cs),
(134,726,o),
(59,582,o),
(59,299,cs),
(59,0,l)
);
},
{
closed = 1;
nodes = (
(479,0,l),
(479,372,l),
(317,372,l),
(317,0,l)
);
}
);
vertWidth = 0;
width = 796;
}
);
metricLeft = "=uni155E";
metricRight = "=uni155E";
note = uni156C;
unicode = 5484;
}
{
glyphname = uni156D;
layers = (
{
layerId = master01;
shapes = (
{
closed = 1;
nodes = (
(228,1,ls),
(494,1,o),
(578,121,o),
(578,358,cs),
(578,595,o),
(494,714,o),
(228,714,cs),
(59,714,l),
(59,689,l),
(218,689,ls),
(480,689,o),
(551,579,o),
(551,357,cs),
(551,135,o),
(480,26,o),
(218,26,cs),
(59,26,l),
(59,1,l)
);
},
{
closed = 1;
nodes = (
(373,345,l),
(373,370,l),
(59,370,l),
(59,345,l)
);
}
);
vertWidth = 0;
width = 657;
},
{
layerId = "95BBE91D-E142-4583-9333-40F49FDAAF51";
shapes = (
{
closed = 1;
nodes = (
(195,0,ls),
(502,0,o),
(613,67,o),
(613,357,cs),
(613,648,o),
(500,714,o),
(195,714,cs),
(49,714,l),
(49,643,l),
(195,643,ls),
(455,643,o),
(533,603,o),
(533,357,cs),
(533,111,o),
(463,71,o),
(195,71,cs),
(49,71,l),
(49,0,l)
);
},
{
closed = 1;
nodes = (
(363,322,l),
(363,393,l),
(49,393,l),
(49,322,l)
);
}
);
vertWidth = 0;
width = 682;
},
{
layerId = "3DE82CA6-356F-4113-A2BF-F7F877EAC5C8";
shapes = (
{
closed = 1;
nodes = (
(227,0,ls),
(524,0,o),
(645,77,o),
(645,357,cs),
(645,638,o),
(522,714,o),
(227,714,cs),
(39,714,l),
(39,558,l),
(226,558,ls),
(386,558,o),
(451,521,o),
(451,355,cs),
(451,195,o),
(389,156,o),
(226,156,cs),
(39,156,l),
(39,0,l)
);
},
{
closed = 1;
nodes = (
(383,280,l),
(383,436,l),
(39,436,l),
(39,280,l)
);
}
);
vertWidth = 0;
width = 704;
}
);
note = uni156D;
unicode = 5485;
}
{
glyphname = uni156E;
layers = (
{
layerId = master01;
shapes = (
{
closed = 1;
nodes = (
(598,1,l),
(598,26,l),
(439,26,ls),
(177,26,o),
(106,135,o),
(106,357,cs),
(106,579,o),
(177,689,o),
(439,689,cs),
(598,689,l),
(598,714,l),
(429,714,ls),
(163,714,o),
(79,595,o),
(79,358,cs),
(79,121,o),
(163,1,o),
(429,1,cs)
);
},
{
closed = 1;
nodes = (
(598,345,l),
(598,370,l),
(284,370,l),
(284,345,l)
);
}
);
vertWidth = 0;
width = 657;
},
{
layerId = "95BBE91D-E142-4583-9333-40F49FDAAF51";
shapes = (
{
closed = 1;
nodes = (
(633,0,l),
(633,71,l),
(487,71,ls),
(223,71,o),
(149,112,o),
(149,357,cs),
(149,602,o),
(227,643,o),
(487,643,cs),
(633,643,l),
(633,714,l),
(487,714,ls),
(186,714,o),
(68,647,o),
(68,357,cs),
(68,65,o),
(182,0,o),
(487,0,cs)
);
},
{
closed = 1;
nodes = (
(633,322,l),
(633,393,l),
(318,393,l),
(318,322,l)
);
}
);
vertWidth = 0;
width = 682;
},
{
layerId = "3DE82CA6-356F-4113-A2BF-F7F877EAC5C8";
shapes = (
{
closed = 1;
nodes = (
(665,0,l),
(665,156,l),
(478,156,ls),
(315,156,o),
(253,195,o),
(253,355,cs),
(253,521,o),
(318,558,o),
(478,558,cs),
(665,558,l),
(665,714,l),
(477,714,ls),
(182,714,o),
(59,638,o),
(59,357,cs),
(59,77,o),
(180,0,o),
(477,0,cs)
);
},
{
closed = 1;
nodes = (
(665,280,l),
(665,436,l),
(321,436,l),
(321,280,l)
);
}
);
vertWidth = 0;
width = 704;
}
);
note = uni156E;
unicode = 5486;
}
{
glyphname = uni156F;
layers = (
{
layerId = master01;
shapes = (
{
closed = 1;
nodes = (
(644,510,l),
(744,382,l),
(768,396,l),
(667,524,l),
(818,613,l),
(802,635,l),
(658,549,l),
(658,714,l),
(630,714,l),
(630,549,l),
(486,636,l),
(470,613,l),
(621,523,l),
(520,396,l),
(544,381,l)
);
},
{
closed = 1;
nodes = (
(223,510,l),
(323,382,l),
(347,396,l),
(246,524,l),
(397,613,l),
(381,635,l),
(237,549,l),
(237,714,l),
(209,714,l),
(209,549,l),
(65,636,l),
(49,613,l),
(200,523,l),
(99,396,l),
(123,381,l)
);
}
);
vertWidth = 0;
width = 867;
},
{
layerId = "95BBE91D-E142-4583-9333-40F49FDAAF51";
shapes = (
{
closed = 1;
nodes = (
(645,487,l),
(732,374,l),
(792,411,l),
(708,523,l),
(830,597,l),
(791,652,l),
(682,586,l),
(682,714,l),
(607,714,l),
(607,586,l),
(498,652,l),
(459,597,l),
(581,523,l),
(497,411,l),
(557,374,l)
);
},
{
closed = 1;
nodes = (
(225,487,l),
(312,374,l),
(373,411,l),
(289,523,l),
(410,597,l),
(371,652,l),
(262,586,l),
(262,714,l),
(187,714,l),
(187,586,l),
(78,652,l),
(39,597,l),
(161,523,l),
(77,411,l),
(137,374,l)
);
}
);
vertWidth = 0;
width = 869;
},
{
layerId = "3DE82CA6-356F-4113-A2BF-F7F877EAC5C8";
shapes = (
{
closed = 1;
nodes = (
(673,451,l),
(746,358,l),
(841,415,l),
(766,514,l),
(873,580,l),
(811,668,l),
(730,618,l),
(730,714,l),
(615,714,l),
(615,618,l),
(535,668,l),
(473,580,l),
(580,514,l),
(504,414,l),
(598,357,l)
);
},
{
closed = 1;
nodes = (
(229,451,l),
(302,358,l),
(397,415,l),
(322,514,l),
(429,580,l),
(367,668,l),
(286,618,l),
(286,714,l),
(171,714,l),
(171,618,l),
(91,668,l),
(29,580,l),
(136,514,l),
(60,414,l),
(154,357,l)
);
}
);
vertWidth = 0;
width = 902;
}
);
note = uni156F;
unicode = 5487;
}
{
glyphname = uni1570;
layers = (
{
layerId = master01;
shapes = (
{
closed = 1;
nodes = (
(590,-10,o),
(680,123,o),
(680,338,cs),
(680,714,l),
(654,714,l),
(654,338,ls),
(654,136,o),
(576,15,o),
(380,15,cs),
(185,15,o),
(105,139,o),
(105,339,cs),
(105,714,l),
(79,714,l),
(79,339,ls),
(79,123,o),
(171,-10,o),
(379,-10,cs)
);
},
{
closed = 1;
nodes = (
(463,315,o),
(516,373,o),
(516,452,cs),
(516,714,l),
(492,714,l),
(492,452,ls),
(492,380,o),
(453,337,o),
(382,337,cs),
(311,337,o),
(267,380,o),
(267,452,cs),
(267,714,l),
(243,714,l),
(243,452,ls),
(243,373,o),
(301,315,o),
(382,315,cs)
);
}
);
vertWidth = 0;
width = 759;
},
{
layerId = "95BBE91D-E142-4583-9333-40F49FDAAF51";
shapes = (
{
closed = 1;
nodes = (
(660,-12,o),
(697,188,o),
(697,512,cs),
(697,714,l),
(619,714,l),
(619,517,ls),
(619,237,o),
(604,59,o),
(380,59,cs),
(167,59,o),
(146,231,o),
(146,517,cs),
(146,714,l),
(68,714,l),
(68,512,ls),
(68,192,o),
(107,-12,o),
(380,-12,cs)
);
},
{
closed = 1;
nodes = (
(502,359,o),
(531,439,o),
(531,573,cs),
(531,714,l),
(456,714,l),
(456,568,ls),
(456,483,o),
(447,426,o),
(382,426,cs),
(327,426,o),
(310,461,o),
(310,568,cs),
(310,714,l),
(234,714,l),
(234,573,ls),
(234,444,o),
(261,359,o),
(382,359,cs)
);
}
);
vertWidth = 0;
width = 766;
},
{
layerId = "3DE82CA6-356F-4113-A2BF-F7F877EAC5C8";
shapes = (
{
closed = 1;
nodes = (
(662,-12,o),
(737,132,o),
(737,415,cs),
(737,714,l),
(544,714,l),
(544,353,ls),
(544,223,o),
(514,151,o),
(398,151,cs),
(282,151,o),
(252,223,o),
(252,353,cs),
(252,714,l),
(59,714,l),
(59,415,ls),
(59,132,o),
(134,-12,o),
(398,-12,cs)
);
},
{
closed = 1;
nodes = (
(480,362,o),
(503,415,o),
(503,508,cs),
(503,714,l),
(417,714,l),
(417,476,ls),
(417,453,o),
(409,443,o),
(398,443,cs),
(388,443,o),
(379,451,o),
(379,476,cs),
(379,714,l),
(293,714,l),
(293,508,ls),
(293,417,o),
(313,362,o),
(397,362,cs)
);
}
);
vertWidth = 0;
width = 796;
}
);
metricLeft = "=uni155E";
metricRight = "=uni155E";
note = uni1570;
unicode = 5488;
}
{
glyphname = uni1571;
layers = (
{
layerId = master01;
shapes = (
{
closed = 1;
nodes = (
(105,0,l),
(105,375,ls),
(105,575,o),
(185,699,o),
(380,699,cs),
(576,699,o),
(654,578,o),
(654,376,cs),
(654,0,l),
(680,0,l),
(680,376,ls),
(680,591,o),
(590,724,o),
(379,724,cs),
(171,724,o),
(79,591,o),
(79,375,cs),
(79,0,l)
);
},
{
closed = 1;
nodes = (
(267,0,l),
(267,262,ls),
(267,334,o),
(311,377,o),
(382,377,cs),
(453,377,o),
(492,334,o),
(492,262,cs),
(492,0,l),
(516,0,l),
(516,262,ls),
(516,341,o),
(463,399,o),
(382,399,cs),
(301,399,o),
(243,341,o),
(243,262,cs),
(243,0,l)
);
}
);
vertWidth = 0;
width = 759;
},
{
layerId = "95BBE91D-E142-4583-9333-40F49FDAAF51";
shapes = (
{
closed = 1;
nodes = (
(146,0,l),
(146,197,ls),
(146,481,o),
(164,655,o),
(380,655,cs),
(602,655,o),
(619,480,o),
(619,197,cs),
(619,0,l),
(697,0,l),
(697,202,ls),
(697,524,o),
(660,726,o),
(380,726,cs),
(107,726,o),
(68,525,o),
(68,202,cs),
(68,0,l)
);
},
{
closed = 1;
nodes = (
(310,0,l),
(310,146,ls),
(310,253,o),
(327,288,o),
(382,288,cs),
(446,288,o),
(456,234,o),
(456,146,cs),
(456,0,l),
(531,0,l),
(531,141,ls),
(531,272,o),
(505,355,o),
(382,355,cs),
(263,355,o),
(234,275,o),
(234,141,cs),
(234,0,l)
);
}
);
vertWidth = 0;
width = 766;
},
{
layerId = "3DE82CA6-356F-4113-A2BF-F7F877EAC5C8";
shapes = (
{
closed = 1;
nodes = (
(252,0,l),
(252,361,ls),
(252,491,o),
(282,563,o),
(398,563,cs),
(514,563,o),
(544,491,o),
(544,361,cs),
(544,0,l),
(737,0,l),
(737,299,ls),
(737,582,o),
(662,726,o),
(398,726,cs),
(134,726,o),
(59,582,o),
(59,299,cs),
(59,0,l)
);
},
{
closed = 1;
nodes = (
(379,0,l),
(379,248,ls),
(379,273,o),
(388,281,o),
(398,281,cs),
(409,281,o),
(417,271,o),
(417,248,cs),
(417,0,l),
(503,0,l),
(503,216,ls),
(503,309,o),
(480,362,o),
(397,362,cs),
(313,362,o),
(293,307,o),
(293,216,cs),
(293,0,l)
);
}
);
vertWidth = 0;
width = 796;
}
);
metricLeft = "=uni155E";
metricRight = "=uni155E";
note = uni1571;
unicode = 5489;
}
{
glyphname = uni1572;
layers = (
{
layerId = master01;
shapes = (
{
closed = 1;
nodes = (
(228,1,ls),
(494,1,o),
(578,121,o),
(578,358,cs),
(578,595,o),
(494,714,o),
(228,714,cs),
(59,714,l),
(59,689,l),
(218,689,ls),
(480,689,o),
(551,579,o),
(551,357,cs),
(551,135,o),
(480,26,o),
(218,26,cs),
(59,26,l),
(59,1,l)
);
},
{
closed = 1;
nodes = (
(151,191,ls),
(271,191,o),
(330,246,o),
(330,357,cs),
(330,468,o),
(271,523,o),
(151,523,cs),
(59,523,l),
(59,501,l),
(150,501,ls),
(273,501,o),
(306,443,o),
(306,357,cs),
(306,271,o),
(273,213,o),
(150,213,cs),
(59,213,l),
(59,191,l)
);
}
);
vertWidth = 0;
width = 657;
},
{
layerId = "95BBE91D-E142-4583-9333-40F49FDAAF51";
shapes = (
{
closed = 1;
nodes = (
(195,0,ls),
(502,0,o),
(613,67,o),
(613,357,cs),
(613,648,o),
(500,714,o),
(195,714,cs),
(49,714,l),
(49,643,l),
(195,643,ls),
(455,643,o),
(533,603,o),
(533,357,cs),
(533,111,o),
(463,71,o),
(195,71,cs),
(49,71,l),
(49,0,l)
);
},
{
closed = 1;
nodes = (
(107,190,ls),
(268,190,o),
(344,219,o),
(344,363,cs),
(344,477,o),
(281,525,o),
(116,525,cs),
(49,525,l),
(49,458,l),
(118,458,ls),
(241,458,o),
(269,428,o),
(269,363,cs),
(269,259,o),
(209,257,o),
(99,257,cs),
(49,257,l),
(49,190,l)
);
}
);
vertWidth = 0;
width = 682;
},
{
layerId = "3DE82CA6-356F-4113-A2BF-F7F877EAC5C8";
shapes = (
{
closed = 1;
nodes = (
(227,0,ls),
(524,0,o),
(645,77,o),
(645,357,cs),
(645,638,o),
(522,714,o),
(227,714,cs),
(39,714,l),
(39,558,l),
(226,558,ls),
(386,558,o),
(451,521,o),
(451,355,cs),
(451,195,o),
(389,156,o),
(226,156,cs),
(39,156,l),
(39,0,l)
);
},
{
closed = 1;
nodes = (
(117,190,ls),
(278,190,o),
(354,219,o),
(354,363,cs),
(354,477,o),
(291,525,o),
(126,525,cs),
(39,525,l),
(39,419,l),
(110,419,ls),
(206,419,o),
(227,395,o),
(227,363,cs),
(227,316,o),
(206,298,o),
(110,298,cs),
(39,298,l),
(39,190,l)
);
}
);
vertWidth = 0;
width = 704;
}
);
metricLeft = "=uni156D";
metricRight = "=uni156D";
note = uni1572;
unicode = 5490;
}
{
glyphname = uni1573;
layers = (
{
layerId = master01;
shapes = (
{
closed = 1;
nodes = (
(598,1,l),
(598,26,l),
(439,26,ls),
(177,26,o),
(106,135,o),
(106,357,cs),
(106,579,o),
(177,689,o),
(439,689,cs),
(598,689,l),
(598,714,l),
(429,714,ls),
(163,714,o),
(79,595,o),
(79,358,cs),
(79,121,o),
(163,1,o),
(429,1,cs)
);
},
{
closed = 1;
nodes = (
(598,191,l),
(598,213,l),
(507,213,ls),
(384,213,o),
(351,271,o),
(351,357,cs),
(351,443,o),
(384,501,o),
(507,501,cs),
(598,501,l),
(598,523,l),
(506,523,ls),
(386,523,o),
(327,468,o),
(327,357,cs),
(327,246,o),
(386,191,o),
(506,191,cs)
);
}
);
vertWidth = 0;
width = 657;
},
{
layerId = "95BBE91D-E142-4583-9333-40F49FDAAF51";
shapes = (
{
closed = 1;
nodes = (
(633,0,l),
(633,71,l),
(487,71,ls),
(223,71,o),
(149,112,o),
(149,357,cs),
(149,602,o),
(227,643,o),
(487,643,cs),
(633,643,l),
(633,714,l),
(487,714,ls),
(186,714,o),
(68,647,o),
(68,357,cs),
(68,65,o),
(182,0,o),
(487,0,cs)
);
},
{
closed = 1;
nodes = (
(633,190,l),
(633,257,l),
(583,257,ls),
(467,257,o),
(413,262,o),
(413,363,cs),
(413,428,o),
(441,458,o),
(564,458,cs),
(633,458,l),
(633,525,l),
(565,525,ls),
(400,525,o),
(338,477,o),
(338,363,cs),
(338,218,o),
(412,190,o),
(575,190,cs)
);
}
);
vertWidth = 0;
width = 682;
},
{
layerId = "3DE82CA6-356F-4113-A2BF-F7F877EAC5C8";
shapes = (
{
closed = 1;
nodes = (
(665,0,l),
(665,156,l),
(478,156,ls),
(315,156,o),
(253,195,o),
(253,355,cs),
(253,521,o),
(318,558,o),
(478,558,cs),
(665,558,l),
(665,714,l),
(477,714,ls),
(182,714,o),
(59,638,o),
(59,357,cs),
(59,77,o),
(180,0,o),
(477,0,cs)
);
},
{
closed = 1;
nodes = (
(665,190,l),
(665,298,l),
(594,298,ls),
(498,298,o),
(477,316,o),
(477,363,cs),
(477,395,o),
(498,419,o),
(594,419,cs),
(665,419,l),
(665,525,l),
(578,525,ls),
(413,525,o),
(350,477,o),
(350,363,cs),
(350,219,o),
(426,190,o),
(587,190,cs)
);
}
);
vertWidth = 0;
width = 704;
}
);
metricLeft = "=uni156E";
metricRight = "=uni156E";
note = uni1573;
unicode = 5491;
}
{
glyphname = uni1574;
layers = (
{
layerId = master01;
shapes = (
{
closed = 1;
nodes = (
(504,0,l),
(504,470,ls),
(504,629,o),
(422,726,o),
(281,726,cs),
(142,726,o),
(69,631,o),
(69,477,cs),
(69,313,o),
(151,213,o),
(292,213,cs),
(397,213,o),
(456,269,o),
(478,339,c),
(478,0,l)
);
},
{
closed = 1;
nodes = (
(169,238,o),
(96,323,o),
(96,476,cs),
(96,620,o),
(160,701,o),
(281,701,cs),
(410,701,o),
(478,610,o),
(478,470,cs),
(478,467,ls),
(478,316,o),
(407,238,o),
(291,238,cs)
);
},
{
closed = 1;
nodes = (
(764,195,l),
(749,215,l),
(489,21,l),
(504,0,l)
);
}
);
vertWidth = 0;
width = 793;
},
{
layerId = "95BBE91D-E142-4583-9333-40F49FDAAF51";
shapes = (
{
closed = 1;
nodes = (
(523,0,l),
(523,458,ls),
(523,635,o),
(443,726,o),
(291,726,cs),
(142,726,o),
(59,633,o),
(59,472,cs),
(59,315,o),
(148,213,o),
(292,213,cs),
(353,213,o),
(400,227,o),
(445,260,c),
(445,0,l)
);
},
{
closed = 1;
nodes = (
(194,284,o),
(137,354,o),
(137,476,cs),
(137,587,o),
(193,655,o),
(292,655,cs),
(383,655,o),
(445,585,o),
(445,492,cs),
(445,440,ls),
(445,351,o),
(381,284,o),
(302,284,cs)
);
},
{
closed = 1;
nodes = (
(783,195,l),
(737,256,l),
(510,80,l),
(523,0,l)
);
}
);
vertWidth = 0;
width = 812;
},
{
layerId = "3DE82CA6-356F-4113-A2BF-F7F877EAC5C8";
shapes = (
{
closed = 1;
nodes = (
(609,0,l),
(609,457,ls),
(609,593,o),
(539,726,o),
(332,726,cs),
(125,726,o),
(49,594,o),
(49,462,cs),
(49,320,o),
(138,200,o),
(325,200,cs),
(363,200,o),
(390,205,o),
(415,211,c),
(415,0,l)
);
},
{
closed = 1;
nodes = (
(270,361,o),
(240,405,o),
(240,465,cs),
(240,526,o),
(270,565,o),
(326,565,cs),
(381,565,o),
(418,527,o),
(418,474,cs),
(418,443,ls),
(418,412,o),
(392,361,o),
(329,361,cs)
);
},
{
closed = 1;
nodes = (
(860,182,l),
(769,308,l),
(518,126,l),
(609,0,l)
);
}
);
vertWidth = 0;
width = 879;
}
);
note = uni1574;
unicode = 5492;
}
{
glyphname = uni1575;
layers = (
{
layerId = master01;
shapes = (
{
closed = 1;
nodes = (
(315,0,l),
(315,339,l),
(337,269,o),
(396,213,o),
(501,213,cs),
(642,213,o),
(724,313,o),
(724,477,cs),
(724,631,o),
(651,726,o),
(512,726,cs),
(371,726,o),
(289,629,o),
(289,470,cs),
(289,0,l)
);
},
{
closed = 1;
nodes = (
(304,21,l),
(44,215,l),
(29,195,l),
(289,0,l)
);
},
{
closed = 1;
nodes = (
(386,238,o),
(315,316,o),
(315,467,cs),
(315,470,ls),
(315,610,o),
(383,701,o),
(512,701,cs),
(633,701,o),
(697,620,o),
(697,476,cs),
(697,323,o),
(624,238,o),
(502,238,cs)
);
}
);
vertWidth = 0;
width = 793;
},
{
layerId = "95BBE91D-E142-4583-9333-40F49FDAAF51";
shapes = (
{
closed = 1;
nodes = (
(367,0,l),
(367,260,l),
(412,226,o),
(460,213,o),
(520,213,cs),
(663,213,o),
(754,313,o),
(754,472,cs),
(754,633,o),
(671,726,o),
(522,726,cs),
(371,726,o),
(289,636,o),
(289,458,cs),
(289,0,l)
);
},
{
closed = 1;
nodes = (
(302,80,l),
(75,256,l),
(29,195,l),
(289,0,l)
);
},
{
closed = 1;
nodes = (
(430,284,o),
(367,352,o),
(367,440,cs),
(367,492,ls),
(367,584,o),
(429,655,o),
(520,655,cs),
(619,655,o),
(676,588,o),
(676,476,cs),
(676,354,o),
(618,284,o),
(511,284,cs)
);
}
);
vertWidth = 0;
width = 813;
},
{
layerId = "3DE82CA6-356F-4113-A2BF-F7F877EAC5C8";
shapes = (
{
closed = 1;
nodes = (
(464,0,l),
(464,211,l),
(489,205,o),
(516,200,o),
(554,200,cs),
(741,200,o),
(830,320,o),
(830,462,cs),
(830,594,o),
(754,726,o),
(547,726,cs),
(340,726,o),
(270,593,o),
(270,457,cs),
(270,0,l)
);
},
{
closed = 1;
nodes = (
(361,126,l),
(110,308,l),
(19,182,l),
(270,0,l)
);
},
{
closed = 1;
nodes = (
(487,361,o),
(461,412,o),
(461,443,cs),
(461,474,ls),
(461,527,o),
(498,565,o),
(553,565,cs),
(609,565,o),
(639,526,o),
(639,465,cs),
(639,405,o),
(609,361,o),
(550,361,cs)
);
}
);
vertWidth = 0;
width = 879;
}
);
note = uni1575;
unicode = 5493;
}
{
glyphname = uni1577;
layers = (
{
layerId = master01;
shapes = (
{
closed = 1;
nodes = (
(422,-12,o),
(504,85,o),
(504,244,cs),
(504,714,l),
(478,714,l),
(478,375,l),
(456,445,o),
(397,501,o),
(292,501,cs),
(151,501,o),
(69,401,o),
(69,237,cs),
(69,83,o),
(142,-12,o),
(281,-12,cs)
);
},
{
closed = 1;
nodes = (
(160,13,o),
(96,94,o),
(96,238,cs),
(96,391,o),
(169,476,o),
(291,476,cs),
(407,476,o),
(478,398,o),
(478,247,cs),
(478,244,ls),
(478,104,o),
(410,13,o),
(281,13,cs)
);
},
{
closed = 1;
nodes = (
(764,519,l),
(504,714,l),
(489,693,l),
(749,499,l)
);
}
);
vertWidth = 0;
width = 793;
},
{
layerId = "95BBE91D-E142-4583-9333-40F49FDAAF51";
shapes = (
{
closed = 1;
nodes = (
(442,-12,o),
(523,78,o),
(523,255,cs),
(523,714,l),
(445,714,l),
(445,454,l),
(400,488,o),
(353,500,o),
(292,500,cs),
(149,500,o),
(59,401,o),
(59,242,cs),
(59,81,o),
(142,-12,o),
(291,-12,cs)
);
},
{
closed = 1;
nodes = (
(193,59,o),
(137,127,o),
(137,238,cs),
(137,360,o),
(195,430,o),
(302,430,cs),
(382,430,o),
(445,362,o),
(445,273,cs),
(445,222,ls),
(445,130,o),
(384,59,o),
(292,59,cs)
);
},
{
closed = 1;
nodes = (
(783,519,l),
(523,714,l),
(510,634,l),
(737,458,l)
);
}
);
vertWidth = 0;
width = 812;
},
{
layerId = "3DE82CA6-356F-4113-A2BF-F7F877EAC5C8";
shapes = (
{
closed = 1;
nodes = (
(539,-12,o),
(609,121,o),
(609,257,cs),
(609,714,l),
(415,714,l),
(415,503,l),
(390,509,o),
(363,514,o),
(325,514,cs),
(138,514,o),
(49,394,o),
(49,252,cs),
(49,120,o),
(125,-12,o),
(332,-12,cs)
);
},
{
closed = 1;
nodes = (
(270,149,o),
(240,188,o),
(240,249,cs),
(240,309,o),
(270,353,o),
(329,353,cs),
(392,353,o),
(418,302,o),
(418,271,cs),
(418,240,ls),
(418,187,o),
(381,149,o),
(326,149,cs)
);
},
{
closed = 1;
nodes = (
(860,532,l),
(609,714,l),
(518,588,l),
(769,406,l)
);
}
);
vertWidth = 0;
width = 879;
}
);
metricLeft = "=uni1574";
metricRight = "=uni1574";
note = uni1577;
unicode = 5495;
}
{
glyphname = uni1579;
layers = (
{
layerId = master01;
shapes = (
{
closed = 1;
nodes = (
(651,-12,o),
(724,83,o),
(724,237,cs),
(724,401,o),
(642,501,o),
(501,501,cs),
(396,501,o),
(337,445,o),
(315,375,c),
(315,714,l),
(289,714,l),
(289,244,ls),
(289,85,o),
(371,-12,o),
(512,-12,cs)
);
},
{
closed = 1;
nodes = (
(383,13,o),
(315,104,o),
(315,244,cs),
(315,247,ls),
(315,398,o),
(386,476,o),
(502,476,cs),
(624,476,o),
(697,391,o),
(697,238,cs),
(697,94,o),
(633,13,o),
(512,13,cs)
);
},
{
closed = 1;
nodes = (
(304,693,l),
(289,714,l),
(29,519,l),
(44,499,l)
);
}
);
vertWidth = 0;
width = 793;
},
{
layerId = "95BBE91D-E142-4583-9333-40F49FDAAF51";
shapes = (
{
closed = 1;
nodes = (
(671,-12,o),
(754,81,o),
(754,242,cs),
(754,399,o),
(665,500,o),
(520,500,cs),
(460,500,o),
(412,488,o),
(367,454,c),
(367,714,l),
(289,714,l),
(289,255,ls),
(289,79,o),
(370,-12,o),
(522,-12,cs)
);
},
{
closed = 1;
nodes = (
(430,59,o),
(367,129,o),
(367,222,cs),
(367,273,ls),
(367,362,o),
(430,430,o),
(511,430,cs),
(618,430,o),
(676,360,o),
(676,238,cs),
(676,126,o),
(619,59,o),
(520,59,cs)
);
},
{
closed = 1;
nodes = (
(302,634,l),
(289,714,l),
(29,519,l),
(75,458,l)
);
}
);
vertWidth = 0;
width = 813;
},
{
layerId = "3DE82CA6-356F-4113-A2BF-F7F877EAC5C8";
shapes = (
{
closed = 1;
nodes = (
(754,-12,o),
(830,120,o),
(830,252,cs),
(830,394,o),
(741,514,o),
(554,514,cs),
(516,514,o),
(489,509,o),
(464,503,c),
(464,714,l),
(270,714,l),
(270,257,ls),
(270,121,o),
(340,-12,o),
(547,-12,cs)
);
},
{
closed = 1;
nodes = (
(498,149,o),
(461,187,o),
(461,240,cs),
(461,271,ls),
(461,302,o),
(487,353,o),
(550,353,cs),
(609,353,o),
(639,309,o),
(639,249,cs),
(639,188,o),
(609,149,o),
(553,149,cs)
);
},
{
closed = 1;
nodes = (
(361,588,l),
(270,714,l),
(19,532,l),
(110,406,l)
);
}
);
vertWidth = 0;
width = 879;
}
);
metricLeft = "=uni1575";
metricRight = "=uni1575";
note = uni1579;
unicode = 5497;
}
{
glyphname = uni157B;
layers = (
{
layerId = master01;
shapes = (
{
closed = 1;
nodes = (
(401,334,o),
(452,395,o),
(452,471,cs),
(452,547,o),
(401,607,o),
(315,607,cs),
(268,607,o),
(229,586,o),
(203,544,c),
(203,714,l),
(179,714,l),
(49,619,l),
(62,602,l),
(179,687,l),
(179,471,ls),
(179,395,o),
(239,334,o),
(315,334,cs)
);
},
{
closed = 1;
nodes = (
(252,355,o),
(203,405,o),
(203,471,cs),
(203,539,o),
(252,586,o),
(315,586,cs),
(387,586,o),
(428,537,o),
(428,471,cs),
(428,405,o),
(387,355,o),
(315,355,cs)
);
}
);
vertWidth = 0;
width = 501;
},
{
layerId = "95BBE91D-E142-4583-9333-40F49FDAAF51";
shapes = (
{
closed = 1;
nodes = (
(410,334,o),
(463,389,o),
(463,474,cs),
(463,556,o),
(408,608,o),
(321,608,cs),
(294,608,o),
(270,602,o),
(250,591,c),
(250,714,l),
(187,714,l),
(39,605,l),
(77,556,l),
(175,630,l),
(175,493,ls),
(175,392,o),
(227,334,o),
(322,334,cs)
);
},
{
closed = 1;
nodes = (
(280,402,o),
(250,430,o),
(250,468,cs),
(250,514,o),
(278,541,o),
(316,541,cs),
(365,541,o),
(391,516,o),
(391,472,cs),
(391,429,o),
(363,402,o),
(321,402,cs)
);
}
);
vertWidth = 0;
width = 502;
},
{
layerId = "3DE82CA6-356F-4113-A2BF-F7F877EAC5C8";
shapes = (
{
closed = 1;
nodes = (
(479,270,o),
(526,351,o),
(526,432,cs),
(526,518,o),
(472,592,o),
(357,592,cs),
(334,592,o),
(317,589,o),
(301,585,c),
(301,714,l),
(183,714,l),
(29,603,l),
(85,526,l),
(183,597,l),
(183,432,ls),
(183,352,o),
(226,270,o),
(352,270,cs)
);
},
{
closed = 1;
nodes = (
(314,367,o),
(300,398,o),
(300,432,cs),
(300,460,o),
(312,492,o),
(355,492,cs),
(390,492,o),
(409,460,o),
(409,432,cs),
(409,398,o),
(392,367,o),
(357,367,cs)
);
}
);
vertWidth = 0;
width = 555;
}
);
note = uni157B;
unicode = 5499;
}
{
glyphname = uni157C;
layers = (
{
layerId = master01;
shapes = (
{
closed = 1;
nodes = (
(105,0,l),
(105,385,l),
(553,385,l),
(553,0,l),
(579,0,l),
(579,714,l),
(553,714,l),
(553,410,l),
(105,410,l),
(105,714,l),
(79,714,l),
(79,0,l)
);
}
);
vertWidth = 0;
width = 658;
},
{
layerId = "95BBE91D-E142-4583-9333-40F49FDAAF51";
shapes = (
{
closed = 1;
nodes = (
(146,0,l),
(146,359,l),
(511,359,l),
(511,0,l),
(589,0,l),
(589,714,l),
(511,714,l),
(511,430,l),
(146,430,l),
(146,714,l),
(68,714,l),
(68,0,l)
);
}
);
vertWidth = 0;
width = 657;
},
{
layerId = "3DE82CA6-356F-4113-A2BF-F7F877EAC5C8";
shapes = (
{
closed = 1;
nodes = (
(253,0,l),
(253,296,l),
(518,296,l),
(518,0,l),
(712,0,l),
(712,714,l),
(518,714,l),
(518,453,l),
(253,453,l),
(253,714,l),
(59,714,l),
(59,0,l)
);
}
);
vertWidth = 0;
width = 771;
}
);
note = uni157C;
unicode = 5500;
}
{
glyphname = uni157D;
layers = (
{
layerId = master01;
shapes = (
{
closed = 1;
nodes = (
(337,392,l),
(85,714,l),
(56,714,l),
(307,392,l)
);
},
{
closed = 1;
nodes = (
(79,392,l),
(330,714,l),
(301,714,l),
(49,392,l)
);
}
);
vertWidth = 0;
width = 386;
},
{
layerId = "95BBE91D-E142-4583-9333-40F49FDAAF51";
shapes = (
{
closed = 1;
nodes = (
(359,391,l),
(123,714,l),
(39,714,l),
(276,391,l)
);
},
{
closed = 1;
nodes = (
(122,391,l),
(359,714,l),
(275,714,l),
(39,391,l)
);
}
);
vertWidth = 0;
width = 398;
},
{
layerId = "3DE82CA6-356F-4113-A2BF-F7F877EAC5C8";
shapes = (
{
closed = 1;
nodes = (
(412,367,l),
(160,714,l),
(29,714,l),
(281,367,l)
);
},
{
closed = 1;
nodes = (
(160,367,l),
(412,714,l),
(281,714,l),
(29,367,l)
);
}
);
vertWidth = 0;
width = 441;
}
);
note = uni157D;
unicode = 5501;
}
{
glyphname = uni1586;
layers = (
{
layerId = master01;
shapes = (
{
closed = 1;
nodes = (
(504,0,l),
(504,495,ls),
(504,634,o),
(422,726,o),
(281,726,cs),
(142,726,o),
(69,636,o),
(69,501,cs),
(69,358,o),
(151,263,o),
(293,263,cs),
(397,263,o),
(456,314,o),
(478,384,c),
(478,0,l)
);
},
{
closed = 1;
nodes = (
(169,288,o),
(96,368,o),
(96,501,cs),
(96,625,o),
(160,701,o),
(281,701,cs),
(406,701,o),
(478,621,o),
(478,491,cs),
(478,362,o),
(407,288,o),
(291,288,cs)
);
},
{
closed = 1;
nodes = (
(162,0,l),
(288,275,l),
(258,275,l),
(133,0,l)
);
}
);
vertWidth = 0;
width = 583;
},
{
layerId = "95BBE91D-E142-4583-9333-40F49FDAAF51";
shapes = (
{
closed = 1;
nodes = (
(523,0,l),
(523,458,ls),
(523,635,o),
(443,726,o),
(291,726,cs),
(143,726,o),
(59,642,o),
(59,496,cs),
(59,352,o),
(149,262,o),
(280,262,cs),
(344,262,o),
(388,267,o),
(445,309,c),
(445,0,l)
);
},
{
closed = 1;
nodes = (
(189,333,o),
(137,395,o),
(137,500,cs),
(137,598,o),
(195,655,o),
(292,655,cs),
(390,655,o),
(445,593,o),
(445,489,cs),
(445,390,o),
(394,333,o),
(302,333,cs)
);
},
{
closed = 1;
nodes = (
(173,0,l),
(308,284,l),
(231,284,l),
(98,0,l)
);
}
);
vertWidth = 0;
width = 592;
},
{
layerId = "3DE82CA6-356F-4113-A2BF-F7F877EAC5C8";
shapes = (
{
closed = 1;
nodes = (
(609,0,l),
(609,457,ls),
(609,593,o),
(539,726,o),
(332,726,cs),
(125,726,o),
(49,594,o),
(49,462,cs),
(49,320,o),
(138,200,o),
(325,200,cs),
(363,200,o),
(390,205,o),
(415,211,c),
(415,0,l)
);
},
{
closed = 1;
nodes = (
(267,361,o),
(240,405,o),
(240,464,cs),
(240,526,o),
(270,565,o),
(326,565,cs),
(382,565,o),
(412,526,o),
(412,464,cs),
(412,405,o),
(385,361,o),
(326,361,cs)
);
},
{
closed = 1;
nodes = (
(259,0,l),
(381,272,l),
(186,272,l),
(65,0,l)
);
}
);
vertWidth = 0;
width = 668;
}
);
note = uni1586;
unicode = 5510;
}
{
glyphname = uni1587;
layers = (
{
layerId = master01;
shapes = (
{
closed = 1;
nodes = (
(105,0,l),
(105,384,l),
(127,314,o),
(186,263,o),
(290,263,cs),
(432,263,o),
(514,358,o),
(514,501,cs),
(514,636,o),
(441,726,o),
(302,726,cs),
(161,726,o),
(79,634,o),
(79,495,cs),
(79,0,l)
);
},
{
closed = 1;
nodes = (
(450,0,l),
(325,275,l),
(295,275,l),
(421,0,l)
);
},
{
closed = 1;
nodes = (
(176,288,o),
(105,362,o),
(105,491,cs),
(105,621,o),
(177,701,o),
(302,701,cs),
(423,701,o),
(487,625,o),
(487,501,cs),
(487,368,o),
(414,288,o),
(292,288,cs)
);
}
);
vertWidth = 0;
width = 583;
},
{
layerId = "95BBE91D-E142-4583-9333-40F49FDAAF51";
shapes = (
{
closed = 1;
nodes = (
(147,0,l),
(147,309,l),
(204,267,o),
(248,262,o),
(312,262,cs),
(443,262,o),
(533,352,o),
(533,496,cs),
(533,642,o),
(449,726,o),
(301,726,cs),
(149,726,o),
(69,635,o),
(69,458,cs),
(69,0,l)
);
},
{
closed = 1;
nodes = (
(494,0,l),
(361,284,l),
(284,284,l),
(419,0,l)
);
},
{
closed = 1;
nodes = (
(198,333,o),
(147,390,o),
(147,489,cs),
(147,593,o),
(202,655,o),
(300,655,cs),
(397,655,o),
(455,598,o),
(455,500,cs),
(455,395,o),
(403,333,o),
(290,333,cs)
);
}
);
vertWidth = 0;
width = 592;
},
{
layerId = "3DE82CA6-356F-4113-A2BF-F7F877EAC5C8";
shapes = (
{
closed = 1;
nodes = (
(253,0,l),
(253,211,l),
(278,205,o),
(305,200,o),
(343,200,cs),
(530,200,o),
(619,320,o),
(619,462,cs),
(619,594,o),
(543,726,o),
(336,726,cs),
(129,726,o),
(59,593,o),
(59,457,cs),
(59,0,l)
);
},
{
closed = 1;
nodes = (
(603,0,l),
(482,272,l),
(287,272,l),
(409,0,l)
);
},
{
closed = 1;
nodes = (
(283,361,o),
(256,405,o),
(256,464,cs),
(256,526,o),
(286,565,o),
(342,565,cs),
(398,565,o),
(428,526,o),
(428,464,cs),
(428,405,o),
(401,361,o),
(342,361,cs)
);
}
);
vertWidth = 0;
width = 668;
}
);
note = uni1587;
unicode = 5511;
}
{
glyphname = uni1588;
layers = (
{
layerId = master01;
shapes = (
{
closed = 1;
nodes = (
(422,-12,o),
(504,80,o),
(504,219,cs),
(504,714,l),
(478,714,l),
(478,330,l),
(456,400,o),
(397,451,o),
(293,451,cs),
(151,451,o),
(69,356,o),
(69,213,cs),
(69,78,o),
(142,-12,o),
(281,-12,cs)
);
},
{
closed = 1;
nodes = (
(160,13,o),
(96,89,o),
(96,213,cs),
(96,346,o),
(169,426,o),
(291,426,cs),
(407,426,o),
(478,352,o),
(478,223,cs),
(478,93,o),
(406,13,o),
(281,13,cs)
);
},
{
closed = 1;
nodes = (
(288,439,l),
(162,714,l),
(133,714,l),
(258,439,l)
);
}
);
vertWidth = 0;
width = 583;
},
{
layerId = "95BBE91D-E142-4583-9333-40F49FDAAF51";
shapes = (
{
closed = 1;
nodes = (
(443,-12,o),
(523,79,o),
(523,256,cs),
(523,714,l),
(445,714,l),
(445,405,l),
(388,447,o),
(344,452,o),
(280,452,cs),
(149,452,o),
(59,362,o),
(59,218,cs),
(59,72,o),
(143,-12,o),
(291,-12,cs)
);
},
{
closed = 1;
nodes = (
(195,59,o),
(137,116,o),
(137,214,cs),
(137,319,o),
(189,381,o),
(302,381,cs),
(394,381,o),
(445,324,o),
(445,225,cs),
(445,121,o),
(390,59,o),
(292,59,cs)
);
},
{
closed = 1;
nodes = (
(308,430,l),
(173,714,l),
(98,714,l),
(231,430,l)
);
}
);
vertWidth = 0;
width = 592;
},
{
layerId = "3DE82CA6-356F-4113-A2BF-F7F877EAC5C8";
shapes = (
{
closed = 1;
nodes = (
(539,-12,o),
(609,121,o),
(609,257,cs),
(609,714,l),
(415,714,l),
(415,503,l),
(390,509,o),
(363,514,o),
(325,514,cs),
(138,514,o),
(49,394,o),
(49,252,cs),
(49,120,o),
(125,-12,o),
(332,-12,cs)
);
},
{
closed = 1;
nodes = (
(270,149,o),
(240,188,o),
(240,250,cs),
(240,309,o),
(267,353,o),
(326,353,cs),
(385,353,o),
(412,309,o),
(412,250,cs),
(412,188,o),
(382,149,o),
(326,149,cs)
);
},
{
closed = 1;
nodes = (
(381,442,l),
(259,714,l),
(65,714,l),
(186,442,l)
);
}
);
vertWidth = 0;
width = 668;
}
);
metricLeft = "=uni1586";
metricRight = "=uni1586";
note = uni1588;
unicode = 5512;
}
{
glyphname = uni1589;
layers = (
{
layerId = master01;
shapes = (
{
closed = 1;
nodes = (
(441,-12,o),
(514,78,o),
(514,213,cs),
(514,356,o),
(432,451,o),
(290,451,cs),
(186,451,o),
(127,400,o),
(105,330,c),
(105,714,l),
(79,714,l),
(79,219,ls),
(79,80,o),
(161,-12,o),
(302,-12,cs)
);
},
{
closed = 1;
nodes = (
(177,13,o),
(105,93,o),
(105,223,cs),
(105,352,o),
(176,426,o),
(292,426,cs),
(414,426,o),
(487,346,o),
(487,213,cs),
(487,89,o),
(423,13,o),
(302,13,cs)
);
},
{
closed = 1;
nodes = (
(325,439,l),
(450,714,l),
(421,714,l),
(295,439,l)
);
}
);
vertWidth = 0;
width = 583;
},
{
layerId = "95BBE91D-E142-4583-9333-40F49FDAAF51";
shapes = (
{
closed = 1;
nodes = (
(449,-12,o),
(533,72,o),
(533,218,cs),
(533,362,o),
(443,452,o),
(312,452,cs),
(248,452,o),
(204,447,o),
(147,405,c),
(147,714,l),
(69,714,l),
(69,256,ls),
(69,79,o),
(149,-12,o),
(301,-12,cs)
);
},
{
closed = 1;
nodes = (
(202,59,o),
(147,121,o),
(147,225,cs),
(147,324,o),
(198,381,o),
(290,381,cs),
(403,381,o),
(455,319,o),
(455,214,cs),
(455,116,o),
(397,59,o),
(300,59,cs)
);
},
{
closed = 1;
nodes = (
(361,430,l),
(494,714,l),
(419,714,l),
(284,430,l)
);
}
);
vertWidth = 0;
width = 592;
},
{
layerId = "3DE82CA6-356F-4113-A2BF-F7F877EAC5C8";
shapes = (
{
closed = 1;
nodes = (
(543,-12,o),
(619,120,o),
(619,252,cs),
(619,394,o),
(530,514,o),
(343,514,cs),
(305,514,o),
(278,509,o),
(253,503,c),
(253,714,l),
(59,714,l),
(59,257,ls),
(59,121,o),
(129,-12,o),
(336,-12,cs)
);
},
{
closed = 1;
nodes = (
(286,149,o),
(256,188,o),
(256,250,cs),
(256,309,o),
(283,353,o),
(342,353,cs),
(401,353,o),
(428,309,o),
(428,250,cs),
(428,188,o),
(398,149,o),
(342,149,cs)
);
},
{
closed = 1;
nodes = (
(482,442,l),
(603,714,l),
(409,714,l),
(287,442,l)
);
}
);
vertWidth = 0;
width = 668;
}
);
metricLeft = "=uni1587";
metricRight = "=uni1587";
note = uni1589;
unicode = 5513;
}
{
glyphname = uni158A;
layers = (
{
layerId = master01;
shapes = (
{
closed = 1;
nodes = (
(548,0,l),
(548,462,ls),
(548,657,o),
(462,724,o),
(313,724,cs),
(162,724,o),
(69,656,o),
(69,460,cs),
(69,410,l),
(95,410,l),
(95,458,ls),
(95,641,o),
(179,699,o),
(313,699,cs),
(450,699,o),
(522,639,o),
(522,470,cs),
(522,0,l)
);
},
{
closed = 1;
nodes = (
(808,194,l),
(793,215,l),
(533,20,l),
(548,0,l)
);
}
);
vertWidth = 0;
width = 837;
},
{
layerId = "95BBE91D-E142-4583-9333-40F49FDAAF51";
shapes = (
{
closed = 1;
nodes = (
(564,0,l),
(564,378,ls),
(564,606,o),
(517,726,o),
(313,726,cs),
(118,726,o),
(63,633,o),
(59,433,cs),
(59,411,l),
(137,411,l),
(137,433,ls),
(137,585,o),
(169,655,o),
(313,655,cs),
(456,655,o),
(486,567,o),
(486,405,cs),
(486,0,l)
);
},
{
closed = 1;
nodes = (
(822,195,l),
(776,256,l),
(551,81,l),
(564,0,l)
);
}
);
vertWidth = 0;
width = 851;
},
{
layerId = "3DE82CA6-356F-4113-A2BF-F7F877EAC5C8";
shapes = (
{
closed = 1;
nodes = (
(609,0,l),
(609,457,ls),
(609,593,o),
(539,726,o),
(332,726,cs),
(125,726,o),
(49,594,o),
(49,462,cs),
(49,394,l),
(243,394,l),
(243,465,ls),
(243,526,o),
(270,565,o),
(326,565,cs),
(381,565,o),
(415,527,o),
(415,474,cs),
(415,0,l)
);
},
{
closed = 1;
nodes = (
(860,182,l),
(769,308,l),
(518,126,l),
(609,0,l)
);
}
);
vertWidth = 0;
width = 879;
}
);
note = uni158A;
unicode = 5514;
}
{
glyphname = uni158B;
layers = (
{
layerId = master01;
shapes = (
{
closed = 1;
nodes = (
(315,0,l),
(315,470,ls),
(315,639,o),
(387,699,o),
(524,699,cs),
(658,699,o),
(742,641,o),
(742,458,cs),
(742,410,l),
(768,410,l),
(768,460,ls),
(768,656,o),
(675,724,o),
(524,724,cs),
(375,724,o),
(289,657,o),
(289,462,cs),
(289,0,l)
);
},
{
closed = 1;
nodes = (
(304,20,l),
(44,215,l),
(29,194,l),
(289,0,l)
);
}
);
vertWidth = 0;
width = 837;
},
{
layerId = "95BBE91D-E142-4583-9333-40F49FDAAF51";
shapes = (
{
closed = 1;
nodes = (
(365,0,l),
(365,405,ls),
(365,567,o),
(395,655,o),
(538,655,cs),
(682,655,o),
(714,585,o),
(714,433,cs),
(714,411,l),
(792,411,l),
(792,433,l),
(788,633,o),
(733,726,o),
(538,726,cs),
(334,726,o),
(287,606,o),
(287,378,cs),
(287,0,l)
);
},
{
closed = 1;
nodes = (
(300,81,l),
(75,256,l),
(29,195,l),
(287,0,l)
);
}
);
vertWidth = 0;
width = 851;
},
{
layerId = "3DE82CA6-356F-4113-A2BF-F7F877EAC5C8";
shapes = (
{
closed = 1;
nodes = (
(464,0,l),
(464,474,ls),
(464,527,o),
(498,565,o),
(553,565,cs),
(609,565,o),
(636,526,o),
(636,465,cs),
(636,394,l),
(830,394,l),
(830,462,ls),
(830,594,o),
(754,726,o),
(547,726,cs),
(340,726,o),
(270,593,o),
(270,457,cs),
(270,0,l)
);
},
{
closed = 1;
nodes = (
(361,126,l),
(110,308,l),
(19,182,l),
(270,0,l)
);
}
);
vertWidth = 0;
width = 879;
}
);
note = uni158B;
unicode = 5515;
}
{
glyphname = uni158C;
layers = (
{
layerId = master01;
shapes = (
{
closed = 1;
nodes = (
(462,-10,o),
(548,57,o),
(548,252,cs),
(548,714,l),
(522,714,l),
(522,244,ls),
(522,75,o),
(450,15,o),
(313,15,cs),
(179,15,o),
(95,73,o),
(95,256,cs),
(95,304,l),
(69,304,l),
(69,254,ls),
(69,58,o),
(162,-10,o),
(313,-10,cs)
);
},
{
closed = 1;
nodes = (
(808,520,l),
(548,714,l),
(533,694,l),
(793,499,l)
);
}
);
vertWidth = 0;
width = 837;
},
{
layerId = "95BBE91D-E142-4583-9333-40F49FDAAF51";
shapes = (
{
closed = 1;
nodes = (
(517,-12,o),
(564,108,o),
(564,336,cs),
(564,714,l),
(486,714,l),
(486,309,ls),
(486,147,o),
(456,59,o),
(313,59,cs),
(169,59,o),
(137,129,o),
(137,281,cs),
(137,303,l),
(59,303,l),
(59,281,ls),
(59,81,o),
(118,-12,o),
(313,-12,cs)
);
},
{
closed = 1;
nodes = (
(822,519,l),
(564,714,l),
(551,633,l),
(776,458,l)
);
}
);
vertWidth = 0;
width = 851;
},
{
layerId = "3DE82CA6-356F-4113-A2BF-F7F877EAC5C8";
shapes = (
{
closed = 1;
nodes = (
(539,-12,o),
(609,121,o),
(609,257,cs),
(609,714,l),
(415,714,l),
(415,240,ls),
(415,187,o),
(381,149,o),
(326,149,cs),
(270,149,o),
(243,188,o),
(243,249,cs),
(243,320,l),
(49,320,l),
(49,252,ls),
(49,120,o),
(125,-12,o),
(332,-12,cs)
);
},
{
closed = 1;
nodes = (
(860,532,l),
(609,714,l),
(518,588,l),
(769,406,l)
);
}
);
vertWidth = 0;
width = 879;
}
);
metricLeft = "=uni158A";
metricRight = "=uni158A";
note = uni158C;
unicode = 5516;
}
{
glyphname = uni158D;
layers = (
{
layerId = master01;
shapes = (
{
closed = 1;
nodes = (
(675,-10,o),
(768,58,o),
(768,254,cs),
(768,304,l),
(742,304,l),
(742,256,ls),
(742,73,o),
(658,15,o),
(524,15,cs),
(387,15,o),
(315,75,o),
(315,244,cs),
(315,714,l),
(289,714,l),
(289,252,ls),
(289,57,o),
(375,-10,o),
(524,-10,cs)
);
},
{
closed = 1;
nodes = (
(304,694,l),
(289,714,l),
(29,520,l),
(44,499,l)
);
}
);
vertWidth = 0;
width = 837;
},
{
layerId = "95BBE91D-E142-4583-9333-40F49FDAAF51";
shapes = (
{
closed = 1;
nodes = (
(733,-12,o),
(792,81,o),
(792,281,cs),
(792,303,l),
(714,303,l),
(714,281,ls),
(714,129,o),
(682,59,o),
(538,59,cs),
(395,59,o),
(365,147,o),
(365,309,cs),
(365,714,l),
(287,714,l),
(287,336,ls),
(287,108,o),
(334,-12,o),
(538,-12,cs)
);
},
{
closed = 1;
nodes = (
(300,633,l),
(287,714,l),
(29,519,l),
(75,458,l)
);
}
);
vertWidth = 0;
width = 851;
},
{
layerId = "3DE82CA6-356F-4113-A2BF-F7F877EAC5C8";
shapes = (
{
closed = 1;
nodes = (
(754,-12,o),
(830,120,o),
(830,252,cs),
(830,320,l),
(636,320,l),
(636,249,ls),
(636,188,o),
(609,149,o),
(553,149,cs),
(498,149,o),
(464,187,o),
(464,240,cs),
(464,714,l),
(270,714,l),
(270,257,ls),
(270,121,o),
(340,-12,o),
(547,-12,cs)
);
},
{
closed = 1;
nodes = (
(361,588,l),
(270,714,l),
(19,532,l),
(110,406,l)
);
}
);
vertWidth = 0;
width = 879;
}
);
metricLeft = "=uni158B";
metricRight = "=uni158B";
note = uni158D;
unicode = 5517;
}
{
glyphname = uni1591;
layers = (
{
layerId = master01;
shapes = (
{
closed = 1;
nodes = (
(750,-10,o),
(836,57,o),
(836,252,cs),
(836,714,l),
(810,714,l),
(810,244,ls),
(810,75,o),
(738,15,o),
(601,15,cs),
(475,15,o),
(393,67,o),
(384,226,c),
(358,226,l),
(366,51,o),
(457,-10,o),
(601,-10,cs)
);
},
{
closed = 1;
nodes = (
(121,522,o),
(82,560,o),
(82,613,cs),
(82,665,o),
(121,704,o),
(172,704,cs),
(223,704,o),
(262,666,o),
(262,613,cs),
(262,560,o),
(223,522,o),
(172,522,cs)
);
},
{
closed = 1;
nodes = (
(479,322,o),
(520,365,o),
(520,425,cs),
(520,468,l),
(496,468,l),
(496,425,ls),
(496,372,o),
(468,344,o),
(419,344,cs),
(369,344,o),
(338,374,o),
(338,425,cs),
(338,522,l),
(238,522,l),
(270,544,o),
(285,576,o),
(285,612,cs),
(285,677,o),
(236,726,o),
(172,726,cs),
(109,726,o),
(59,677,o),
(59,613,cs),
(59,549,o),
(108,500,o),
(172,500,cs),
(315,500,l),
(315,425,ls),
(315,366,o),
(358,322,o),
(419,322,cs)
);
}
);
vertWidth = 0;
width = 915;
},
{
layerId = "95BBE91D-E142-4583-9333-40F49FDAAF51";
shapes = (
{
closed = 1;
nodes = (
(798,-12,o),
(848,107,o),
(848,336,cs),
(848,714,l),
(770,714,l),
(770,309,ls),
(770,153,o),
(741,59,o),
(597,59,cs),
(476,59,o),
(433,98,o),
(424,225,c),
(345,225,l),
(353,57,o),
(432,-12,o),
(597,-12,cs)
);
},
{
closed = 1;
nodes = (
(140,565,o),
(119,587,o),
(119,614,cs),
(119,643,o),
(140,663,o),
(167,663,cs),
(198,663,o),
(213,646,o),
(213,613,cs),
(213,586,o),
(194,565,o),
(167,565,cs)
);
},
{
closed = 1;
nodes = (
(499,313,o),
(539,352,o),
(539,444,cs),
(539,459,l),
(469,459,l),
(469,444,ls),
(469,398,o),
(452,376,o),
(419,376,cs),
(379,376,o),
(373,423,o),
(373,474,cs),
(373,564,l),
(267,564,l),
(278,579,o),
(284,597,o),
(284,619,cs),
(284,680,o),
(235,726,o),
(167,726,cs),
(101,726,o),
(49,678,o),
(49,619,cs),
(49,542,o),
(97,500,o),
(182,500,cs),
(302,500,l),
(302,456,ls),
(302,354,o),
(340,313,o),
(417,313,cs)
);
}
);
vertWidth = 0;
width = 917;
},
{
layerId = "3DE82CA6-356F-4113-A2BF-F7F877EAC5C8";
shapes = (
{
closed = 1;
nodes = (
(843,-12,o),
(903,79,o),
(903,301,cs),
(903,714,l),
(710,714,l),
(710,264,ls),
(710,181,o),
(685,149,o),
(624,149,cs),
(568,149,o),
(541,176,o),
(537,246,c),
(345,246,l),
(356,64,o),
(424,-12,o),
(624,-12,cs)
);
},
{
closed = 1;
nodes = (
(147,563,o),
(131,578,o),
(131,603,cs),
(131,629,o),
(147,642,o),
(168,642,cs),
(189,642,o),
(205,629,o),
(205,603,cs),
(205,578,o),
(189,563,o),
(168,563,cs)
);
},
{
closed = 1;
nodes = (
(554,301,o),
(585,362,o),
(585,421,cs),
(585,469,l),
(493,469,l),
(493,419,ls),
(493,392,o),
(483,374,o),
(458,374,cs),
(431,374,o),
(420,392,o),
(420,419,cs),
(420,563,l),
(292,563,l),
(296,575,o),
(298,588,o),
(298,602,cs),
(298,675,o),
(239,727,o),
(168,727,cs),
(95,727,o),
(39,675,o),
(39,602,cs),
(39,533,o),
(92,478,o),
(163,478,cs),
(327,478,l),
(327,421,ls),
(327,362,o),
(358,301,o),
(456,301,cs)
);
}
);
vertWidth = 0;
width = 962;
}
);
metricLeft = "=uni1595";
note = uni1591;
unicode = 5521;
}
{
glyphname = uni1595;
layers = (
{
layerId = master01;
shapes = (
{
closed = 1;
nodes = (
(439,361,o),
(475,400,o),
(475,453,cs),
(475,492,l),
(452,492,l),
(452,453,ls),
(452,407,o),
(427,383,o),
(383,383,cs),
(340,383,o),
(313,408,o),
(313,453,cs),
(313,544,l),
(224,544,l),
(249,563,o),
(263,590,o),
(263,623,cs),
(263,682,o),
(218,726,o),
(161,726,cs),
(104,726,o),
(59,682,o),
(59,624,cs),
(59,567,o),
(103,522,o),
(161,522,cs),
(290,522,l),
(290,453,ls),
(290,401,o),
(329,361,o),
(383,361,cs)
);
},
{
closed = 1;
nodes = (
(116,544,o),
(82,577,o),
(82,624,cs),
(82,670,o),
(116,704,o),
(161,704,cs),
(206,704,o),
(240,671,o),
(240,624,cs),
(240,577,o),
(206,544,o),
(161,544,cs)
);
}
);
vertWidth = 0;
width = 534;
},
{
layerId = "95BBE91D-E142-4583-9333-40F49FDAAF51";
shapes = (
{
closed = 1;
nodes = (
(499,322,o),
(539,361,o),
(539,454,cs),
(539,469,l),
(469,469,l),
(469,454,ls),
(469,408,o),
(452,386,o),
(419,386,cs),
(379,386,o),
(373,433,o),
(373,484,cs),
(373,564,l),
(267,564,l),
(278,579,o),
(284,597,o),
(284,619,cs),
(284,680,o),
(235,726,o),
(167,726,cs),
(101,726,o),
(49,678,o),
(49,619,cs),
(49,542,o),
(97,500,o),
(182,500,cs),
(302,500,l),
(302,466,ls),
(302,364,o),
(340,322,o),
(417,322,cs)
);
},
{
closed = 1;
nodes = (
(140,565,o),
(119,587,o),
(119,614,cs),
(119,643,o),
(140,663,o),
(167,663,cs),
(198,663,o),
(213,646,o),
(213,613,cs),
(213,586,o),
(194,565,o),
(167,565,cs)
);
}
);
vertWidth = 0;
width = 588;
},
{
layerId = "3DE82CA6-356F-4113-A2BF-F7F877EAC5C8";
shapes = (
{
closed = 1;
nodes = (
(554,301,o),
(585,362,o),
(585,421,cs),
(585,469,l),
(493,469,l),
(493,419,ls),
(493,392,o),
(483,374,o),
(458,374,cs),
(431,374,o),
(420,392,o),
(420,419,cs),
(420,563,l),
(292,563,l),
(296,575,o),
(298,588,o),
(298,602,cs),
(298,675,o),
(239,727,o),
(168,727,cs),
(95,727,o),
(39,675,o),
(39,602,cs),
(39,533,o),
(92,478,o),
(163,478,cs),
(327,478,l),
(327,421,ls),
(327,362,o),
(358,301,o),
(456,301,cs)
);
},
{
closed = 1;
nodes = (
(147,563,o),
(131,578,o),
(131,603,cs),
(131,629,o),
(147,642,o),
(168,642,cs),
(189,642,o),
(205,629,o),
(205,603,cs),
(205,578,o),
(189,563,o),
(168,563,cs)
);
}
);
vertWidth = 0;
width = 624;
}
);
note = uni1595;
unicode = 5525;
}
{
glyphname = uni1596;
layers = (
{
layerId = master01;
shapes = (
{
closed = 1;
nodes = (
(692,361,o),
(728,400,o),
(728,453,cs),
(728,492,l),
(705,492,l),
(705,453,ls),
(705,407,o),
(680,383,o),
(636,383,cs),
(593,383,o),
(566,408,o),
(566,453,cs),
(566,544,l),
(477,544,l),
(502,563,o),
(516,590,o),
(516,623,cs),
(516,682,o),
(471,726,o),
(414,726,cs),
(357,726,o),
(312,682,o),
(312,624,cs),
(312,591,o),
(326,563,o),
(350,544,c),
(224,544,l),
(249,563,o),
(263,590,o),
(263,623,cs),
(263,682,o),
(218,726,o),
(161,726,cs),
(104,726,o),
(59,682,o),
(59,624,cs),
(59,567,o),
(103,522,o),
(161,522,cs),
(543,522,l),
(543,453,ls),
(543,401,o),
(582,361,o),
(636,361,cs)
);
},
{
closed = 1;
nodes = (
(116,544,o),
(82,577,o),
(82,624,cs),
(82,670,o),
(116,704,o),
(161,704,cs),
(206,704,o),
(240,671,o),
(240,624,cs),
(240,577,o),
(206,544,o),
(161,544,cs)
);
},
{
closed = 1;
nodes = (
(369,544,o),
(335,577,o),
(335,624,cs),
(335,670,o),
(369,704,o),
(414,704,cs),
(459,704,o),
(493,671,o),
(493,624,cs),
(493,577,o),
(459,544,o),
(414,544,cs)
);
}
);
vertWidth = 0;
width = 787;
},
{
layerId = "95BBE91D-E142-4583-9333-40F49FDAAF51";
shapes = (
{
closed = 1;
nodes = (
(773,322,o),
(813,361,o),
(813,454,cs),
(813,469,l),
(743,469,l),
(743,454,ls),
(743,408,o),
(727,386,o),
(693,386,cs),
(656,386,o),
(647,428,o),
(647,484,cs),
(647,564,l),
(542,564,l),
(553,579,o),
(558,597,o),
(558,619,cs),
(558,680,o),
(509,726,o),
(441,726,cs),
(375,726,o),
(323,678,o),
(323,619,cs),
(323,598,o),
(327,579,o),
(334,564,c),
(267,564,l),
(278,579,o),
(284,597,o),
(284,619,cs),
(284,680,o),
(235,726,o),
(167,726,cs),
(101,726,o),
(49,678,o),
(49,619,cs),
(49,542,o),
(97,500,o),
(182,500,cs),
(577,500,l),
(577,466,ls),
(577,364,o),
(614,322,o),
(691,322,cs)
);
},
{
closed = 1;
nodes = (
(140,565,o),
(119,587,o),
(119,614,cs),
(119,643,o),
(140,663,o),
(167,663,cs),
(198,663,o),
(213,646,o),
(213,613,cs),
(213,586,o),
(194,565,o),
(167,565,cs)
);
},
{
closed = 1;
nodes = (
(414,565,o),
(394,587,o),
(394,614,cs),
(394,643,o),
(414,663,o),
(441,663,cs),
(472,663,o),
(487,646,o),
(487,613,cs),
(487,586,o),
(469,565,o),
(441,565,cs)
);
}
);
vertWidth = 0;
width = 862;
},
{
layerId = "3DE82CA6-356F-4113-A2BF-F7F877EAC5C8";
shapes = (
{
closed = 1;
nodes = (
(827,301,o),
(859,362,o),
(859,421,cs),
(859,469,l),
(766,469,l),
(766,419,ls),
(766,392,o),
(757,374,o),
(732,374,cs),
(705,374,o),
(694,392,o),
(694,419,cs),
(694,563,l),
(586,563,l),
(590,575,o),
(592,588,o),
(592,602,cs),
(592,675,o),
(533,727,o),
(462,727,cs),
(389,727,o),
(333,675,o),
(333,602,cs),
(333,588,o),
(335,575,o),
(339,563,c),
(292,563,l),
(296,575,o),
(298,588,o),
(298,602,cs),
(298,675,o),
(239,727,o),
(169,727,cs),
(95,727,o),
(39,675,o),
(39,602,cs),
(39,533,o),
(92,478,o),
(163,478,cs),
(601,478,l),
(601,421,ls),
(601,362,o),
(632,301,o),
(729,301,cs)
);
},
{
closed = 1;
nodes = (
(147,563,o),
(132,578,o),
(132,603,cs),
(132,629,o),
(147,642,o),
(169,642,cs),
(189,642,o),
(205,629,o),
(205,603,cs),
(205,578,o),
(189,563,o),
(169,563,cs)
);
},
{
closed = 1;
nodes = (
(441,563,o),
(426,578,o),
(426,603,cs),
(426,629,o),
(441,642,o),
(462,642,cs),
(483,642,o),
(499,629,o),
(499,603,cs),
(499,578,o),
(483,563,o),
(462,563,cs)
);
}
);
vertWidth = 0;
width = 898;
}
);
metricLeft = "=uni1595";
metricRight = "=uni1595";
note = uni1596;
unicode = 5526;
}
{
glyphname = uni1597;
layers = (
{
layerId = master01;
shapes = (
{
closed = 1;
nodes = (
(483,0,l),
(483,485,ls),
(483,649,o),
(391,726,o),
(274,726,cs),
(141,726,o),
(69,625,o),
(69,481,cs),
(69,349,o),
(130,279,o),
(213,279,cs),
(289,279,o),
(364,338,o),
(364,459,c),
(340,462,l),
(340,340,o),
(272,302,o),
(215,302,cs),
(141,302,o),
(95,366,o),
(95,480,cs),
(95,607,o),
(152,703,o),
(272,703,cs),
(382,703,o),
(459,622,o),
(459,486,cs),
(459,0,l)
);
}
);
vertWidth = 0;
width = 562;
},
{
layerId = "95BBE91D-E142-4583-9333-40F49FDAAF51";
shapes = (
{
closed = 1;
nodes = (
(523,0,l),
(523,459,ls),
(523,637,o),
(437,726,o),
(290,726,cs),
(138,726,o),
(59,631,o),
(59,490,cs),
(59,361,o),
(125,280,o),
(227,280,cs),
(321,280,o),
(384,348,o),
(392,457,c),
(314,467,l),
(305,390,o),
(277,351,o),
(227,351,cs),
(170,351,o),
(137,402,o),
(137,492,cs),
(137,601,o),
(186,655,o),
(285,655,cs),
(406,655,o),
(445,575,o),
(445,460,cs),
(445,0,l)
);
}
);
vertWidth = 0;
width = 592;
},
{
layerId = "3DE82CA6-356F-4113-A2BF-F7F877EAC5C8";
shapes = (
{
closed = 1;
nodes = (
(618,0,l),
(618,456,ls),
(618,627,o),
(517,726,o),
(342,726,cs),
(154,726,o),
(49,612,o),
(49,443,cs),
(49,299,o),
(125,200,o),
(236,200,cs),
(355,200,o),
(407,270,o),
(407,389,c),
(303,402,l),
(303,375,o),
(292,361,o),
(274,361,cs),
(245,361,o),
(236,400,o),
(236,441,cs),
(236,531,o),
(278,566,o),
(334,566,cs),
(393,566,o),
(428,528,o),
(428,456,cs),
(428,0,l)
);
}
);
vertWidth = 0;
width = 677;
}
);
note = uni1597;
unicode = 5527;
}
{
glyphname = uni1598;
layers = (
{
layerId = master01;
shapes = (
{
closed = 1;
nodes = (
(103,0,l),
(103,486,ls),
(103,622,o),
(180,703,o),
(290,703,cs),
(410,703,o),
(467,607,o),
(467,480,cs),
(467,366,o),
(421,302,o),
(347,302,cs),
(290,302,o),
(222,340,o),
(222,462,c),
(198,459,l),
(198,338,o),
(273,279,o),
(349,279,cs),
(432,279,o),
(493,349,o),
(493,481,cs),
(493,625,o),
(421,726,o),
(288,726,cs),
(171,726,o),
(79,649,o),
(79,485,cs),
(79,0,l)
);
}
);
vertWidth = 0;
width = 562;
},
{
layerId = "95BBE91D-E142-4583-9333-40F49FDAAF51";
shapes = (
{
closed = 1;
nodes = (
(147,0,l),
(147,460,ls),
(147,575,o),
(186,655,o),
(307,655,cs),
(406,655,o),
(455,601,o),
(455,492,cs),
(455,402,o),
(422,351,o),
(365,351,cs),
(315,351,o),
(287,390,o),
(278,467,c),
(200,457,l),
(208,348,o),
(271,280,o),
(365,280,cs),
(467,280,o),
(533,361,o),
(533,490,cs),
(533,631,o),
(454,726,o),
(302,726,cs),
(155,726,o),
(69,637,o),
(69,459,cs),
(69,0,l)
);
}
);
vertWidth = 0;
width = 592;
},
{
layerId = "3DE82CA6-356F-4113-A2BF-F7F877EAC5C8";
shapes = (
{
closed = 1;
nodes = (
(249,0,l),
(249,456,ls),
(249,528,o),
(284,566,o),
(343,566,cs),
(399,566,o),
(441,531,o),
(441,441,cs),
(441,400,o),
(432,361,o),
(403,361,cs),
(385,361,o),
(374,375,o),
(374,402,c),
(270,389,l),
(270,270,o),
(322,200,o),
(441,200,cs),
(552,200,o),
(628,299,o),
(628,443,cs),
(628,612,o),
(523,726,o),
(335,726,cs),
(160,726,o),
(59,627,o),
(59,456,cs),
(59,0,l)
);
}
);
vertWidth = 0;
width = 677;
}
);
note = uni1598;
unicode = 5528;
}
{
glyphname = uni1599;
layers = (
{
layerId = master01;
shapes = (
{
closed = 1;
nodes = (
(391,-12,o),
(483,65,o),
(483,229,cs),
(483,714,l),
(459,714,l),
(459,228,ls),
(459,92,o),
(382,11,o),
(272,11,cs),
(152,11,o),
(95,107,o),
(95,234,cs),
(95,348,o),
(141,412,o),
(215,412,cs),
(272,412,o),
(340,374,o),
(340,252,c),
(364,255,l),
(364,376,o),
(289,435,o),
(213,435,cs),
(130,435,o),
(69,365,o),
(69,233,cs),
(69,89,o),
(141,-12,o),
(274,-12,cs)
);
}
);
vertWidth = 0;
width = 562;
},
{
layerId = "95BBE91D-E142-4583-9333-40F49FDAAF51";
shapes = (
{
closed = 1;
nodes = (
(437,-12,o),
(523,77,o),
(523,255,cs),
(523,714,l),
(445,714,l),
(445,254,ls),
(445,139,o),
(406,59,o),
(285,59,cs),
(186,59,o),
(137,113,o),
(137,222,cs),
(137,312,o),
(170,363,o),
(227,363,cs),
(277,363,o),
(305,324,o),
(314,247,c),
(392,257,l),
(384,366,o),
(321,434,o),
(227,434,cs),
(125,434,o),
(59,353,o),
(59,224,cs),
(59,83,o),
(138,-12,o),
(290,-12,cs)
);
}
);
vertWidth = 0;
width = 592;
},
{
layerId = "3DE82CA6-356F-4113-A2BF-F7F877EAC5C8";
shapes = (
{
closed = 1;
nodes = (
(517,-12,o),
(618,87,o),
(618,258,cs),
(618,714,l),
(428,714,l),
(428,258,ls),
(428,186,o),
(393,148,o),
(334,148,cs),
(278,148,o),
(236,183,o),
(236,273,cs),
(236,314,o),
(245,353,o),
(274,353,cs),
(292,353,o),
(303,339,o),
(303,312,c),
(407,325,l),
(407,444,o),
(355,514,o),
(236,514,cs),
(125,514,o),
(49,415,o),
(49,271,cs),
(49,102,o),
(154,-12,o),
(342,-12,cs)
);
}
);
vertWidth = 0;
width = 677;
}
);
metricLeft = "=uni1597";
metricRight = "=uni1597";
note = uni1599;
unicode = 5529;
}
{
glyphname = uni159A;
layers = (
{
layerId = master01;
shapes = (
{
closed = 1;
nodes = (
(421,-12,o),
(493,89,o),
(493,233,cs),
(493,365,o),
(432,435,o),
(349,435,cs),
(273,435,o),
(198,376,o),
(198,255,c),
(222,252,l),
(222,374,o),
(290,412,o),
(347,412,cs),
(421,412,o),
(467,348,o),
(467,234,cs),
(467,107,o),
(410,11,o),
(290,11,cs),
(180,11,o),
(103,92,o),
(103,228,cs),
(103,714,l),
(79,714,l),
(79,229,ls),
(79,65,o),
(171,-12,o),
(288,-12,cs)
);
}
);
vertWidth = 0;
width = 562;
},
{
layerId = "95BBE91D-E142-4583-9333-40F49FDAAF51";
shapes = (
{
closed = 1;
nodes = (
(454,-12,o),
(533,83,o),
(533,224,cs),
(533,353,o),
(467,434,o),
(365,434,cs),
(271,434,o),
(208,366,o),
(200,257,c),
(278,247,l),
(287,324,o),
(315,363,o),
(365,363,cs),
(422,363,o),
(455,312,o),
(455,222,cs),
(455,113,o),
(406,59,o),
(307,59,cs),
(186,59,o),
(147,139,o),
(147,254,cs),
(147,714,l),
(69,714,l),
(69,255,ls),
(69,77,o),
(155,-12,o),
(302,-12,cs)
);
}
);
vertWidth = 0;
width = 592;
},
{
layerId = "3DE82CA6-356F-4113-A2BF-F7F877EAC5C8";
shapes = (
{
closed = 1;
nodes = (
(523,-12,o),
(628,101,o),
(628,273,cs),
(628,415,o),
(556,514,o),
(432,514,cs),
(327,514,o),
(270,444,o),
(270,325,c),
(374,312,l),
(374,339,o),
(385,353,o),
(403,353,cs),
(432,353,o),
(441,314,o),
(441,273,cs),
(441,183,o),
(399,148,o),
(343,148,cs),
(284,148,o),
(249,186,o),
(249,258,cs),
(249,714,l),
(59,714,l),
(59,258,ls),
(59,87,o),
(160,-12,o),
(335,-12,cs)
);
}
);
vertWidth = 0;
width = 677;
}
);
metricLeft = "=uni1598";
metricRight = "=uni1598";
note = uni159A;
unicode = 5530;
}
{
glyphname = uni159B;
layers = (
{
layerId = master01;
shapes = (
{
closed = 1;
nodes = (
(717,-12,o),
(828,98,o),
(828,234,cs),
(828,370,o),
(718,481,o),
(581,481,cs),
(59,481,l),
(59,456,l),
(481,456,l),
(395,421,o),
(336,333,o),
(336,234,cs),
(336,98,o),
(446,-12,o),
(581,-12,cs)
);
},
{
closed = 1;
nodes = (
(460,13,o),
(363,112,o),
(363,234,cs),
(363,356,o),
(459,456,o),
(581,456,cs),
(704,456,o),
(801,356,o),
(801,234,cs),
(801,112,o),
(703,13,o),
(581,13,cs)
);
},
{
closed = 1;
nodes = (
(816,652,l),
(816,677,l),
(59,677,l),
(59,652,l)
);
}
);
vertWidth = 0;
width = 897;
},
{
layerId = "95BBE91D-E142-4583-9333-40F49FDAAF51";
shapes = (
{
closed = 1;
nodes = (
(748,-12,o),
(846,88,o),
(846,246,cs),
(846,404,o),
(743,500,o),
(584,500,cs),
(49,500,l),
(49,430,l),
(410,430,l),
(360,374,o),
(340,326,o),
(340,233,cs),
(340,91,o),
(447,-12,o),
(594,-12,cs)
);
},
{
closed = 1;
nodes = (
(497,59,o),
(418,129,o),
(418,235,cs),
(418,354,o),
(484,430,o),
(593,430,cs),
(692,430,o),
(768,359,o),
(768,248,cs),
(768,133,o),
(699,59,o),
(598,59,cs)
);
},
{
closed = 1;
nodes = (
(804,608,l),
(804,679,l),
(49,679,l),
(49,608,l)
);
}
);
vertWidth = 0;
width = 905;
},
{
layerId = "3DE82CA6-356F-4113-A2BF-F7F877EAC5C8";
shapes = (
{
closed = 1;
nodes = (
(772,-12,o),
(882,91,o),
(882,253,cs),
(882,418,o),
(768,516,o),
(601,516,cs),
(39,516,l),
(39,360,l),
(357,360,l),
(345,328,o),
(339,287,o),
(339,250,cs),
(339,89,o),
(456,-12,o),
(613,-12,cs)
);
},
{
closed = 1;
nodes = (
(555,141,o),
(505,179,o),
(505,251,cs),
(505,316,o),
(545,365,o),
(610,365,cs),
(670,365,o),
(716,323,o),
(716,253,cs),
(716,186,o),
(674,141,o),
(612,141,cs)
);
},
{
closed = 1;
nodes = (
(854,558,l),
(854,714,l),
(39,714,l),
(39,558,l)
);
}
);
vertWidth = 0;
width = 931;
}
);
note = uni159B;
unicode = 5531;
}
{
glyphname = uni159C;
layers = (
{
layerId = master01;
shapes = (
{
closed = 1;
nodes = (
(451,-12,o),
(561,98,o),
(561,234,cs),
(561,333,o),
(502,421,o),
(416,456,c),
(838,456,l),
(838,481,l),
(316,481,ls),
(179,481,o),
(69,370,o),
(69,234,cs),
(69,98,o),
(180,-12,o),
(316,-12,cs)
);
},
{
closed = 1;
nodes = (
(194,13,o),
(96,112,o),
(96,234,cs),
(96,356,o),
(193,456,o),
(316,456,cs),
(438,456,o),
(534,356,o),
(534,234,cs),
(534,112,o),
(437,13,o),
(316,13,cs)
);
},
{
closed = 1;
nodes = (
(838,652,l),
(838,677,l),
(81,677,l),
(81,652,l)
);
}
);
vertWidth = 0;
width = 897;
},
{
layerId = "95BBE91D-E142-4583-9333-40F49FDAAF51";
shapes = (
{
closed = 1;
nodes = (
(458,-12,o),
(564,91,o),
(564,233,cs),
(564,323,o),
(546,372,o),
(495,430,c),
(855,430,l),
(855,500,l),
(320,500,ls),
(161,500,o),
(59,404,o),
(59,246,cs),
(59,88,o),
(156,-12,o),
(311,-12,cs)
);
},
{
closed = 1;
nodes = (
(204,59,o),
(137,135,o),
(137,248,cs),
(137,359,o),
(212,430,o),
(311,430,cs),
(420,430,o),
(486,354,o),
(486,235,cs),
(486,129,o),
(408,59,o),
(307,59,cs)
);
},
{
closed = 1;
nodes = (
(855,608,l),
(855,679,l),
(101,679,l),
(101,608,l)
);
}
);
vertWidth = 0;
width = 904;
},
{
layerId = "3DE82CA6-356F-4113-A2BF-F7F877EAC5C8";
shapes = (
{
closed = 1;
nodes = (
(475,-12,o),
(592,89,o),
(592,250,cs),
(592,287,o),
(586,328,o),
(574,360,c),
(892,360,l),
(892,516,l),
(330,516,ls),
(163,516,o),
(49,418,o),
(49,253,cs),
(49,91,o),
(159,-12,o),
(318,-12,cs)
);
},
{
closed = 1;
nodes = (
(257,141,o),
(215,186,o),
(215,253,cs),
(215,323,o),
(261,365,o),
(321,365,cs),
(386,365,o),
(426,316,o),
(426,251,cs),
(426,179,o),
(376,141,o),
(319,141,cs)
);
},
{
closed = 1;
nodes = (
(892,558,l),
(892,714,l),
(77,714,l),
(77,558,l)
);
}
);
vertWidth = 0;
width = 931;
}
);
note = uni159C;
unicode = 5532;
}
{
glyphname = uni159D;
layers = (
{
layerId = master01;
shapes = (
{
closed = 1;
nodes = (
(581,0,ls),
(718,0,o),
(828,111,o),
(828,247,cs),
(828,383,o),
(717,493,o),
(581,493,cs),
(446,493,o),
(336,383,o),
(336,247,cs),
(336,148,o),
(395,60,o),
(481,25,c),
(59,25,l),
(59,0,l)
);
},
{
closed = 1;
nodes = (
(459,25,o),
(363,125,o),
(363,247,cs),
(363,369,o),
(460,468,o),
(581,468,cs),
(703,468,o),
(801,369,o),
(801,247,cs),
(801,125,o),
(704,25,o),
(581,25,cs)
);
},
{
closed = 1;
nodes = (
(816,652,l),
(816,677,l),
(59,677,l),
(59,652,l)
);
}
);
vertWidth = 0;
width = 897;
},
{
layerId = "95BBE91D-E142-4583-9333-40F49FDAAF51";
shapes = (
{
closed = 1;
nodes = (
(584,0,ls),
(743,0,o),
(846,96,o),
(846,254,cs),
(846,412,o),
(748,513,o),
(594,513,cs),
(447,513,o),
(340,410,o),
(340,268,cs),
(340,178,o),
(359,129,o),
(410,71,c),
(49,71,l),
(49,0,l)
);
},
{
closed = 1;
nodes = (
(484,71,o),
(418,147,o),
(418,266,cs),
(418,371,o),
(497,442,o),
(598,442,cs),
(701,442,o),
(768,366,o),
(768,253,cs),
(768,142,o),
(692,71,o),
(593,71,cs)
);
},
{
closed = 1;
nodes = (
(804,608,l),
(804,679,l),
(49,679,l),
(49,608,l)
);
}
);
vertWidth = 0;
width = 905;
},
{
layerId = "3DE82CA6-356F-4113-A2BF-F7F877EAC5C8";
shapes = (
{
closed = 1;
nodes = (
(601,0,ls),
(768,0,o),
(882,98,o),
(882,263,cs),
(882,425,o),
(772,528,o),
(613,528,cs),
(456,528,o),
(339,427,o),
(339,266,cs),
(339,229,o),
(345,188,o),
(357,156,c),
(39,156,l),
(39,0,l)
);
},
{
closed = 1;
nodes = (
(545,151,o),
(505,200,o),
(505,265,cs),
(505,337,o),
(555,375,o),
(612,375,cs),
(674,375,o),
(716,330,o),
(716,263,cs),
(716,193,o),
(670,151,o),
(610,151,cs)
);
},
{
closed = 1;
nodes = (
(854,558,l),
(854,714,l),
(39,714,l),
(39,558,l)
);
}
);
vertWidth = 0;
width = 931;
}
);
metricLeft = "=uni159B";
metricRight = "=uni159B";
note = uni159D;
unicode = 5533;
}
